<?xml version="1.0" encoding="UTF-8" standalone="no"?>
<svg
   xmlns:dc="http://purl.org/dc/elements/1.1/"
   xmlns:cc="http://creativecommons.org/ns#"
   xmlns:rdf="http://www.w3.org/1999/02/22-rdf-syntax-ns#"
   xmlns:svg="http://www.w3.org/2000/svg"
   xmlns="http://www.w3.org/2000/svg"
   xmlns:xlink="http://www.w3.org/1999/xlink"
   id="svg1421"
   viewBox="0 0 1700 1200"
   height="1200px"
   width="1700px"
   y="0px"
   x="0px"
   preserveAspectRatio="none"
   version="1.1">
  <metadata
     id="metadata1425">
    <rdf:RDF>
      <cc:Work
         rdf:about="">
        <dc:format>image/svg+xml</dc:format>
        <dc:type
           rdf:resource="http://purl.org/dc/dcmitype/StillImage" />
        <dc:title></dc:title>
      </cc:Work>
    </rdf:RDF>
  </metadata>
  <defs
     id="defs353">
    <filter
       color-interpolation-filters="sRGB"
       height="140%"
       width="140%"
       y="-20%"
       x="-20%"
       id="Filter_1">
      <feGaussianBlur
         id="feGaussianBlur2"
         result="result1"
         stdDeviation="6.666666666666667,6.666666666666667"
         in="SourceGraphic" />
      <feColorMatrix
         id="feColorMatrix4"
         result="result2"
         values="1 0 0 0 0 0 1 0 0 0 0 0 1 0 0 0 0 0 0.5 0"
         type="matrix"
         in="result1" />
    </filter>
    <filter
       color-interpolation-filters="sRGB"
       height="140%"
       width="140%"
       y="-20%"
       x="-20%"
       id="Filter_2">
      <feGaussianBlur
         id="feGaussianBlur7"
         result="result1"
         stdDeviation="6.666666666666667,6.666666666666667"
         in="SourceGraphic" />
      <feColorMatrix
         id="feColorMatrix9"
         result="result2"
         values="1 0 0 0 0 0 1 0 0 0 0 0 1 0 0 0 0 0 0.5 0"
         type="matrix"
         in="result1" />
    </filter>
    <filter
       color-interpolation-filters="sRGB"
       height="140%"
       width="140%"
       y="-20%"
       x="-20%"
       id="Filter_3">
      <feGaussianBlur
         id="feGaussianBlur12"
         result="result1"
         stdDeviation="6.666666666666667,6.666666666666667"
         in="SourceGraphic" />
      <feColorMatrix
         id="feColorMatrix14"
         result="result2"
         values="1 0 0 0 0 0 1 0 0 0 0 0 1 0 0 0 0 0 0.5 0"
         type="matrix"
         in="result1" />
    </filter>
    <filter
       color-interpolation-filters="sRGB"
       height="140%"
       width="140%"
       y="-20%"
       x="-20%"
       id="Filter_4">
      <feGaussianBlur
         id="feGaussianBlur17"
         result="result1"
         stdDeviation="6.666666666666667,6.666666666666667"
         in="SourceGraphic" />
      <feColorMatrix
         id="feColorMatrix19"
         result="result2"
         values="1 0 0 0 0 0 1 0 0 0 0 0 1 0 0 0 0 0 0.5 0"
         type="matrix"
         in="result1" />
    </filter>
    <g
       id="Mask_Mask_Symbol_1_0_Layer0_0_FILL">
      <path
         id="path22"
         d=" M -17.6 -16.6 L -15.6 -16.6 Q -18 -16 -20 -9.05 L -20 -8 -18.4 -9.4 -19.5 -4.85 -19.95 -2.5 -18.25 -3.35 -18.2 -3.45 -18.2 -3.3 Q -18.2 -1.8 -15.95 0.6 -14.2 2.45 -12.15 3.2 L -10.35 3.6 Q -11.15 4.95 -11.15 6.55 -11.15 8.15 -10.25 9.85 -8.65 12.85 -4.95 12.85 L -3.9 12.75 -3.85 12.75 -3.9 12.95 Q -3.9 14.5 -0.3 16.75 2.1 18.2 4.35 18.8 L 6.35 19.1 6.75 20 20 20 20 -20 -13.5 -20 -15.3 -18.9 Q -17.4 -17.45 -17.6 -16.6 Z"
         stroke="none"
         fill="#FFFFFF" />
    </g>
    <g
       id="Symbol_2_0_Layer0_0_FILL">
      <path
         id="path25"
         d=" M 2.2 -28.9 L 0.35 -29.1 Q -0.9 -28.75 -2.4 -27.3 -4.9 -24.9 -4.9 -23.6 L -4.85 -23.25 -6.1 -24.45 -9.8 -27.4 Q -11.8 -27.7 -13.1 -25.25 -14.15 -23.4 -14.15 -21.65 L -13.85 -20 -13.6 -18.7 Q -14.55 -19.65 -15.45 -19.9 L -15.95 -20 -16.45 -20 Q -17.6 -19.9 -18.65 -18.7 L -19.45 -17.65 -19.45 -17.25 Q -19.9 -16.45 -20 -15.4 L -20.05 -14.5 -20 -13.7 Q -19.85 -12.7 -19.35 -12 L -19.35 -11.95 -18.05 -10.35 Q -17.15 -9.35 -16.2 -8.6 -17.05 -8.1 -17.65 -6.3 -18.2 -4.55 -18.2 -3.3 -18.2 -1.8 -15.95 0.6 -14.2 2.45 -12.15 3.2 L -10.35 3.6 Q -11.15 4.95 -11.15 6.55 -11.15 8.15 -10.25 9.85 -8.65 12.85 -4.95 12.85 L -3.9 12.75 -3.85 12.75 -3.9 12.95 Q -3.9 14.5 -0.3 16.75 2.1 18.2 4.35 18.8 L 7.05 19.1 Q 8.45 19.1 9.3 18.6 10.15 18.15 10.2 17.35 L 9.5 16.45 Q 9.5 14.65 11.45 15.75 12.5 16.3 13.7 17.35 L 15.15 17.8 Q 15.35 16.65 16.7 17.25 L 17.9 17.85 17.95 15.8 Q 17.85 15.2 18.35 14.75 18.9 14.2 19.65 14.75 19.9 15.05 20 16.8 L 20 17.35 20.3 17.3 Q 21.1 17.3 21.3 17.9 L 23.4 18.2 Q 26.1 18.2 27.3 15.6 28.05 14.05 28.05 12.55 28.05 10.9 27.65 9.85 L 27.45 9.45 Q 26.75 8.15 25.35 7.55 L 28.2 5.3 Q 31.3 2.3 31.3 -0.5 31.3 -2.6 29.45 -4.15 L 29.5 -4.15 Q 30.95 -4.15 31.7 -7.55 32.2 -9.7 32.2 -11.15 L 32.1 -12.95 31.6 -13.7 Q 31.1 -14.25 30.2 -14.65 L 27.15 -15.5 26.55 -15.65 26.6 -15.75 Q 27.05 -16.3 27.05 -17.1 L 26.75 -18.85 26.3 -20.7 Q 26.2 -21.5 24.05 -22.35 L 22.1 -23 19.7 -23.3 19.25 -23.8 16.55 -26.4 Q 15.2 -27.8 14.75 -28.95 L 14.5 -29.25 13.65 -30.1 13.65 -30.25 13.6 -30.3 13.1 -30.6 12.45 -30.9 9.7 -31 Q 8.8 -30.7 8 -29.9 6.3 -28.2 6.15 -26.65 4.9 -27.85 3.2 -28.55 L 2.2 -28.9 M 15.9 11.2 L 15.85 11.15 15.9 11.15 15.9 11.2 Z"
         stroke="none"
         fill="#544C2E" />
    </g>
    <g
       id="Symbol_4_0_Layer0_0_FILL">
      <path
         id="path28"
         d=" M 4.4 -7.7 L 2.25 -8.4 Q -1.25 -8.95 -3.55 -6 L -5.9 -2.6 Q -6.55 -1.3 -6.55 0.55 L -6.25 2.7 -4.8 5 Q -0.8 8.5 1.15 8.5 2.8 8.5 4.1 7.5 L 5.35 6.1 Q 6.6 4.3 6.6 2.95 6.6 1.55 5.85 -0.2 5.1 -1.95 5.1 -2.45 L 5.35 -4.05 5.6 -5.65 Q 5.6 -7 4.4 -7.7 M 4.1 -3.05 L 4 -2.3 Q 4 -1.8 4.85 0.15 5.65 2.15 5.65 2.9 5.65 3.85 4.6 5.4 L 3.35 6.75 Q 2.3 7.5 1.05 7.5 -1.75 7.5 -3.9 4.5 -5.65 2.1 -5.65 0.5 L -5.6 0 -4.7 -2.25 -2.95 -4.75 Q -2.2 -7.15 1.25 -7.35 4.7 -7.5 4.7 -5.6 L 4.1 -3.05 Z"
         stroke="none"
         fill="#544E33" />
      <path
         id="path30"
         d=" M 0.85 2.2 L 0.65 0.1 Q -1.25 1.35 -2.8 1.35 -3.85 1.35 -4.7 0.8 L -5.6 0 -5.65 0.5 Q -5.65 2.1 -3.9 4.5 -1.75 7.5 1.05 7.5 2.3 7.5 3.35 6.75 L 3.05 6.45 1.6 4.75 Q 1.05 3.95 0.85 2.2 Z"
         stroke="none"
         fill="#726A48" />
      <path
         id="path32"
         d=" M 2.1 -1 Q 3.4 -2.1 4.1 -3.05 L 4.7 -5.6 Q 4.7 -7.5 1.25 -7.35 -2.2 -7.15 -2.95 -4.75 L -4.7 -2.25 -5.6 0 -4.7 0.8 Q -3.85 1.35 -2.8 1.35 -1.25 1.35 0.65 0.1 L 2.1 -1 Z"
         stroke="none"
         fill="#8C835E" />
      <path
         id="path34"
         d=" M 4 -2.3 L 4.1 -3.05 Q 3.4 -2.1 2.1 -1 L 0.65 0.1 0.85 2.2 Q 1.05 3.95 1.6 4.75 L 3.05 6.45 3.35 6.75 4.6 5.4 Q 5.65 3.85 5.65 2.9 5.65 2.15 4.85 0.15 4 -1.8 4 -2.3 Z"
         stroke="none"
         fill="#5F583A" />
    </g>
    <g
       id="Symbol_6_0_Layer0_0_FILL">
      <path
         id="path37"
         d=" M 1.95 -7.35 L 1.9 -7.4 Q -0.3 -8.2 -1.2 -7.95 -1.85 -7.75 -2.3 -7.3 L -2.8 -6.75 Q -5.6 -3.4 -5.6 -1.7 -5.6 -0.7 -4.95 0.85 L -4.5 1.9 -3.85 3.35 Q -3.5 4.45 -1.85 5.85 L 1 7.8 1.85 7.85 Q 3.2 7.8 4.5 5.6 5.65 3.7 5.65 2.9 L 5.6 2.6 Q 5.35 1.8 4.15 0.45 2.65 -1.3 2.65 -2 L 2.85 -3.35 3.05 -4.85 3 -6 2 -7.3 1.95 -7.35 M 0.7 -6.85 L 0.95 -6.75 Q 2.15 -6.25 2.15 -4.9 L 1.7 -2.1 Q 1.7 -0.45 3.2 0.95 4.7 2.3 4.7 3 L 3.85 4.75 Q 2.6 6.85 1.55 6.85 0.4 6.85 -1.35 5.05 -2.7 3.65 -3.05 2.85 L -3.75 1.15 -4.7 -1.7 Q -4.7 -2.25 -3.7 -3.85 L -2.45 -5.7 Q -0.65 -7.2 0.7 -6.85 Z"
         stroke="none"
         fill="#544E33" />
      <path
         id="path39"
         d=" M -2.45 -5.7 L -3.7 -3.85 Q -4.7 -2.25 -4.7 -1.7 L -3.75 1.15 -3.75 1.1 Q -3.05 0.6 -0.5 0.25 L -0.75 -1.55 Q -0.75 -3.3 -0.2 -5.05 0.2 -6.25 0.7 -6.85 -0.65 -7.2 -2.45 -5.7 Z"
         stroke="none"
         fill="#726A48" />
      <path
         id="path41"
         d=" M 3.85 4.75 Q 1.85 4.6 0.5 2.5 -0.2 1.4 -0.5 0.25 -3.05 0.6 -3.75 1.1 L -3.75 1.15 -3.05 2.85 Q -2.7 3.65 -1.35 5.05 0.4 6.85 1.55 6.85 2.6 6.85 3.85 4.75 Z"
         stroke="none"
         fill="#5F583A" />
      <path
         id="path43"
         d=" M 0.95 -6.75 L 0.7 -6.85 Q 0.2 -6.25 -0.2 -5.05 -0.75 -3.3 -0.75 -1.55 L -0.5 0.25 Q -0.2 1.4 0.5 2.5 1.85 4.6 3.85 4.75 L 4.7 3 Q 4.7 2.3 3.2 0.95 1.7 -0.45 1.7 -2.1 L 2.15 -4.9 Q 2.15 -6.25 0.95 -6.75 Z"
         stroke="none"
         fill="#8C835E" />
    </g>
    <g
       id="Symbol_8_0_Layer0_0_FILL">
      <path
         id="path46"
         d=" M 5 -2.25 L 4.3 -3.45 Q 2.2 -6.75 -1.1 -6.75 -2.75 -6.75 -3.8 -6 -4.6 -5.4 -4.6 -4.8 L -5.2 -1.95 Q -5.85 0.45 -5.85 2.5 -5.85 6.75 0.5 6.75 L 1.55 6.65 Q 3.5 6.15 4.75 3.9 5.85 1.95 5.85 0.65 5.85 -0.6 5 -2.25 M 3.25 -3.1 L 4.6 -0.9 4.9 0.65 Q 4.9 1.6 3.95 3.3 3.2 4.7 2.15 5.35 1.4 5.8 0.45 5.8 -4.9 5.8 -4.9 2.5 L -4.7 -0.15 -4.25 -1.8 Q -3.95 -2.45 -3.8 -4.1 -3.4 -5.45 -1.75 -5.8 1.15 -5.65 3.25 -3.1 Z"
         stroke="none"
         fill="#544E33" />
      <path
         id="path48"
         d=" M 2.5 2.7 L 2.65 3.7 2.15 5.35 Q 3.2 4.7 3.95 3.3 4.9 1.6 4.9 0.65 L 4.6 -0.9 3.35 1.65 2.5 2.7 Z"
         stroke="none"
         fill="#5F583A" />
      <path
         id="path50"
         d=" M 2.65 3.7 L 2.5 2.7 Q 2.15 1.55 1 0.25 -0.7 -1.75 -2.4 -1.75 -3.7 -1.75 -4.6 -0.35 L -4.7 -0.15 -4.9 2.5 Q -4.9 5.8 0.45 5.8 1.4 5.8 2.15 5.35 L 2.65 3.7 Z"
         stroke="none"
         fill="#8C835E" />
      <path
         id="path52"
         d=" M 4.6 -0.9 L 3.25 -3.1 Q 1.15 -5.65 -1.75 -5.8 -3.4 -5.45 -3.8 -4.1 -3.95 -2.45 -4.25 -1.8 L -4.7 -0.15 -4.6 -0.35 Q -3.7 -1.75 -2.4 -1.75 -0.7 -1.75 1 0.25 2.15 1.55 2.5 2.7 L 3.35 1.65 4.6 -0.9 Z"
         stroke="none"
         fill="#726A48" />
    </g>
    <g
       id="Symbol_10_0_Layer0_0_FILL">
      <path
         id="path55"
         d=" M 5.2 -0.35 Q 5.2 -1.15 4.3 -2.2 L 2.8 -3.7 -0.9 -6.65 Q -2.9 -6.95 -4.2 -4.5 -5.25 -2.65 -5.25 -0.9 L -4.5 3 Q -3.3 6.5 -0.95 6.7 L -0.65 6.7 Q 2.65 6.7 5.2 -0.35 M 4 -0.9 L 4.25 -0.3 3.65 1.25 2.7 2.85 1.35 4.6 Q 0.4 5.7 -0.55 5.75 L -0.65 5.75 Q -1.95 5.75 -3.2 3.25 -4.3 0.95 -4.3 -0.9 -4.3 -2.2 -3.35 -3.8 L -3.15 -4.1 Q -2.2 -5.6 -1.15 -5.65 -0.65 -5.7 1.8 -3.4 3.5 -1.8 4 -0.9 Z"
         stroke="none"
         fill="#544E33" />
      <path
         id="path57"
         d=" M 0.9 1.9 L 0.95 1.65 Q -0.05 1.55 -1.65 -0.5 -3.25 -2.55 -3.25 -3.35 L -3.15 -4.1 -3.35 -3.8 Q -4.3 -2.2 -4.3 -0.9 -4.3 0.95 -3.2 3.25 -1.95 5.75 -0.65 5.75 L -0.55 5.75 0.9 1.9 Z"
         stroke="none"
         fill="#726A48" />
      <path
         id="path59"
         d=" M 4 -0.9 Q 3.5 -1.8 1.8 -3.4 -0.65 -5.7 -1.15 -5.65 -2.2 -5.6 -3.15 -4.1 L -3.25 -3.35 Q -3.25 -2.55 -1.65 -0.5 -0.05 1.55 0.95 1.65 L 1.05 1.65 Q 1.8 1.65 3.1 0.25 L 4 -0.9 Z"
         stroke="none"
         fill="#8C835E" />
      <path
         id="path61"
         d=" M 4.25 -0.3 L 4 -0.9 3.1 0.25 Q 1.8 1.65 1.05 1.65 L 0.95 1.65 0.9 1.9 -0.55 5.75 Q 0.4 5.7 1.35 4.6 L 2.7 2.85 3.65 1.25 4.25 -0.3 Z"
         stroke="none"
         fill="#5F583A" />
    </g>
    <g
       id="Symbol_12_0_Layer0_0_FILL">
      <path
         id="path64"
         d=" M 6.8 -0.5 Q 6.8 -2.25 5.3 -4.05 3.9 -5.75 1.8 -6.6 L 0.8 -6.95 -1.05 -7.15 Q -2.3 -6.8 -3.8 -5.35 -6.3 -2.95 -6.3 -1.65 L -6.05 -0.65 Q -5.8 0.1 -5.8 0.75 -5.8 1.15 -6.3 2.4 L -6.8 3.9 Q -6.8 4.8 -5.1 6 -3.5 7.1 -1.85 7.3 L -1.25 7.3 Q 0.1 7.3 3.25 4.8 6.8 1.95 6.8 -0.5 M 4.55 -3.35 Q 5.9 -1.75 5.9 -0.4 5.9 0.3 5.35 1.3 L 3.9 3.05 Q 0.15 6.15 -1.2 6.15 L -1.8 5.95 -4.15 5.4 Q -5.8 4.75 -5.8 4 -4.85 2.25 -4.85 0.7 L -5 -0.5 -5.1 -0.75 -5.35 -1.7 -4.5 -3.15 -3.1 -4.55 -1.25 -6.05 0.9 -5.8 Q 1.95 -5.5 2.85 -4.9 L 4.55 -3.35 Z"
         stroke="none"
         fill="#544E33" />
      <path
         id="path66"
         d=" M -4.35 -0.1 L -5 -0.5 -4.85 0.7 Q -4.85 2.25 -5.8 4 -5.8 4.75 -4.15 5.4 L -1.8 5.95 -1.2 6.15 -1.05 5.6 Q -0.75 4.4 -0.75 2 L -0.75 0.25 -2.6 0.75 -4.35 -0.1 Z"
         stroke="none"
         fill="#706741" />
      <path
         id="path68"
         d=" M 2.9 -4.55 L 2.85 -4.9 Q 1.95 -5.5 0.9 -5.8 L -1.25 -6.05 -3.1 -4.55 -4.5 -3.15 -5.35 -1.7 -5.1 -0.75 -5 -0.5 -4.35 -0.1 -2.6 0.75 -0.75 0.25 Q 0.1 -0.2 1 -1.1 2.9 -2.95 2.9 -4.55 Z"
         stroke="none"
         fill="#8C835E" />
      <path
         id="path70"
         d=" M 5.9 -0.4 Q 5.9 -1.75 4.55 -3.35 L 2.85 -4.9 2.9 -4.55 Q 2.9 -2.95 1 -1.1 0.1 -0.2 -0.75 0.25 L -0.75 2 Q -0.75 4.4 -1.05 5.6 L -1.2 6.15 Q 0.15 6.15 3.9 3.05 L 5.35 1.3 Q 5.9 0.3 5.9 -0.4 Z"
         stroke="none"
         fill="#5F583A" />
    </g>
    <g
       id="Symbol_14_0_Layer0_0_FILL">
      <path
         id="path73"
         d=" M 1.45 -6.5 L 1.45 -6.65 1.4 -6.7 0.9 -7 0.25 -7.3 -2.5 -7.4 Q -3.4 -7.1 -4.2 -6.3 -6.1 -4.4 -6.1 -2.7 -6.1 -2.25 -5.3 -0.5 -4.5 1.2 -4.5 1.9 L -4.85 4.4 -4.5 5.5 -3.85 6.35 Q -2.6 7.7 -0.6 7.7 L 0.45 7.45 3.7 6.1 4.9 5.55 5.2 5.35 7.65 3.7 Q 8.1 3.15 8.1 2.15 8.1 0.9 7.05 -0.2 L 4.35 -2.8 Q 3 -4.2 2.55 -5.35 L 2.3 -5.65 1.45 -6.5 M 2.75 -3.2 L 3.45 -2.3 5.85 0.05 Q 7 1.1 7 2.2 7 2.9 5.9 3.7 L 3.4 4.95 3.05 5.1 2.55 5.3 0.15 6.35 -0.55 6.6 Q -1.6 6.6 -2.75 5.85 L -3.5 5.2 -3.9 4.35 -3.5 1.8 -3.5 1.6 Q -3.6 0.7 -4.3 -0.7 L -5.15 -2.7 Q -5.15 -4.1 -3.25 -5.55 L -2.25 -6.1 0.45 -6.05 1.45 -4.8 2.75 -3.2 Z"
         stroke="none"
         fill="#544E33" />
      <path
         id="path75"
         d=" M 3.05 5.1 L 0.2 0.75 0 1.1 Q -1.6 5.35 -2.95 5.35 L -3.5 5.2 -2.75 5.85 Q -1.6 6.6 -0.55 6.6 L 0.15 6.35 2.55 5.3 3.05 5.1 Z"
         stroke="none"
         fill="#5F583A" />
      <path
         id="path77"
         d=" M 1.6 -1.15 Q 2.6 -2.25 2.75 -3.2 L 1.45 -4.8 0.45 -6.05 -2.25 -6.1 -3.25 -5.55 Q -5.15 -4.1 -5.15 -2.7 L -4.3 -0.7 Q -3.6 0.7 -3.5 1.6 L -3.5 1.8 -3.9 4.35 -3.5 5.2 -2.95 5.35 Q -1.6 5.35 0 1.1 L 0.2 0.75 1.6 -1.15 Z"
         stroke="none"
         fill="#8C835E" />
      <path
         id="path79"
         d=" M 3.45 -2.3 L 2.75 -3.2 Q 2.6 -2.25 1.6 -1.15 L 0.2 0.75 3.05 5.1 3.4 4.95 5.9 3.7 Q 7 2.9 7 2.2 7 1.1 5.85 0.05 L 3.45 -2.3 Z"
         stroke="none"
         fill="#726A48" />
    </g>
    <g
       id="Symbol_16_0_Layer0_0_FILL">
      <path
         id="path82"
         d=" M 3.45 -6.2 L 2.45 -7.1 Q 0.25 -9.9 -4.55 -4.8 L -5.65 -3.45 -6.35 -2.3 Q -6.7 -1.4 -6.7 0.15 L -6.45 2.4 Q -6.1 3.5 -4.9 4.75 -3.5 6.2 0.15 7.3 L 3.5 8.05 Q 5 8.05 5.85 6.15 L 6.7 2.8 Q 6.7 1.35 5.5 -2.1 L 4.6 -4.65 3.45 -6.2 M 3.4 -4.6 Q 4.1 -3.4 4.8 -1.4 5.8 1.55 5.8 2.9 L 5.15 4.95 5.1 5.15 Q 4.25 7 3.4 7 L -3.35 4.75 -3.6 4.6 Q -5.8 3.45 -5.8 0.05 -5.8 -0.95 -5.25 -2.2 -4.65 -3.55 -3.65 -4.4 L -1.65 -6.25 Q 0.25 -7.55 2.25 -6 L 3.4 -4.6 Z"
         stroke="none"
         fill="#544E33" />
      <path
         id="path84"
         d=" M 5.1 5.15 L 3 2.35 Q 1.7 0.65 0.6 -0.3 L 0.1 0.4 -1.1 3.45 Q -1.75 4.55 -3.35 4.75 L 3.4 7 Q 4.25 7 5.1 5.15 Z"
         stroke="none"
         fill="#5F583A" />
      <path
         id="path86"
         d=" M 2.15 -2.3 Q 3.1 -3.45 3.4 -4.6 L 2.25 -6 Q 0.25 -7.55 -1.65 -6.25 L -3.65 -4.4 Q -4.65 -3.55 -5.25 -2.2 -5.8 -0.95 -5.8 0.05 -5.8 3.45 -3.6 4.6 L -3.35 4.75 Q -1.75 4.55 -1.1 3.45 L 0.1 0.4 0.6 -0.3 2.15 -2.3 Z"
         stroke="none"
         fill="#8C835E" />
      <path
         id="path88"
         d=" M 4.8 -1.4 Q 4.1 -3.4 3.4 -4.6 3.1 -3.45 2.15 -2.3 L 0.6 -0.3 Q 1.7 0.65 3 2.35 L 5.1 5.15 5.15 4.95 5.8 2.9 Q 5.8 1.55 4.8 -1.4 Z"
         stroke="none"
         fill="#726A48" />
    </g>
    <g
       id="Symbol_18_0_Layer0_0_FILL">
      <path
         id="path91"
         d=" M 3.8 2.95 L 4.25 2.15 4.9 0.15 Q 4.9 -0.85 2.7 -2.35 0.4 -3.9 -1.55 -3.9 -2.4 -3.9 -3.75 -2.1 -4.95 -0.45 -4.95 0.15 -4.95 1.05 -2.5 2.4 0.05 3.85 2.1 3.85 3.05 3.85 3.8 2.95 M 1.8 -1.7 L 2.1 -1.55 Q 3.9 -0.6 3.9 0.15 L 3.4 1.65 2.8 2.55 Q 2.4 2.9 2 2.9 L -1.3 1.85 Q -4.1 0.75 -4.1 0.15 L -3.45 -1.15 -3.05 -1.65 -2.05 -2.5 -0.8 -2.75 1.8 -1.7 Z"
         stroke="none"
         fill="#544E33" />
      <path
         id="path93"
         d=" M 0.55 1 L 0.2 0.6 -1.15 0.9 Q -1.8 0.9 -2.6 0.4 -3.5 -0.15 -3.5 -0.75 L -3.45 -1.15 -4.1 0.15 Q -4.1 0.75 -1.3 1.85 L 2 2.9 Q 2.4 2.9 2.8 2.55 1.25 1.85 0.55 1 Z"
         stroke="none"
         fill="#645D40" />
      <path
         id="path95"
         d=" M 1.8 -1.5 L 1.8 -1.7 -0.8 -2.75 -2.05 -2.5 -3.05 -1.65 -3.45 -1.15 -3.5 -0.75 Q -3.5 -0.15 -2.6 0.4 -1.8 0.9 -1.15 0.9 L 0.2 0.6 1 0 Q 1.8 -0.8 1.8 -1.5 Z"
         stroke="none"
         fill="#8C835E" />
      <path
         id="path97"
         d=" M 2.1 -1.55 L 1.8 -1.7 1.8 -1.5 Q 1.8 -0.8 1 0 L 0.2 0.6 0.55 1 Q 1.25 1.85 2.8 2.55 L 3.4 1.65 3.9 0.15 Q 3.9 -0.6 2.1 -1.55 Z"
         stroke="none"
         fill="#726A48" />
    </g>
    <g
       id="Symbol_20_0_Layer0_0_FILL">
      <path
         id="path100"
         d=" M 1.85 -7.95 L 0.25 -7.1 -3.2 -5.3 Q -4.7 -4.3 -4.7 -3.05 -4.7 -2.4 -3.9 0.05 L -3 2.65 Q -2.95 4.55 -2.55 5.75 -1.8 8 1.1 8 2.55 8 3.55 7 L 4 6.4 Q 4.75 5.3 4.75 4.45 L 3.85 2.15 Q 2.95 0.4 2.95 -0.3 2.95 -1.15 3.7 -2.75 4.4 -4.35 4.4 -4.9 L 4.1 -6 4.05 -6.1 3.3 -7.3 Q 2.9 -8.35 1.85 -7.95 M 1.4 -6.65 L 2.4 -6.7 Q 3.5 -5.8 3.5 -5.05 L 3.45 -4.7 2.75 -3.25 Q 2 -1.75 2 -0.35 2 0.65 2.9 2.6 L 3.8 4.4 Q 3.4 5.6 2.85 6.25 2.15 7.05 1.15 7.05 -1.3 7.05 -1.8 5.05 L -2 2.75 -2 2.4 -2.95 -0.1 Q -3.75 -2.45 -3.75 -3.1 -3.75 -3.9 -2.4 -4.65 L 0.2 -5.85 1.4 -6.65 Z"
         stroke="none"
         fill="#544E33" />
      <path
         id="path102"
         d=" M 0.3 -1.1 L 0.15 -0.75 -0.15 0.65 Q -0.15 1.45 -0.4 2.1 -0.75 2.9 -1.4 2.9 L -2 2.75 -1.8 5.05 Q -1.3 7.05 1.15 7.05 2.15 7.05 2.85 6.25 1.9 5.15 1.25 3.35 0.5 1.25 0.3 -1.1 Z"
         stroke="none"
         fill="#726A48" />
      <path
         id="path104"
         d=" M 2.75 -3.25 L 3.45 -4.7 2.9 -4.15 0.85 -2.25 0.3 -1.1 Q 0.5 1.25 1.25 3.35 1.9 5.15 2.85 6.25 3.4 5.6 3.8 4.4 L 2.9 2.6 Q 2 0.65 2 -0.35 2 -1.75 2.75 -3.25 Z"
         stroke="none"
         fill="#5F583A" />
      <path
         id="path106"
         d=" M 2.4 -6.7 L 1.4 -6.65 0.2 -5.85 -2.4 -4.65 Q -3.75 -3.9 -3.75 -3.1 -3.75 -2.45 -2.95 -0.1 L -2 2.4 -2 2.75 -1.4 2.9 Q -0.75 2.9 -0.4 2.1 -0.15 1.45 -0.15 0.65 L 0.15 -0.75 0.3 -1.1 0.85 -2.25 2.9 -4.15 3.45 -4.7 3.5 -5.05 Q 3.5 -5.8 2.4 -6.7 Z"
         stroke="none"
         fill="#8C835E" />
    </g>
    <g
       id="Symbol_22_0_Layer0_0_FILL">
      <path
         id="path109"
         d=" M 7.7 -1.1 Q 7.7 -3.25 5.8 -4.8 3.6 -6.6 -1 -7.35 -3.3 -6.75 -5.6 -4.35 -7.35 -2.5 -7.7 -1.15 L -7.7 0.5 Q -7.35 2.3 -5.55 4.35 -2.95 7.35 0.4 7.35 1.9 7.35 4.6 4.7 7.7 1.7 7.7 -1.1 M 4.5 -4.65 Q 6.75 -3.3 6.75 -1.05 6.75 -0.35 6.2 0.95 L 5.15 2.75 4.3 3.7 3.1 4.75 Q 1.15 6.4 0.35 6.4 -2.85 6.4 -5.15 3.3 -6.7 1.15 -6.85 -0.2 L -6.9 -0.5 Q -3.75 -6.05 -2.25 -6.05 L -0.5 -6 Q 2.6 -5.75 4.5 -4.65 Z"
         stroke="none"
         fill="#544E33" />
      <path
         id="path111"
         d=" M -6.9 -0.5 L -6.85 -0.2 -4.2 -0.6 -1 -0.8 Q -1.4 -2.05 -1.4 -3.5 -1.4 -5.25 -0.5 -6 L -2.25 -6.05 Q -3.75 -6.05 -6.9 -0.5 Z"
         stroke="none"
         fill="#726A48" />
      <path
         id="path113"
         d=" M 0.35 6.4 Q 1.15 6.4 3.1 4.75 L 4.3 3.7 3.7 3.75 Q 1.6 3.75 0.1 1.5 -0.65 0.4 -1 -0.8 L -4.2 -0.6 -6.85 -0.2 Q -6.7 1.15 -5.15 3.3 -2.85 6.4 0.35 6.4 Z"
         stroke="none"
         fill="#5F583A" />
      <path
         id="path115"
         d=" M 6.75 -1.05 Q 6.75 -3.3 4.5 -4.65 2.6 -5.75 -0.5 -6 -1.4 -5.25 -1.4 -3.5 -1.4 -2.05 -1 -0.8 -0.65 0.4 0.1 1.5 1.6 3.75 3.7 3.75 L 4.3 3.7 5.15 2.75 6.2 0.95 Q 6.75 -0.35 6.75 -1.05 Z"
         stroke="none"
         fill="#8C835E" />
    </g>
    <g
       id="Symbol_24_0_Layer0_0_FILL">
      <path
         id="path118"
         d=" M 5.7 -2.7 L 5.5 -3.1 Q 4.15 -5.6 0.05 -5.6 -6.15 -5.6 -6.15 -0.25 L -5.95 1.3 -4.4 3.05 -2.45 4.5 -0.95 5.25 1.45 5.65 Q 4.15 5.65 5.35 3.05 6.1 1.5 6.1 0 6.1 -1.65 5.7 -2.7 M 0.25 -4.6 Q 3.25 -4.6 4.2 -3.45 4.85 -2.7 5.1 -1.15 L 5.1 -1.05 5.15 -0.5 5.15 -0.35 5.15 -0.2 5.15 -0.05 5.15 0.2 5.15 0.7 4.8 1.95 4.15 3.2 Q 3.15 4.7 1.35 4.7 L -0.45 4.4 -3.25 2.65 Q -5.25 0.85 -5.25 -0.25 -5.25 -1.6 -4.5 -2.75 -3.4 -4.4 -1.2 -4.55 L -0.75 -4.55 0.25 -4.6 Z"
         stroke="none"
         fill="#544E33" />
      <path
         id="path120"
         d=" M -0.75 -4.55 L -1.2 -4.55 Q -3.4 -4.4 -4.5 -2.75 -5.25 -1.6 -5.25 -0.25 -5.25 0.85 -3.25 2.65 L -0.45 4.4 Q 0.8 2.3 1 1.25 L -0.6 0.25 Q -2.85 -1.4 -2.85 -3 L -0.75 -4.55 Z"
         stroke="none"
         fill="#5F583A" />
      <path
         id="path122"
         d=" M 1.35 4.7 Q 3.15 4.7 4.15 3.2 L 4.8 1.95 5.15 0.7 Q 4.4 1.75 2.85 1.75 L 1 1.25 Q 0.8 2.3 -0.45 4.4 L 1.35 4.7 Z"
         stroke="none"
         fill="#726A48" />
      <path
         id="path124"
         d=" M 4.2 -3.45 Q 3.25 -4.6 0.25 -4.6 L -0.75 -4.55 -2.85 -3 Q -2.85 -1.4 -0.6 0.25 L 1 1.25 2.85 1.75 Q 4.4 1.75 5.15 0.7 L 5.15 0.2 5.15 -0.05 5.15 -0.2 5.15 -0.35 5.15 -0.5 5.1 -1.05 5.1 -1.15 Q 4.85 -2.7 4.2 -3.45 Z"
         stroke="none"
         fill="#8C835E" />
    </g>
    <g
       id="Symbol_26_0_Layer0_0_FILL">
      <path
         id="path127"
         d=" M 4.2 -1.6 Q 4.1 -2.4 1.95 -3.25 L 0 -3.9 -2.45 -4.2 Q -3.5 -4.2 -4.35 -3.05 L -5 -1.6 Q -5 0 -3.25 1.9 -1.65 3.6 0.25 3.95 L 2.6 4.35 3.3 4.1 3.95 3.85 4.5 3.35 4.95 2 4.65 0.25 4.2 -1.6 M 1.2 -2.3 L 2 -2.05 Q 2.75 -1.8 3.45 -0.15 4 1.2 4 2 L 3.75 2.65 3.55 2.85 3.1 3.05 2.6 3.3 0.1 2.85 -0.35 2.75 -1.4 2.1 -2.45 1.15 -3.55 -0.25 -3.95 -1.2 -3.95 -1.25 Q -3.95 -3.05 -2.15 -3.05 -1.1 -3.05 1.2 -2.3 Z"
         stroke="none"
         fill="#544E33" />
      <path
         id="path129"
         d=" M 3.1 3.05 L 3.55 2.85 1.7 -0.45 Q 1.55 0.3 1 1 0.15 2.1 -1.1 2.1 L -1.4 2.1 -0.35 2.75 0.1 2.85 2.6 3.3 3.1 3.05 Z"
         stroke="none"
         fill="#645D40" />
      <path
         id="path131"
         d=" M 1.7 -0.45 L 1.75 -1 1.2 -2.3 Q -1.1 -3.05 -2.15 -3.05 -3.95 -3.05 -3.95 -1.25 L -3.95 -1.2 -3.55 -0.25 -2.45 1.15 -1.4 2.1 -1.1 2.1 Q 0.15 2.1 1 1 1.55 0.3 1.7 -0.45 Z"
         stroke="none"
         fill="#8C835E" />
      <path
         id="path133"
         d=" M 2 -2.05 L 1.2 -2.3 1.75 -1 1.7 -0.45 3.55 2.85 3.75 2.65 4 2 Q 4 1.2 3.45 -0.15 2.75 -1.8 2 -2.05 Z"
         stroke="none"
         fill="#726A48" />
    </g>
    <g
       id="Symbol_28_0_Layer0_0_FILL">
      <path
         id="path136"
         d=" M 5.05 -4.45 L 2 -5.3 -2.9 -6.1 Q -5.25 -6.1 -6.4 -3.7 -7.1 -2.2 -7.1 -1 -7.1 0.2 -6.45 1.35 -5.65 2.9 -4.05 3.35 L 0.35 4.9 1.55 5.3 4.35 6.05 Q 5.8 6.05 6.55 2.65 L 7.05 -0.95 6.95 -2.75 6.45 -3.5 5.05 -4.45 M 4.45 -3.65 Q 6.15 -3.05 6.15 -1.05 L 6.1 -0.25 5.65 2.05 Q 5 5.1 4.25 5.1 L 1.85 4.5 0.65 4.05 -2.65 2.8 Q -4.5 2.4 -5.45 1.15 -6.2 0.2 -6.2 -0.95 -6.2 -3 -4.35 -4.5 L -3.45 -5.15 -2 -4.9 4.45 -3.65 Z"
         stroke="none"
         fill="#544E33" />
      <path
         id="path138"
         d=" M 2.6 2 L 2.55 2.25 1.85 4.5 4.25 5.1 Q 5 5.1 5.65 2.05 L 6.1 -0.25 5.4 0.75 Q 4.3 2 2.65 2 L 2.6 2 Z"
         stroke="none"
         fill="#5F583A" />
      <path
         id="path140"
         d=" M 2.55 2.25 L 2.6 2 Q 0.95 1.95 -1.5 0 -4.35 -2.25 -4.35 -4.5 -6.2 -3 -6.2 -0.95 -6.2 0.2 -5.45 1.15 -4.5 2.4 -2.65 2.8 L 0.65 4.05 1.85 4.5 2.55 2.25 Z"
         stroke="none"
         fill="#726A48" />
      <path
         id="path142"
         d=" M 6.15 -1.05 Q 6.15 -3.05 4.45 -3.65 L -2 -4.9 -3.45 -5.15 -4.35 -4.5 Q -4.35 -2.25 -1.5 0 0.95 1.95 2.6 2 L 2.65 2 Q 4.3 2 5.4 0.75 L 6.1 -0.25 6.15 -1.05 Z"
         stroke="none"
         fill="#8C835E" />
    </g>
    <g
       id="Symbol_30_0_Layer0_0_FILL">
      <path
         id="path145"
         d=" M 2.85 -3.8 L 2.05 -4.25 Q 0.7 -5.25 -0.45 -5.45 -2.8 -6.15 -4.5 -4.8 -6.45 -3.2 -6.45 -1.15 -6.45 1.65 -2.4 3 -1.8 3.2 -0.45 3.95 L 0.65 4.5 Q 2.8 5.4 4.8 5.2 L 4.95 5.15 Q 5.85 4.35 6.15 3.25 L 6.2 2.1 6.2 1.85 5.8 0.5 4.4 -0.9 3.75 -2.7 2.85 -3.8 M 3.55 -0.35 L 3.6 -0.3 4.35 0.4 4.4 0.6 5.1 1.4 Q 5.45 1.75 5.45 2.2 L 5.3 3.4 4.85 4.1 4.5 4.1 Q 3.15 4.25 1.1 3.5 L -0.45 2.85 -1.45 2.4 Q -3.4 1.75 -4.5 0.7 -5.4 -0.2 -5.4 -1.15 -5.4 -2.8 -3.6 -3.95 L -3.45 -4.05 Q -2.1 -4.85 -0.45 -4.4 0.75 -4.2 2.1 -3.05 L 2.95 -1.7 3.55 -0.35 Z"
         stroke="none"
         fill="#544E33" />
      <path
         id="path147"
         d=" M 4.5 4.1 L 1 1.5 0.15 1.05 -0.45 0.6 -1.2 0 Q -3.65 -2.05 -3.65 -3.75 L -3.6 -3.95 Q -5.4 -2.8 -5.4 -1.15 -5.4 -0.2 -4.5 0.7 -3.4 1.75 -1.45 2.4 L -0.45 2.85 1.1 3.5 Q 3.15 4.25 4.5 4.1 Z"
         stroke="none"
         fill="#5F583A" />
      <path
         id="path149"
         d=" M 2.95 -1.7 L 2.1 -3.05 Q 0.75 -4.2 -0.45 -4.4 -2.1 -4.85 -3.45 -4.05 L -3.6 -3.95 -3.65 -3.75 Q -3.65 -2.05 -1.2 0 L -0.45 0.6 0.15 1.05 1 1.5 2.4 1.7 Q 3.4 1.6 3.55 -0.35 L 2.95 -1.7 Z"
         stroke="none"
         fill="#8C835E" />
      <path
         id="path151"
         d=" M 3.6 -0.3 L 3.55 -0.35 Q 3.4 1.6 2.4 1.7 L 1 1.5 4.5 4.1 4.85 4.1 5.3 3.4 5.45 2.2 Q 5.45 1.75 5.1 1.4 L 4.4 0.6 4.35 0.4 3.6 -0.3 Z"
         stroke="none"
         fill="#726A48" />
    </g>
    <g
       id="Symbol_32_0_Layer0_0_FILL">
      <path
         id="path154"
         d=" M 4.25 -0.45 Q 3.25 -0.9 2.95 -1.2 2.5 -1.7 1.8 -3.1 1.2 -4.35 0.35 -5.05 -0.7 -6.15 -1.7 -6.45 -3.4 -6.95 -4.9 -5.25 L -5.7 -4.2 -5.7 -3.8 Q -6.3 -2.7 -6.3 -1.05 -6.3 0.5 -5.6 1.45 L -5.6 1.5 -4.3 3.1 Q -1.2 6.55 1.9 6.55 3.15 6.55 4.15 5.8 L 5.25 4.6 Q 6.3 3.15 6.3 2.2 6.3 0.85 5.7 0.3 L 4.25 -0.45 M 0 -3.95 L 0.4 -3.45 1.15 -2.2 2.1 -0.65 Q 3.1 0.55 4.45 1.05 5.35 1.4 5.35 2.2 4.7 4.55 3.25 5.3 L 1.85 5.6 Q -0.6 5.6 -3.4 2.6 L -4.25 1.65 -5.3 0.25 -5.55 -1.05 -4.9 -3.45 -4.65 -4 -4.25 -4.5 Q -2.25 -6.65 0 -3.95 Z"
         stroke="none"
         fill="#544E33" />
      <path
         id="path156"
         d=" M 1.85 5.6 L 3.25 5.3 Q 2.45 4.75 1.7 4 L -0.25 1.75 Q -0.75 2.65 -1.45 2.65 -2.65 2.65 -4.25 1.65 L -3.4 2.6 Q -0.6 5.6 1.85 5.6 Z"
         stroke="none"
         fill="#726A48" />
      <path
         id="path158"
         d=" M 0.4 -3.45 L 0.5 -1.9 Q 0.5 -0.65 0.1 0.75 L -0.25 1.75 1.7 4 Q 2.45 4.75 3.25 5.3 4.7 4.55 5.35 2.2 5.35 1.4 4.45 1.05 3.1 0.55 2.1 -0.65 L 1.15 -2.2 0.4 -3.45 Z"
         stroke="none"
         fill="#5F583A" />
      <path
         id="path160"
         d=" M 0.4 -3.45 L 0 -3.95 Q -2.25 -6.65 -4.25 -4.5 L -4.65 -4 -4.9 -3.45 -5.55 -1.05 -5.3 0.25 -4.25 1.65 Q -2.65 2.65 -1.45 2.65 -0.75 2.65 -0.25 1.75 L 0.1 0.75 Q 0.5 -0.65 0.5 -1.9 L 0.4 -3.45 Z"
         stroke="none"
         fill="#8C835E" />
    </g>
    <g
       id="Symbol_34_0_Layer0_0_FILL">
      <path
         id="path163"
         d=" M 4.1 -2.25 Q 4.1 -4.25 1.85 -4.9 1.4 -4.95 -0.15 -5.8 L -2.9 -6.15 Q -3.9 -5.8 -4.6 -3.7 -5.15 -1.95 -5.15 -0.7 -5.15 0.8 -2.9 3.2 -1.15 5.05 0.9 5.8 L 3.5 6.2 Q 4.7 6.2 5 5.55 L 5.1 4.75 Q 5.1 3.8 4.5 3 L 3.95 1.8 3.85 0.65 4.1 -2.25 M 0.6 -4.4 Q 3.15 -3.1 3.15 -2.25 L 2.9 0.7 3 1.7 3.55 3.3 4.15 4.8 3.85 5.2 2.85 5.25 1.55 5.05 Q -0.25 4.5 -2.1 2.55 -4.25 0.25 -4.25 -0.7 L -3.7 -3.1 Q -3.15 -4.8 -2.7 -5.15 L -2.4 -5.25 Q -1.5 -5.5 0.6 -4.4 Z"
         stroke="none"
         fill="#544E33" />
      <path
         id="path165"
         d=" M 1.55 5.05 L 1.65 4.8 Q 1.65 3.85 0.45 2 L -0.8 0.05 -1.1 -0.5 Q -1.4 -1.65 -1.3 -3.8 -1.4 -4.95 -2.4 -5.25 L -2.7 -5.15 Q -3.15 -4.8 -3.7 -3.1 L -4.25 -0.7 Q -4.25 0.25 -2.1 2.55 -0.25 4.5 1.55 5.05 Z"
         stroke="none"
         fill="#8C835E" />
      <path
         id="path167"
         d=" M 1.65 4.8 L 1.55 5.05 2.85 5.25 3.85 5.2 4.15 4.8 3.55 3.3 3 1.7 0.75 0.95 -0.8 0.05 0.45 2 Q 1.65 3.85 1.65 4.8 Z"
         stroke="none"
         fill="#5F583A" />
      <path
         id="path169"
         d=" M 3.15 -2.25 Q 3.15 -3.1 0.6 -4.4 -1.5 -5.5 -2.4 -5.25 -1.4 -4.95 -1.3 -3.8 -1.4 -1.65 -1.1 -0.5 L -0.8 0.05 0.75 0.95 3 1.7 2.9 0.7 3.15 -2.25 Z"
         stroke="none"
         fill="#726A48" />
    </g>
    <g
       id="Symbol_36_0_Layer0_0_FILL">
      <path
         id="path172"
         d=" M 2.5 -5.5 Q 1.45 -6.15 0 -6 -1.9 -5.8 -3.35 -4.15 -4.85 -2.4 -4.85 -0.2 -4.85 1.4 -3.95 3.1 -2.35 6.1 1.35 6.1 L 2.4 6 Q 3.95 5.6 4.55 4 4.85 3.2 4.85 1.5 4.85 -4.1 2.5 -5.5 M 0.5 -5.1 Q 1.5 -5.1 2.3 -4.5 2.95 -4 3.15 -3.35 L 3.25 -3.1 Q 3.9 -1.3 3.9 1.45 L 3.75 3.4 Q 3.3 4.95 1.85 5.15 L 1.4 5.15 Q -1.55 5.15 -3 2.8 -3.9 1.3 -3.9 -0.2 L -3.85 -0.55 -3.3 -1.95 -2.25 -3.65 -2.25 -3.55 -2.5 -3.1 -2.4 -3.1 -1.35 -4.3 Q -0.5 -5.15 0.5 -5.1 Z"
         stroke="none"
         fill="#544E33" />
      <path
         id="path174"
         d=" M 1.4 5.15 L 1.85 5.15 0.35 2.4 -0.4 2.5 Q -1.9 2.5 -2.85 1.65 -3.75 0.8 -3.85 -0.55 L -3.9 -0.2 Q -3.9 1.3 -3 2.8 -1.55 5.15 1.4 5.15 Z"
         stroke="none"
         fill="#726A48" />
      <path
         id="path176"
         d=" M 3.25 -3.1 L 3.25 -2.85 Q 3.25 -0.85 2.25 0.75 1.4 2.1 0.35 2.4 L 1.85 5.15 Q 3.3 4.95 3.75 3.4 L 3.9 1.45 Q 3.9 -1.3 3.25 -3.1 Z"
         stroke="none"
         fill="#5F583A" />
      <path
         id="path178"
         d=" M 2.3 -4.5 Q 1.5 -5.1 0.5 -5.1 -0.5 -5.15 -1.35 -4.3 L -2.4 -3.1 -2.5 -3.1 -2.25 -3.55 -2.25 -3.65 -3.3 -1.95 -3.85 -0.55 Q -3.75 0.8 -2.85 1.65 -1.9 2.5 -0.4 2.5 L 0.35 2.4 Q 1.4 2.1 2.25 0.75 3.25 -0.85 3.25 -2.85 L 3.25 -3.1 3.15 -3.35 Q 2.95 -4 2.3 -4.5 Z"
         stroke="none"
         fill="#8C835E" />
    </g>
    <g
       id="Symbol_38_0_Layer0_0_FILL">
      <path
         id="path181"
         d=" M 4.4 -0.45 L 3.7 -1.25 0.85 -3.05 Q -1.9 -4.55 -2.95 -4.55 -4.75 -4.55 -6.05 -3.15 -7.05 -2.1 -7.05 -1.55 -7.05 0 -3.45 2.25 -1.05 3.7 1.2 4.3 L 3.9 4.6 Q 5.3 4.6 6.15 4.1 7.05 3.6 7.05 2.7 7.05 2.4 5.55 0.75 L 4.4 -0.45 M 6.05 2.8 L 6 2.95 5 3.3 3.65 3.55 0.75 3.1 -2.7 1.5 Q -5.95 -0.4 -5.95 -1.45 -5.95 -1.95 -5 -2.6 L -4.2 -3.1 -3.45 -3.6 Q -0.35 -2.9 2.5 -0.9 3.3 -0.35 4.1 0.95 L 4.4 1.25 6.05 2.8 Z"
         stroke="none"
         fill="#544E33" />
      <path
         id="path183"
         d=" M -2.65 -1.55 L -4.2 -3.1 -5 -2.6 Q -5.95 -1.95 -5.95 -1.45 -5.95 -0.4 -2.7 1.5 L 0.75 3.1 -0.5 0.1 -2.65 -1.55 Z"
         stroke="none"
         fill="#726A48" />
      <path
         id="path185"
         d=" M 4.4 1.25 L 4.1 0.95 Q 3.3 -0.35 2.5 -0.9 -0.35 -2.9 -3.45 -3.6 L -4.2 -3.1 -2.65 -1.55 -0.5 0.1 -0.35 0.15 3.85 1.25 4.4 1.25 Z"
         stroke="none"
         fill="#8C835E" />
      <path
         id="path187"
         d=" M 6 2.95 L 6.05 2.8 4.4 1.25 3.85 1.25 -0.35 0.15 -0.5 0.1 0.75 3.1 3.65 3.55 5 3.3 6 2.95 Z"
         stroke="none"
         fill="#5F583A" />
    </g>
    <g
       id="Symbol_40_0_Layer0_0_FILL">
      <path
         id="path190"
         d=" M 10.8 8.6 L 11.55 9.25 12.6 8.6 Q 13.55 7.9 14.5 7.9 L 14.9 8.2 15.75 8.5 16.45 8.1 Q 16.7 7.7 18.45 7.7 L 20 7.85 20 -9.8 -20 -9.8 -20 0.95 Q -19.15 1.5 -18.75 3.05 L -17.05 7.45 -16.5 7.2 -16.4 8.6 -15.95 8.65 -13.05 7.25 Q -12.65 7.25 -12.35 7.85 -12.1 8.45 -12.1 9.1 L -11.7 9.15 -9.8 8.4 Q -7.9 7.6 -6.95 7.45 L -6.65 8.05 Q -6.5 8.5 -6.05 8.5 L -4.9 8.1 -3.4 7.7 Q -2.95 7.7 -1.9 8.75 L -0.75 9.75 0.3 8.9 Q 1.25 8.05 3.85 8.05 L 4.8 8.8 Q 5.55 9.5 5.9 9.5 6.3 9.5 7.55 8.7 L 8.7 8.3 10.1 7.95 10.8 8.6 Z"
         stroke="none"
         fill="#000000" />
    </g>
    <g
       id="Symbol_41_0_Layer0_0_FILL">
      <path
         id="path193"
         d=" M 7.9 -6.85 Q 7.45 -7.4 5.35 -7.4 L 2.4 -7.15 2.65 -6.4 Q 2.65 -5.95 2.15 -5.95 L 0.7 -6.35 -0.6 -6.75 -2.75 -7.7 -5.05 -7 -7.1 -6.35 -7.35 -6.4 -7.45 -6.65 -7.15 -7.65 -8.5 -7.55 -10.75 -7.3 -16.4 -6.35 -16.75 -6.4 -16.75 -6.9 -16.35 -7.35 -16.35 -7.4 -18.65 -6.4 -20 -5.95 -20 -2.5 -16.5 -4.15 -16.4 -2.75 -15.95 -2.7 -13.05 -4.1 Q -12.65 -4.1 -12.35 -3.5 L -12.1 -2.25 -11.7 -2.2 -9.8 -2.95 -6.95 -3.9 -6.65 -3.3 Q -6.5 -2.85 -6.05 -2.85 L -4.9 -3.25 -3.4 -3.65 -1.9 -2.6 -0.75 -1.6 0.3 -2.45 Q 1.25 -3.3 3.85 -3.3 L 4.8 -2.55 Q 5.55 -1.85 5.9 -1.85 6.3 -1.85 7.55 -2.65 L 8.7 -3.05 10.1 -3.4 10.8 -2.75 Q 11.15 -2.1 11.55 -2.1 L 12.6 -2.75 Q 13.55 -3.45 14.5 -3.45 L 14.9 -3.15 Q 15.2 -2.85 15.75 -2.85 L 16.45 -3.25 Q 16.7 -3.65 18.45 -3.65 L 20 -3.5 20 -6.8 18.95 -6.45 Q 18.65 -6.45 18.5 -6.75 L 18.4 -7.05 15.9 -7.15 14.05 -7 13.55 -6.85 Q 13.25 -6.85 13 -7.15 L 12.7 -7.45 10.35 -6.9 8.65 -6.35 7.9 -6.85 Z"
         stroke="none"
         fill="#93A613" />
      <path
         id="path195"
         d=" M 11.95 -17.25 Q 11.7 -17.25 11.05 -16.65 10.4 -16.1 9.95 -16.1 9.65 -16.1 9.3 -16.35 L 8.8 -16.6 Q 8.35 -16.6 8 -16.1 7.7 -15.6 7.25 -15.6 L 6.85 -15.75 6.85 -16.25 6.95 -16.6 6.2 -16.6 4.55 -16.1 Q 3.85 -15.85 3.65 -15.6 3.75 -15.5 3.45 -15.5 L 2.25 -15.75 0.6 -16.1 -2.5 -16.75 Q -3.9 -16.1 -4.4 -16.1 -4.85 -16.1 -5 -16.35 L -5.25 -16.6 -6.05 -16.1 Q -6.55 -15.6 -6.85 -15.6 -7.05 -15.6 -7.4 -15.95 -7.8 -16.3 -7.8 -16.6 L -9.65 -15.7 -11.2 -14.85 -11.35 -15 -11.05 -16.05 -10.35 -17 -10.85 -17 -15.7 -15.75 -16.85 -15.75 Q -16.6 -15.85 -16.1 -16.5 L -17.35 -16.5 -20 -15.95 -20 -5.95 -18.65 -6.4 -16.35 -7.4 -16.35 -7.35 -16.75 -6.9 -16.75 -6.4 -16.4 -6.35 -10.75 -7.3 -8.5 -7.55 -7.15 -7.65 -7.45 -6.65 -7.35 -6.4 -7.1 -6.35 -5.05 -7 -2.75 -7.7 -0.6 -6.75 0.7 -6.35 2.15 -5.95 Q 2.65 -5.95 2.65 -6.4 L 2.4 -7.15 5.35 -7.4 Q 7.45 -7.4 7.9 -6.85 L 8.65 -6.35 10.35 -6.9 12.7 -7.45 13 -7.15 Q 13.25 -6.85 13.55 -6.85 L 14.05 -7 15.9 -7.15 18.4 -7.05 18.5 -6.75 Q 18.65 -6.45 18.95 -6.45 L 20 -6.8 20 -16.85 17.5 -17.1 17.5 -17.35 Q 17.15 -16.55 17.15 -15.6 L 17.25 -15.1 15.15 -16.5 14.35 -16.5 14.35 -16 11.95 -17.25 Z"
         stroke="none"
         fill="#B0C50E" />
      <path
         id="path197"
         d=" M 11.05 -16.65 Q 11.7 -17.25 11.95 -17.25 L 14.35 -16 14.35 -16.5 15.15 -16.5 17.25 -15.1 17.15 -15.6 Q 17.15 -16.55 17.5 -17.35 L 17.5 -17.1 20 -16.85 20 -21.15 -20 -21.15 -20 -15.95 -17.35 -16.5 -16.1 -16.5 Q -16.6 -15.85 -16.85 -15.75 L -15.7 -15.75 -10.85 -17 -10.35 -17 -11.05 -16.05 -11.35 -15 -11.2 -14.85 -9.65 -15.7 -7.8 -16.6 Q -7.8 -16.3 -7.4 -15.95 -7.05 -15.6 -6.85 -15.6 -6.55 -15.6 -6.05 -16.1 L -5.25 -16.6 -5 -16.35 Q -4.85 -16.1 -4.4 -16.1 -3.9 -16.1 -2.5 -16.75 L 0.6 -16.1 2.25 -15.75 3.45 -15.5 Q 3.75 -15.5 3.65 -15.6 3.85 -15.85 4.55 -16.1 L 6.2 -16.6 6.95 -16.6 6.85 -16.25 6.85 -15.75 7.25 -15.6 Q 7.7 -15.6 8 -16.1 8.35 -16.6 8.8 -16.6 L 9.3 -16.35 Q 9.65 -16.1 9.95 -16.1 10.4 -16.1 11.05 -16.65 Z"
         stroke="none"
         fill="#C3D43A" />
    </g>
    <g
       id="Mask_Mask_Symbol_42_0_Layer0_0_FILL">
      <path
         id="path200"
         d=" M 20 -20 L -20 -20 -20 20 20 20 20 -20 Z"
         stroke="none"
         fill="#FFFFFF" />
    </g>
    <g
       id="Symbol_43_0_Layer1_0_FILL">
      <path
         id="path203"
         d=" M 8 -29.9 Q 6.3 -28.2 6.15 -26.65 4.9 -27.85 3.2 -28.55 L 2.2 -28.9 0.35 -29.1 Q -0.9 -28.75 -2.4 -27.3 -4.9 -24.9 -4.9 -23.6 L -4.85 -23.25 -6.1 -24.45 -9.8 -27.4 Q -11.8 -27.7 -13.1 -25.25 -14.15 -23.4 -14.15 -21.65 L -14.1 -21.35 -15.95 -22.35 -17.9 -23 -20.35 -23.3 Q -21.4 -23.3 -22.25 -22.15 L -22.9 -20.7 Q -22.9 -19.1 -21.15 -17.2 L -20.35 -16.45 -20.55 -15 -21.25 -13.9 Q -21.95 -12.4 -21.95 -11.2 -21.95 -10 -21.3 -8.85 L -20.5 -7.7 -20.3 -5.25 -22 -3.75 Q -23.75 -1.9 -24.1 -0.55 L -24.2 0.15 -24.1 1.1 Q -23.75 2.9 -21.95 4.95 L -20.7 6.2 -20.7 6.4 -20.6 7.3 Q -24.2 8.25 -24.2 12.3 L -24 13.85 -22.45 15.6 -20.5 17.05 -20 17.35 -19 17.8 -16.6 18.2 Q -14.4 18.2 -13.15 16.45 L -12.75 17.1 Q -11.55 18.8 -9.4 18.8 -7.8 18.8 -7.2 17.1 -7.05 17.75 -5.9 18.5 -3.9 19.8 -0.3 19.8 3.15 19.8 5 16.55 L 5.3 17.25 Q 6.05 18.7 7.6 19.1 L 9.1 19.3 Q 10.25 19.3 12.9 17.25 L 13 17.2 Q 13.05 17.7 13.75 18.4 14.85 19.5 16.8 19.6 L 17.2 19.6 Q 18.6 19.6 19.45 18.6 L 20 17.7 20.1 17.4 21 17.8 23.4 18.2 Q 26.1 18.2 27.3 15.6 28.05 14.05 28.05 12.55 28.05 10.9 27.65 9.85 L 27.45 9.45 Q 26.75 8.15 25.35 7.55 L 28.2 5.3 Q 31.3 2.3 31.3 -0.5 31.3 -2.6 29.45 -4.15 L 29.5 -4.15 Q 30.95 -4.15 31.7 -7.55 32.2 -9.7 32.2 -11.15 L 32.1 -12.95 31.6 -13.7 Q 31.1 -14.25 30.2 -14.65 L 27.15 -15.5 26.55 -15.65 26.6 -15.75 Q 27.05 -16.3 27.05 -17.1 L 26.75 -18.85 26.3 -20.7 Q 26.2 -21.5 24.05 -22.35 L 22.1 -23 19.7 -23.3 19.25 -23.8 16.55 -26.4 Q 15.2 -27.8 14.75 -28.95 L 14.5 -29.25 13.65 -30.1 13.65 -30.25 13.6 -30.3 13.1 -30.6 12.45 -30.9 9.7 -31 Q 8.8 -30.7 8 -29.9 M 15.9 13.35 L 15.9 13.4 15.85 13.4 15.9 13.35 Z"
         stroke="none"
         fill="#544C2E" />
    </g>
    <g
       id="Symbol_43_0_Layer0_0_FILL">
      <path
         id="path206"
         d=" M -24.2 0.15 L -24.1 1.1 -24.1 -0.55 -24.2 0.15 Z"
         stroke="none"
         fill="#464029" />
    </g>
    <g
       id="Symbol_45_0_Layer0_0_FILL">
      <path
         id="path209"
         d=" M 1.95 -7.15 L 0.8 -7.4 -0.5 -7.5 Q -3.1 -7.5 -5.1 -3.85 -6.6 -1.1 -6.6 0 L -6.55 0.4 Q -6.35 1.9 -4.5 4.3 -2 7.5 0.8 7.5 3.35 7.5 5.15 4.75 6.55 2.6 6.6 1.2 L 6.6 1.15 Q 6.6 0.55 5.45 -1.1 4.4 -2.65 4.55 -3.5 4.85 -4.7 3.85 -5.9 L 1.95 -7.15 M 1.45 -6.2 L 0.05 -6.45 -0.6 -4.85 Q -1.1 -2.95 -1.1 -1.15 L -1 -0.2 Q -0.75 1.1 0.15 2.4 1.5 4.4 3.25 4.4 L 4.35 4.25 4.3 4.25 Q 2.65 6.55 0.5 6.55 -1.55 6.55 -3.75 3.65 -5.4 1.45 -5.6 0.3 L -5.65 -0.05 Q -5.65 -0.9 -4.55 -2.7 L -2.85 -5.05 Q -1.55 -6.45 0.05 -6.45 L 1.45 -6.2 Q 3.65 -5.45 3.65 -3.95 3.65 -1.85 3.85 -1.3 L 4.95 0.1 Q 5.6 0.75 5.6 1.35 5.6 2.45 4.35 4.25 L 3.25 4.4 Q 1.5 4.4 0.15 2.4 -0.75 1.1 -1 -0.2 L -1.65 -0.35 -4.35 0.05 -5.6 0.3 Q -5.4 1.45 -3.75 3.65 -1.55 6.55 0.5 6.55 2.65 6.55 4.3 4.25 L 4.35 4.25 Q 5.6 2.45 5.6 1.35 5.6 0.75 4.95 0.1 L 3.85 -1.3 Q 3.65 -1.85 3.65 -3.95 3.65 -5.45 1.45 -6.2 Z"
         stroke="none"
         fill="#544E33" />
      <path
         id="path211"
         d=" M -1.65 -0.35 L -1 -0.2 -1.1 -1.15 Q -1.1 -2.95 -0.6 -4.85 L 0.05 -6.45 Q -1.55 -6.45 -2.85 -5.05 L -4.55 -2.7 Q -5.65 -0.9 -5.65 -0.05 L -5.6 0.3 -4.35 0.05 -1.65 -0.35 Z"
         stroke="none"
         fill="#726A48" />
    </g>
    <g
       id="Symbol_47_0_Layer0_0_FILL">
      <path
         id="path214"
         d=" M 2.15 -1.2 Q 1.05 -2.6 0.05 -3.2 -1.1 -4.35 -2.1 -2.85 L -2.35 -2.45 -2.4 -2.4 Q -3.3 -0.7 -3.3 0.2 -3.3 0.95 -2.5 2.05 -1.3 3.75 0.85 3.75 2.85 3.75 3.25 1.05 3.25 0.25 2.15 -1.2 M 0.8 -1.5 L 1.4 -0.75 Q 2.5 0.65 2.5 1.15 L 2.15 2.05 Q 1.8 2.8 1.2 2.95 L 0.9 2.95 Q -0.6 2.95 -1.7 1.8 -2.5 0.9 -2.5 0.3 L -2.45 0 Q -1.75 -3.45 -0.15 -2.35 L 0.8 -1.5 Z"
         stroke="none"
         fill="#544E33" />
      <path
         id="path216"
         d=" M 0.9 2.95 L 1.2 2.95 -0.15 0.85 -0.8 1.1 Q -1.55 1.1 -2.1 0.5 L -2.45 0 -2.5 0.3 Q -2.5 0.9 -1.7 1.8 -0.6 2.95 0.9 2.95 Z"
         stroke="none"
         fill="#726A48" />
      <path
         id="path218"
         d=" M 0.9 -0.95 L 0.8 -1.5 -0.15 -2.35 Q -1.75 -3.45 -2.45 0 L -2.1 0.5 Q -1.55 1.1 -0.8 1.1 L -0.15 0.85 0.3 0.3 Q 0.9 -0.45 0.9 -0.95 Z"
         stroke="none"
         fill="#8C835E" />
      <path
         id="path220"
         d=" M 0.8 -1.5 L 0.9 -0.95 Q 0.9 -0.45 0.3 0.3 L -0.15 0.85 1.2 2.95 Q 1.8 2.8 2.15 2.05 L 2.5 1.15 Q 2.5 0.65 1.4 -0.75 L 0.8 -1.5 Z"
         stroke="none"
         fill="#5F583A" />
    </g>
    <g
       id="Symbol_49_0_Layer0_0_FILL">
      <path
         id="path223"
         d=" M 2.6 -4.6 L 1.8 -4.65 Q 0.85 -4.65 -0.15 -3.8 L -0.6 -3.45 Q -1.2 -2.15 -3.8 -0.8 -6.2 0.45 -6.55 1.5 L -6.65 1.9 Q -6.65 2.65 -5.3 3.55 -3.3 4.85 0.3 4.85 4.8 4.85 6.6 -0.7 6.6 -2.5 4.5 -3.45 L 3.45 -4.15 2.6 -4.6 M 5.7 -1.35 L 5.85 -0.7 Q 5.85 0.4 4.05 2.15 2.1 4.05 0.35 4.05 -2.25 4.05 -4.2 3.25 -5.9 2.55 -5.9 1.9 L -5.9 1.85 Q -5.75 1.15 -3.3 -0.15 L -1.9 -0.95 Q -0.35 -2 0 -2.85 1.65 -4.6 3.9 -3.15 5.3 -2.25 5.7 -1.35 Z"
         stroke="none"
         fill="#544E33" />
      <path
         id="path225"
         d=" M -1.9 -0.9 L -1.9 -0.95 -3.3 -0.15 Q -5.75 1.15 -5.9 1.85 L -5 2.1 -2.25 1.6 -0.5 0.95 Q -1.9 -0.05 -1.9 -0.9 Z"
         stroke="none"
         fill="#726A48" />
      <path
         id="path227"
         d=" M 5.7 -1.2 L 5.7 -1.35 Q 5.3 -2.25 3.9 -3.15 1.65 -4.6 0 -2.85 -0.35 -2 -1.9 -0.95 L -1.9 -0.9 Q -1.9 -0.05 -0.5 0.95 L -0.1 1.2 Q 1.5 2.2 2.4 2.2 3.85 2.2 4.8 1.1 5.7 0.1 5.7 -1.2 Z"
         stroke="none"
         fill="#8C835E" />
      <path
         id="path229"
         d=" M 5.7 -1.35 L 5.7 -1.2 Q 5.7 0.1 4.8 1.1 3.85 2.2 2.4 2.2 1.5 2.2 -0.1 1.2 L -0.5 0.95 -2.25 1.6 -5 2.1 -5.9 1.85 -5.9 1.9 Q -5.9 2.55 -4.2 3.25 -2.25 4.05 0.35 4.05 2.1 4.05 4.05 2.15 5.85 0.4 5.85 -0.7 L 5.7 -1.35 Z"
         stroke="none"
         fill="#5F583A" />
    </g>
    <g
       id="Symbol_51_0_Layer0_0_FILL">
      <path
         id="path232"
         d=" M 3.05 -4.5 L 2.5 -5.2 Q 1.5 -6.1 -0.3 -5.4 -0.9 -5.15 -1.35 -4.3 L -1.4 -4.1 -1.55 -3.95 -1.45 -4 -1.6 -3.65 -4.4 -1.1 Q -5.6 0.2 -5.6 1.65 -5.6 2.85 -5.05 3.9 -4.3 5.35 -2.75 5.75 L -1.25 5.95 Q -0.1 5.95 2.55 3.9 5.65 1.45 5.65 -1 5.65 -1.8 4.9 -2.85 L 3.05 -4.5 M 4.4 -2.3 Q 4.8 -1.7 4.8 -0.9 4.8 0.25 3 2.5 0.9 5.1 -1.25 5.1 L -1.8 5.1 Q -3.6 4.9 -4.4 3.5 L -4.85 1.65 Q -4.85 0.55 -3.35 -0.9 L -3.2 -1.05 -0.5 -3.8 Q 0.35 -5.25 1.35 -4.8 L 2.95 -3.6 3.85 -2.9 4.4 -2.3 Z"
         stroke="none"
         fill="#544E33" />
      <path
         id="path234"
         d=" M 0.95 1.1 L 0.6 1.1 Q -0.55 1.1 -1.8 0.5 -3.1 -0.15 -3.2 -1.05 L -3.35 -0.9 Q -4.85 0.55 -4.85 1.65 L -4.4 3.5 Q -3.6 4.9 -1.8 5.1 L -0.85 4.1 Q 0.65 2.45 0.95 1.1 Z"
         stroke="none"
         fill="#5F583A" />
      <path
         id="path236"
         d=" M 4 -2.1 L 3.85 -2.9 2.95 -3.6 1.35 -4.8 Q 0.35 -5.25 -0.5 -3.8 L -3.2 -1.05 Q -3.1 -0.15 -1.8 0.5 -0.55 1.1 0.6 1.1 L 0.95 1.1 2.7 0.1 Q 4 -1 4 -2.1 Z"
         stroke="none"
         fill="#8C835E" />
      <path
         id="path238"
         d=" M 4.8 -0.9 Q 4.8 -1.7 4.4 -2.3 L 3.85 -2.9 4 -2.1 Q 4 -1 2.7 0.1 L 0.95 1.1 Q 0.65 2.45 -0.85 4.1 L -1.8 5.1 -1.25 5.1 Q 0.9 5.1 3 2.5 4.8 0.25 4.8 -0.9 Z"
         stroke="none"
         fill="#726A48" />
    </g>
    <g
       id="Symbol_53_0_Layer0_0_FILL">
      <path
         id="path241"
         d=" M 2.25 -1.25 L 1.05 -2.3 Q 0.35 -2.9 -0.3 -3.1 -1.35 -3 -2.5 -1.5 -3.55 -0.15 -3.55 0.6 -3.55 1.15 -2.75 1.95 -1.65 3.05 0.3 3.15 L 0.7 3.15 Q 2.1 3.15 2.95 2.15 3.6 1.4 3.6 0.7 3.6 -0.1 2.25 -1.25 M 1.15 -1.25 L 1.35 -1.1 Q 2.8 0.15 2.8 0.7 L 2.45 1.55 Q 1.85 2.35 0.7 2.35 L 0.25 2.35 Q -0.9 2.25 -1.85 1.65 -2.8 1.05 -2.8 0.6 L -2.1 -0.7 -1.85 -1.05 Q -0.9 -2.3 -0.45 -2.3 L 1.15 -1.25 Z"
         stroke="none"
         fill="#544E33" />
      <path
         id="path243"
         d=" M 0.15 0.15 Q 0.85 -0.05 1.15 -1.25 L -0.45 -2.3 Q -0.9 -2.3 -1.85 -1.05 L -2.1 -0.7 Q -1.8 0.2 -0.2 0.2 L 0.15 0.15 Z"
         stroke="none"
         fill="#8C835E" />
      <path
         id="path245"
         d=" M 0.25 2.35 L 0.15 0.15 -0.2 0.2 Q -1.8 0.2 -2.1 -0.7 L -2.8 0.6 Q -2.8 1.05 -1.85 1.65 -0.9 2.25 0.25 2.35 Z"
         stroke="none"
         fill="#5F583A" />
      <path
         id="path247"
         d=" M 1.35 -1.1 L 1.15 -1.25 Q 0.85 -0.05 0.15 0.15 L 0.25 2.35 0.7 2.35 Q 1.85 2.35 2.45 1.55 L 2.8 0.7 Q 2.8 0.15 1.35 -1.1 Z"
         stroke="none"
         fill="#726A48" />
    </g>
    <g
       id="Symbol_55_0_Layer0_0_FILL">
      <path
         id="path250"
         d=" M 10.8 8.6 L 11.55 9.25 12.6 8.6 Q 13.55 7.9 14.5 7.9 L 14.9 8.2 15.75 8.5 16.45 8.1 Q 16.7 7.7 18.45 7.7 L 20 7.85 20 -9.8 -20 -9.8 -20 8.85 -16.5 7.2 -16.4 8.6 -15.95 8.65 -13.05 7.25 Q -12.65 7.25 -12.35 7.85 -12.1 8.45 -12.1 9.1 L -11.7 9.15 -9.8 8.4 Q -7.9 7.6 -6.95 7.45 L -6.65 8.05 Q -6.5 8.5 -6.05 8.5 L -4.9 8.1 -3.4 7.7 Q -2.95 7.7 -1.9 8.75 L -0.75 9.75 0.3 8.9 Q 1.25 8.05 3.85 8.05 L 4.8 8.8 Q 5.55 9.5 5.9 9.5 6.3 9.5 7.55 8.7 L 8.7 8.3 10.1 7.95 10.8 8.6 Z"
         stroke="none"
         fill="#000000" />
    </g>
    <g
       id="Mask_Mask_Symbol_56_0_Layer0_0_FILL">
      <path
         id="path253"
         d=" M 18 -16.6 Q 17.35 -17.75 15.55 -19.4 L 14.85 -20 -20 -20 -20 20 20 20 20 -7.8 18.8 -11.8 20 -11.2 Q 18.35 -15.75 15.6 -17 L 15.8 -17 18 -16.6 Z"
         stroke="none"
         fill="#FFFFFF" />
    </g>
    <g
       id="Symbol_57_0_Layer1_0_FILL">
      <path
         id="path256"
         d=" M 6.15 -26.65 Q 4.9 -27.85 3.2 -28.55 L 2.2 -28.9 0.35 -29.1 Q -0.9 -28.75 -2.4 -27.3 -4.9 -24.9 -4.9 -23.6 L -4.85 -23.25 -6.1 -24.45 -9.8 -27.4 Q -11.8 -27.7 -13.1 -25.25 -14.15 -23.4 -14.15 -21.65 L -14.1 -21.35 -15.95 -22.35 -17.9 -23 -20.35 -23.3 Q -21.4 -23.3 -22.25 -22.15 L -22.9 -20.7 Q -22.9 -19.1 -21.15 -17.2 L -20 -16.15 -20 -15.55 -21.25 -13.9 Q -21.95 -12.4 -21.95 -11.2 -21.95 -10 -21.3 -8.85 L -20 -7.35 -20 -5.5 -22 -3.75 Q -23.75 -1.9 -24.1 -0.55 L -24.2 0.15 -24.1 1.1 Q -23.75 2.9 -21.95 4.95 L -20 6.7 -20 7.15 Q -24.2 7.9 -24.2 12.3 L -24 13.85 -22.45 15.6 -20.5 17.05 -20 17.35 -19 17.8 -16.6 18.2 Q -14 18.2 -12.8 15.8 L -12.3 16.85 Q -11.15 18.45 -8.25 18.45 -5.25 18.45 -4.05 16.15 L -3.6 15.05 -3.3 15.25 Q -2.25 16 -0.7 16 1.65 16 2.85 13.95 L 3.6 11.85 4.95 12.9 Q 6.05 13.5 7.55 13.5 10.1 13.5 11.75 10.4 12.9 8.2 12.9 7.1 L 12.7 5.95 Q 13.55 6.4 14.5 6.4 16.95 6.4 18.5 3.85 L 19.65 1 19.9 -1.9 19.8 -4.65 Q 19.6 -6.45 18.75 -7.25 17.95 -7.95 17.25 -8.3 18.4 -9.1 19.2 -11.4 20 -13.7 20 -15.05 L 20 -15.35 Q 19.95 -17 19.2 -18 L 18.9 -18.3 18.15 -18.65 19.85 -19.9 19.95 -20 Q 20.3 -20.55 20.3 -21.45 20.3 -22.7 19.25 -23.8 L 16.55 -26.4 Q 15.2 -27.8 14.75 -28.95 L 14.5 -29.25 13.65 -30.1 13.65 -30.25 13.6 -30.3 13.1 -30.6 12.45 -30.9 9.7 -31 Q 8.8 -30.7 8 -29.9 6.3 -28.2 6.15 -26.65 M 7.45 -20 L 7.4 -20 7.5 -20.15 7.45 -20 Z"
         stroke="none"
         fill="#544C2E" />
    </g>
    <g
       id="Symbol_57_0_Layer0_0_FILL">
      <path
         id="path259"
         d=" M -24.2 0.15 L -24.1 1.1 -24.1 -0.55 -24.2 0.15 Z"
         stroke="none"
         fill="#464029" />
    </g>
    <g
       id="Symbol_59_0_Layer0_0_FILL">
      <path
         id="path262"
         d=" M 5.9 -1.45 L 5.55 -3.1 4.55 -4.75 4.2 -5.1 Q 3.4 -5.85 1.95 -6.25 -0.25 -6.8 -1.65 -5.5 L -3.55 -3.05 -4.1 -2.25 Q -5.95 0.45 -5.95 1.2 -5.95 2.5 -5.25 3.95 -4.65 5.2 -3.65 5.85 L -3.5 5.9 Q -2.6 6.4 -1.45 6.4 1.45 6.4 5.9 -1.45 M 5 -2.55 L 5.15 -1.45 Q 5.15 -0.75 4.2 0.4 L 2.65 2.15 1.4 4.05 Q 0.15 5.6 -1.4 5.6 L -2.75 5.3 -2.95 5.2 Q -3.85 4.7 -4.5 3.55 -5.25 2.15 -5.25 1.25 -5.25 0.5 -3.7 -1.8 L -3.65 -1.85 -3.2 -2.5 -1.55 -4.5 Q 1.75 -6.8 3.75 -4.6 4.65 -3.6 5 -2.55 Z"
         stroke="none"
         fill="#544E33" />
      <path
         id="path264"
         d=" M -3.3 -1.9 L -3.2 -2.5 -3.65 -1.85 -3.7 -1.8 Q -5.25 0.5 -5.25 1.25 -5.25 2.15 -4.5 3.55 -3.85 4.7 -2.95 5.2 L -2.75 5.3 -2.1 4.6 Q -1.1 3.35 -1.1 2.45 L -1.2 2.05 -2.1 0.5 -2.55 -0.15 Q -3.3 -1 -3.3 -1.9 Z"
         stroke="none"
         fill="#726A48" />
      <path
         id="path266"
         d=" M 5 -2.55 Q 4.65 -3.6 3.75 -4.6 1.75 -6.8 -1.55 -4.5 L -3.2 -2.5 -3.3 -1.9 Q -3.3 -1 -2.55 -0.15 L -2.1 0.3 Q -0.9 1.4 0.45 1.4 2.15 1.4 3.6 0 4.85 -1.2 5 -2.55 Z"
         stroke="none"
         fill="#8C835E" />
      <path
         id="path268"
         d=" M 5.15 -1.45 L 5 -2.55 Q 4.85 -1.2 3.6 0 2.15 1.4 0.45 1.4 -0.9 1.4 -2.1 0.3 L -2.55 -0.15 -2.1 0.5 -1.2 2.05 -1.1 2.45 Q -1.1 3.35 -2.1 4.6 L -2.75 5.3 -1.4 5.6 Q 0.15 5.6 1.4 4.05 L 2.65 2.15 4.2 0.4 Q 5.15 -0.75 5.15 -1.45 Z"
         stroke="none"
         fill="#645D40" />
    </g>
    <g
       id="Symbol_61_0_Layer0_0_FILL">
      <path
         id="path271"
         d=" M 3.65 -3.45 L 3.25 -3.55 Q 2.45 -3.75 1.4 -3.1 -0.25 -2.2 -0.85 -2.2 L -2 -2.4 -2.7 -2.6 Q -3 -2.5 -3.25 -2.35 L -3.7 -2.15 -4.4 -1.1 -4.75 0.1 Q -4.75 1.2 -4.15 2.05 -3 3.65 -0.1 3.65 2.9 3.65 4.1 1.35 4.75 0.1 4.75 -1.3 4.75 -2.6 3.65 -3.45 M 1.7 -2.35 Q 4 -2.95 4 -1.25 L 3.65 0.1 3.45 0.9 Q 2.45 2.95 -0.05 2.95 -2.4 2.95 -3.5 1.75 -4.15 1 -4.15 0.2 L -4.1 0.15 Q -3.55 -1.85 -3.1 -1.85 L -2.05 -1.6 -1.8 -1.5 -1.4 -1.5 -0.8 -1.4 1.7 -2.35 Z"
         stroke="none"
         fill="#544E33" />
      <path
         id="path273"
         d=" M -0.8 -1.4 L -1.4 -1.5 -1.8 -1.5 -2.05 -1.6 -3.1 -1.85 Q -3.55 -1.85 -4.1 0.15 L -3.7 0.7 Q -3.2 1.1 -2.55 1.1 L -1.5 0.85 Q -1.1 0.45 -1.2 -0.4 L -1.2 -0.55 Q -1.2 -1.05 -0.8 -1.4 Z"
         stroke="none"
         fill="#726A48" />
      <path
         id="path275"
         d=" M 3.45 0.9 L 3.65 0.1 3.2 0.7 Q 2.1 2 1.05 2 0.4 2 -0.4 1.1 -1.1 0.3 -1.2 -0.4 -1.1 0.45 -1.5 0.85 L -2.55 1.1 Q -3.2 1.1 -3.7 0.7 L -4.1 0.15 -4.15 0.2 Q -4.15 1 -3.5 1.75 -2.4 2.95 -0.05 2.95 2.45 2.95 3.45 0.9 Z"
         stroke="none"
         fill="#645D40" />
      <path
         id="path277"
         d=" M 4 -1.25 Q 4 -2.95 1.7 -2.35 L -0.8 -1.4 Q -1.2 -1.05 -1.2 -0.55 L -1.2 -0.4 Q -1.1 0.3 -0.4 1.1 0.4 2 1.05 2 2.1 2 3.2 0.7 L 3.65 0.1 4 -1.25 Z"
         stroke="none"
         fill="#8C835E" />
    </g>
    <g
       id="Symbol_63_0_Layer0_0_FILL">
      <path
         id="path280"
         d=" M 4.9 -2.35 L 3.75 -3.55 2.25 -5 Q 1.4 -5.5 0.15 -5.55 -1.25 -5.6 -1.85 -5.05 -3.65 -3.45 -4.45 -2.25 -5.35 -0.9 -5.35 0.5 L -4.5 3.1 Q -3.75 4.4 -2.55 5 -1.45 5.6 0.05 5.6 2.6 5.6 4.25 2.5 5.4 0.3 5.4 -0.8 L 5.1 -2.1 4.9 -2.35 M 4.65 -1 L 4.65 -0.75 3.65 2 Q 2.2 4.8 0.05 4.8 L -2.1 4.4 Q -3.15 3.9 -3.8 2.8 -4.55 1.55 -4.55 0.4 -4.55 -0.8 -3.8 -1.8 L -2.85 -2.8 -1.55 -4.3 Q 0.85 -5.65 2.95 -3.65 4.45 -2.15 4.65 -1 Z"
         stroke="none"
         fill="#544E33" />
      <path
         id="path282"
         d=" M -2.85 -2.8 L -3.8 -1.8 Q -4.55 -0.8 -4.55 0.4 -4.55 1.55 -3.8 2.8 -3.15 3.9 -2.1 4.4 -0.7 2.45 -0.7 1.6 L -0.7 1.35 -1.8 0.3 Q -2.9 -1.1 -2.9 -2.5 L -2.85 -2.8 Z"
         stroke="none"
         fill="#645D40" />
      <path
         id="path284"
         d=" M 4.65 -1 Q 4.45 -2.15 2.95 -3.65 0.85 -5.65 -1.55 -4.3 L -2.85 -2.8 -2.9 -2.5 Q -2.9 -1.1 -1.8 0.3 L -0.7 1.35 0.65 1.8 Q 2.8 1.8 3.95 0.35 4.4 -0.25 4.65 -1 Z"
         stroke="none"
         fill="#8C835E" />
      <path
         id="path286"
         d=" M 4.65 -0.75 L 4.65 -1 Q 4.4 -0.25 3.95 0.35 2.8 1.8 0.65 1.8 L -0.7 1.35 -0.7 1.6 Q -0.7 2.45 -2.1 4.4 L 0.05 4.8 Q 2.2 4.8 3.65 2 L 4.65 -0.75 Z"
         stroke="none"
         fill="#726A48" />
    </g>
    <g
       id="Symbol_65_0_Layer0_0_FILL">
      <path
         id="path289"
         d=" M 4 -0.75 L 2.75 -3.6 Q 0.75 -7.1 -1.65 -4.75 L -1.85 -4.75 -1.65 -4.5 -3 -2.4 Q -4.35 -0.25 -4.35 1.35 -4.35 2.85 -3.45 4.1 L -2.6 4.95 Q -1.55 5.7 0 5.7 2.35 5.7 3.55 3.65 4.3 2.35 4.3 1.35 L 4 -0.75 M 3.55 1.25 L 3.55 1.4 2.95 3.15 Q 2 4.9 0.1 4.9 L -1.85 4.5 Q -2.7 4.05 -3.15 3.25 -3.65 2.35 -3.65 1.35 -3.65 0.05 -2.4 -2.3 L -0.8 -4.35 Q -0.2 -4.85 0.35 -4.85 2.25 -4.8 3.55 1.25 Z"
         stroke="none"
         fill="#544E33" />
      <path
         id="path291"
         d=" M -0.8 -4.35 L -2.4 -2.3 Q -3.65 0.05 -3.65 1.35 -3.65 2.35 -3.15 3.25 -2.7 4.05 -1.85 4.5 L -1.4 3.95 Q -0.6 2.9 -0.6 2 L -0.8 1 -0.85 0.7 -1.1 0.2 Q -1.5 -0.7 -1.5 -1.65 -1.5 -2.9 -1.05 -3.95 L -0.8 -4.35 Z"
         stroke="none"
         fill="#645D40" />
      <path
         id="path293"
         d=" M 1.95 2.7 Q 2.9 2.7 3.5 1.3 L 3.55 1.25 Q 2.25 -4.8 0.35 -4.85 -0.2 -4.85 -0.8 -4.35 L -1.05 -3.95 Q -1.5 -2.9 -1.5 -1.65 -1.5 -0.7 -1.1 0.2 L -0.85 0.7 -0.4 1.4 Q 0.65 2.7 1.95 2.7 Z"
         stroke="none"
         fill="#8C835E" />
      <path
         id="path295"
         d=" M 3.55 1.4 L 3.55 1.25 3.5 1.3 Q 2.9 2.7 1.95 2.7 0.65 2.7 -0.4 1.4 L -0.85 0.7 -0.8 1 -0.6 2 Q -0.6 2.9 -1.4 3.95 L -1.85 4.5 0.1 4.9 Q 2 4.9 2.95 3.15 L 3.55 1.4 Z"
         stroke="none"
         fill="#726A48" />
    </g>
    <g
       id="Symbol_67_0_Layer0_0_FILL">
      <path
         id="path298"
         d=" M 8.25 -7.35 L 7.6 -7.5 Q 6.25 -7.35 5.05 -6.15 L 4.6 -5.7 4 -4.8 3.5 -4.3 3.45 -4.2 3.2 -4.25 3.35 -4.25 3.4 -4.2 Q 0.15 -0.8 0.15 1 0.15 2.1 1.25 3.65 L 1.35 3.75 1.35 3.9 1.8 4.65 Q 3.65 7.6 6.05 7.6 8.5 7.6 10.05 5.05 10.8 3.75 11.2 2.2 L 11.45 -0.7 11.35 -3.45 Q 11.15 -5.25 10.3 -6.05 L 8.25 -7.35 M 5 -4.85 L 5 -4.95 Q 6.65 -6.7 7.4 -6.7 8.25 -6.7 9.05 -5.95 L 9.5 -5.6 10.2 -4.7 Q 10.7 -3.95 10.7 -0.65 L 10.7 0 Q 10.6 2.1 10.1 3.55 9 6.7 6.2 6.8 L 6 6.8 4.65 6.45 Q 3.45 5.85 2.35 4.1 L 1.3 2.15 1.1 1.05 Q 1.1 0.4 1.35 -0.15 L 1.35 -0.25 1.65 -0.8 Q 2.2 -1.7 3.1 -2.8 L 3.25 -2.95 3.3 -3 3.9 -3.7 5 -4.85 Z"
         stroke="none"
         fill="#544E33" />
      <path
         id="path300"
         d=" M 9 -1.5 L 8.2 -1.45 Q 7.05 -1.3 6.1 -0.6 L 5.1 0.4 Q 3.9 1.95 3.9 3.5 3.9 4.55 4.2 5.5 L 4.65 6.45 6 6.8 6.2 6.8 Q 9 6.7 10.1 3.55 10.6 2.1 10.7 0 10.1 -1.5 9 -1.5 Z"
         stroke="none"
         fill="#8C835E" />
      <path
         id="path302"
         d=" M 1.65 -0.8 L 1.35 -0.25 1.35 -0.15 Q 1.1 0.4 1.1 1.05 L 1.3 2.15 2.35 4.1 Q 3.45 5.85 4.65 6.45 L 4.2 5.5 Q 3.9 4.55 3.9 3.5 3.9 1.95 5.1 0.4 L 6.1 -0.6 5.45 -0.5 Q 4.65 -0.5 4.2 -2.25 L 3.9 -3.7 3.3 -3 3.25 -2.95 3.1 -2.8 Q 2.2 -1.7 1.65 -0.8 Z"
         stroke="none"
         fill="#645D40" />
      <path
         id="path304"
         d=" M 5 -4.95 L 5 -4.85 3.9 -3.7 4.2 -2.25 Q 4.65 -0.5 5.45 -0.5 L 6.1 -0.6 Q 7.05 -1.3 8.2 -1.45 L 9 -1.5 Q 10.1 -1.5 10.7 0 L 10.7 -0.65 Q 10.7 -3.95 10.2 -4.7 L 9.5 -5.6 9.05 -5.95 Q 8.25 -6.7 7.4 -6.7 6.65 -6.7 5 -4.95 Z"
         stroke="none"
         fill="#726A48" />
    </g>
    <g
       id="Symbol_69_0_Layer0_0_FILL">
      <path
         id="path307"
         d=" M 3.1 -4.4 L 1.6 -5.1 1.3 -5.1 Q -0.3 -4.95 -1.1 -4.25 L -1.7 -3.45 Q -2.3 -2.55 -4.65 -0.3 -6.1 1.1 -6.1 2.5 L -5.65 4.1 -4.75 5 -2.6 5.5 Q -0.65 5.5 2 3.95 3.4 3.2 4.5 2.3 5.2 1.75 5.7 0.4 L 6.15 -1.5 Q 6.15 -2.55 5.7 -3.05 5.1 -3.75 3.1 -4.4 M 2.6 -4 Q 5.4 -3 5.4 -1.55 L 4.95 0.15 4.6 1 4 1.75 1.45 3.4 Q -0.9 4.7 -2.6 4.7 L -3.65 4.6 Q -4.45 4.4 -4.9 3.85 -5.4 3.25 -5.4 2.6 -5.4 1.25 -4.1 -0.05 L -2.45 -1.7 -1.45 -2.75 Q -0.3 -5.1 2.6 -4 Z"
         stroke="none"
         fill="#544E33" />
      <path
         id="path309"
         d=" M -2.45 -1.7 L -4.1 -0.05 Q -5.4 1.25 -5.4 2.6 -5.4 3.25 -4.9 3.85 -4.45 4.4 -3.65 4.6 L -2.7 3.9 Q -1.4 2.8 -1.4 1.8 L -1.6 0.85 -2.1 0.4 Q -2.8 -0.4 -2.8 -1.05 L -2.45 -1.7 Z"
         stroke="none"
         fill="#726A48" />
      <path
         id="path311"
         d=" M 1.45 3.4 L 4 1.75 4.6 1 4.4 1.2 Q 3.25 2.6 1.55 2.6 0.8 2.6 -0.9 1.4 L -1.6 0.85 -1.4 1.8 Q -1.4 2.8 -2.7 3.9 L -3.65 4.6 -2.6 4.7 Q -0.9 4.7 1.45 3.4 Z"
         stroke="none"
         fill="#645D40" />
      <path
         id="path313"
         d=" M 5.4 -1.55 Q 5.4 -3 2.6 -4 -0.3 -5.1 -1.45 -2.75 L -2.45 -1.7 -2.8 -1.05 Q -2.8 -0.4 -2.1 0.4 L -1.6 0.85 -0.9 1.4 Q 0.8 2.6 1.55 2.6 3.25 2.6 4.4 1.2 L 4.6 1 4.95 0.15 5.4 -1.55 Z"
         stroke="none"
         fill="#8C835E" />
    </g>
    <g
       id="Symbol_71_0_Layer0_0_FILL">
      <path
         id="path316"
         d=" M 4.4 -1.85 Q 4.4 -3.65 3.6 -4.7 L 3.3 -5 Q 2.7 -5.5 1.9 -5.35 L -0.1 -5.15 -1.5 -4.7 -3.25 -3.4 Q -4.35 -2.5 -4.35 -1.7 L -4.3 -1.6 -4.35 -1.1 Q -4.25 0.6 -3.6 2.2 -2.5 5 -0.3 5.35 L 0.35 5.4 Q 2.4 5.4 3.6 1.9 4.4 -0.45 4.4 -1.85 M 3.3 -3.55 L 3.65 -1.85 Q 3.55 -0.2 3.05 1.4 2.1 4.6 0.3 4.6 L -0.15 4.6 Q -1.95 4.3 -2.95 1.9 L -3.5 0.05 -3.5 -0.05 Q -3.55 -1.25 -3.1 -2.25 L -3 -2.5 Q -2.35 -3.85 -0.95 -4.4 L -0.4 -4.55 0.7 -4.7 2.7 -4.4 3.2 -3.75 3.3 -3.55 Z"
         stroke="none"
         fill="#544E33" />
      <path
         id="path318"
         d=" M -3.1 -2.25 Q -3.55 -1.25 -3.5 -0.05 L -3.5 0.05 -2.95 1.9 Q -1.95 4.3 -0.15 4.6 L -0.1 4.2 0.1 2.7 -0.05 0.95 -1.8 -0.2 Q -3.1 -1.45 -3.1 -2.25 Z"
         stroke="none"
         fill="#645D40" />
      <path
         id="path320"
         d=" M 3.1 -1.2 L 3.3 -3.55 3.2 -3.75 2.7 -4.4 0.7 -4.7 -0.4 -4.55 -0.95 -4.4 Q -2.35 -3.85 -3 -2.5 L -3.1 -2.25 Q -3.1 -1.45 -1.8 -0.2 L -0.05 0.95 0.25 1 Q 2.5 1 3.1 -1.2 Z"
         stroke="none"
         fill="#8C835E" />
      <path
         id="path322"
         d=" M 3.65 -1.85 L 3.3 -3.55 3.1 -1.2 Q 2.5 1 0.25 1 L -0.05 0.95 0.1 2.7 -0.1 4.2 -0.15 4.6 0.3 4.6 Q 2.1 4.6 3.05 1.4 3.55 -0.2 3.65 -1.85 Z"
         stroke="none"
         fill="#726A48" />
    </g>
    <g
       id="Symbol_72_0_Layer1_0_FILL">
      <path
         id="path325"
         d=" M 20 20 L 20 -20 -20 -20 -20 20 20 20 Z"
         stroke="none"
         fill="#544C2E" />
    </g>
    <g
       id="Symbol_72_0_Layer0_0_FILL">
      <path
         id="path328"
         d=" M -24.2 0.15 L -24.1 1.1 -24.1 -0.55 -24.2 0.15 Z"
         stroke="none"
         fill="#464029" />
    </g>
    <g
       id="Symbol_73_0_Layer1_0_FILL">
      <path
         id="path331"
         d=" M -21 -274.3 Q -27.25 -271.5 -33.5 -267.2 L -33.5 268.55 Q -27.3 272.6 -21 275.15 L -21 -274.3 Z"
         stroke="none"
         fill="#B19873" />
      <path
         id="path333"
         d=" M 0.5 -279.25 L 0 -279.25 -0.5 -279.25 Q -10.75 -278.85 -21 -274.3 L -21 275.15 -17.5 276.4 Q -9.15 279.15 -0.5 279.25 L 0.5 279.25 1 279.25 1 -279.2 0.5 -279.25 Z"
         stroke="none"
         fill="#8C734F" />
      <path
         id="path335"
         d=" M 33.5 -267.2 Q 17.25 -278.45 1 -279.2 L 1 279.25 Q 9.4 279.05 17.5 276.4 25.6 273.7 33.5 268.55 L 33.5 -267.2 Z"
         stroke="none"
         fill="#7B6749" />
    </g>
    <g
       id="Symbol_73_0_Layer0_0_FILL">
      <path
         id="path338"
         d=" M -18.55 -272.7 L -18.75 -274.15 -18.8 -269.85 -18.95 -268.7 -19.45 -263.7 -19.15 -257.65 -19.6 -247.1 Q -20.3 -231.5 -20.3 -220.95 -20.3 -219.5 -20.1 -219.4 L -19.95 -219.65 -18.4 -234.7 -18.2 -236.35 -17.55 -219.05 Q -17.55 -178.95 -22.55 -135.35 L -24.95 -113.85 -26.85 -104.55 -27.05 -103.2 -29.45 -96.65 -28.25 -96.9 -28.05 -97.3 Q -29.8 -86.05 -29.8 -79.65 -29.8 -74.05 -28.7 -67.3 L -28.6 -59.55 Q -28.3 -54.95 -27.15 -52.7 L -26.7 -53.2 -27.05 -59.2 -21.75 -38.3 Q -13.75 -5.1 -13.75 34.2 -13.75 51 -14.75 64.6 L -16.55 87.6 -16.7 87.6 Q -19.6 100.35 -25.45 133 -31.2 165.25 -31.2 168.25 -31.2 169.7 -30.95 169.6 L -30.75 169.2 -30.2 168.35 -30 167.9 -22.5 129.3 Q -18.75 110.4 -17.05 100.2 L -16.95 100.2 Q -12.75 76.65 -11.9 64.65 -11.5 58.5 -11.5 34.2 -11.5 -5 -19.75 -41.65 L -25.4 -64.65 -27.15 -72.6 -27.15 -72.65 -26.7 -73.15 -23.1 -108.35 Q -20.5 -114.85 -18.25 -122 -14.05 -135.3 -12.35 -147.25 L -20.3 -123.1 -21.85 -118.35 Q -21.4 -121.85 -21.45 -123.1 L -21.55 -123.05 Q -18.05 -156.6 -18.05 -160.55 L -17.25 -177.2 -16.5 -193.9 -17.85 -240.25 Q -16.95 -250.2 -16.95 -252.45 -16.95 -254.6 -17.5 -261.65 L -18.05 -268.4 -18.05 -268.7 Q -17.65 -272.45 -17.8 -274.15 L -18.5 -274.15 -18.55 -272.7 M 32.05 -125 L 31.9 -127.15 31.2 -127.15 Q 28.4 -114.35 24.55 -94.15 18.5 -62.3 18.5 -54.25 18.5 -39.9 22.85 -10 27.15 19.95 27.15 34.55 L 26.2 42.2 Q 25.25 48.7 25.25 49.85 L 25.3 52.5 25.75 54.35 26.25 54.25 24.05 71.3 Q 20.6 97.6 17.8 115.4 L 17.8 182.15 16.95 185.25 16.95 238.45 16.3 240.25 Q 16 241.3 16 242.8 16 248.85 17.25 262.35 18.5 275.85 18.5 281.2 L 19.45 280.8 19.55 272.15 Q 19 250.05 19.2 238.9 L 19.2 186.4 20.05 183.45 20.05 115.9 26.3 76.55 Q 31.45 41.9 31.45 31.45 31.45 29.9 31 28.7 L 30 26.7 29.8 26.7 28.8 34.5 29.05 21.1 Q 29.05 13.3 25.95 -4.15 22.8 -21.6 22.8 -23.75 L 22.05 -38.85 21.25 -54 Q 21.25 -67.4 26.65 -96.5 L 32.05 -125 M 31.6 -154.15 Q 31 -159.45 30 -162.45 L 29.05 -162.45 Q 29.4 -158.15 29 -150.3 L 28.5 -141.65 Q 28.5 -132.4 25.9 -119.65 24.4 -112.25 20.25 -96.2 11.95 -64.5 11.95 -49.75 11.95 -30.2 13.3 -21.3 17.3 5.65 18.5 16.15 L 19.45 15.9 19.45 9.1 Q 18.3 -4.35 15.3 -22.4 13.3 -34.55 13.3 -49.6 13.3 -61.35 22.7 -97.85 32.05 -134.3 32.05 -147.45 L 31.6 -154.15 M 2.45 -198.4 Q 2.45 -204.7 1 -238.35 L -0.55 -274.15 -1.3 -274.15 -1.3 -259.9 Q 0.9 -245.55 1.2 -222.8 1.55 -190.35 1.75 -186.65 L 2.1 -187.15 Q 2.1 -190.95 2.45 -198.4 M 6.25 -276.45 L 6.05 -276.9 Q 5.8 -277.05 5.8 -275.6 5.8 -272.45 7.65 -263.55 9.5 -254.6 9.5 -250.3 9.5 -181.6 2 -117.5 L -3.2 -76.5 Q -5.55 -57.2 -5.55 -46.65 L -4.85 -35.65 Q -4.15 -24.8 -4 -19.7 L -3.6 -19.7 Q -4.25 -13.05 -4.25 -8.05 L -4 -0.9 -4.25 -2.05 Q -5.7 -9.45 -9.15 -19.25 -12.85 -29.95 -14 -34.9 -16.25 -44.45 -16.25 -56.05 -16.25 -62.4 -14.35 -72.6 L -10.25 -92.6 Q -4.25 -121.2 -4.25 -139.75 -4.25 -141.5 -4.75 -146.85 L -5.8 -156.15 -5.8 -200.45 Q -3.7 -215.35 -5.35 -236.4 -6.3 -248.4 -8.75 -272.4 L -10.3 -272.15 -8.4 -243.2 Q -7.45 -226.3 -7.45 -214.3 -7.45 -204.95 -8.55 -200.45 L -8.55 -155.4 Q -7.8 -151.75 -7.1 -146.25 -6.5 -141.25 -6.5 -139.25 -6.5 -122.4 -12.25 -93.05 -18.05 -63.7 -18.05 -55.65 -18.05 -42.95 -17.3 -36.45 -16.7 -31.1 -14.75 -24.6 -8.9 -4.75 -4.8 13.7 -4.1 22.4 -5.55 33.9 L -7.45 47.5 Q -8.55 55.6 -8.75 61.25 L -8.55 62.45 -7.6 62.2 -4.2 43.05 -3.9 41.05 Q -3.15 43.8 -0.75 57.4 2 73.25 2 77.05 2 84.35 -7 113.25 L -11.65 129.1 Q -10.25 119.8 -7.55 108.85 -2.1 86.65 -2.1 73.6 L -3.1 66.05 -4.25 55.65 -4.95 55.65 -4.95 61.75 Q -4.2 64.6 -3.65 67.95 -3.05 71.5 -3.05 73.25 -3.05 79.8 -5.05 87.65 L -9.4 102.5 Q -14.55 119.95 -15.5 137.95 L -15.75 138.7 -15.6 139.95 -15.75 146.4 -15.75 148.15 -16 152 -15.55 155.6 -15.55 155.65 -15.3 160.95 Q -15.6 167.45 -16.25 174.95 -18.75 203.15 -18.75 209.8 L -17.85 219.2 Q -16.95 227.4 -16.95 228.55 -16.95 239.75 -17.3 251.05 -17.4 260.75 -16 278.9 L -14.45 278.55 Q -14.15 270.85 -13.95 256.6 L -13.75 241.85 Q -13.75 239.6 -14.65 224.65 L -15.55 209.95 Q -15.55 204.8 -13.85 190.45 L -13.2 184.7 -10.25 207.3 -0.8 264.65 -0.2 264.1 0 261.1 -6.5 213.4 -6.9 210.45 -4.8 216.75 Q -1.85 224.65 -1 228.05 L 0.05 241.85 Q 2 264.6 3.55 273.1 L 4 272.65 4 267.4 Q 1.6 251.55 0.9 244.1 0 234.6 0 221.9 0 210.3 4.05 175.75 L 6.15 158.75 Q 5.8 172.5 5.8 186.4 5.8 190.7 6.25 200.05 L 6.7 199.3 6.85 198.9 12.35 103.95 12.35 103.9 12.35 103.8 Q 15.55 47.05 15.55 42.85 15.55 29.8 11.8 -2.5 8.05 -34.8 8.05 -45.45 L 9.2 -64.95 10 -78.5 Q 19.45 -141.15 19.45 -178.35 L 19.2 -181.65 19.2 -231.2 Q 17.65 -240.4 17.35 -254.7 L 16.7 -277.6 15.55 -277.6 Q 15.3 -276.2 15.3 -273.2 L 15.85 -256.4 16.95 -231.2 16.95 -182.4 Q 15.6 -170.3 13.9 -138.45 12.35 -110.75 10.05 -95.45 L 1.7 -52.9 Q -1.25 -37.95 -2.75 -26.75 -0.1 -61.85 2.9 -93.35 L 7.3 -138.65 Q 10.8 -177.3 10.8 -236.4 10.8 -242.65 9.1 -258.15 7.35 -274.25 6.25 -276.45 M 9 -72.1 Q 8.6 -66.65 7.9 -62.95 6.25 -54.7 6.25 -44.65 6.25 -33.65 9.8 -2.15 13.3 29.35 13.3 42.85 13.3 53.5 12.15 68.3 L 10.15 91.25 Q 7.7 75.8 4.05 47.7 -1.3 6.45 -1.3 0.8 -1.3 -6.75 1.95 -27.9 L 9 -72.1 M 0.5 96.9 Q 3.3 85.65 3.3 76.7 3.3 73.55 0.5 58.35 -2.3 43.3 -3.3 40.7 L -3.85 40.7 Q -2.45 31.25 -2.45 24.1 L -2.1 23.75 -2.1 20.4 Q -0.55 34 2.15 52.25 4.2 66.05 5.95 76.45 L 5.55 76.45 Q 6.05 92.3 5.4 101.5 4.4 116.1 0.35 126.7 -0.95 130.25 -5.15 151.25 -9.5 173.05 -9.5 177.25 L -8.55 197.8 Q -11.2 177.3 -12.25 163.3 L -12.65 150.2 -12.95 144.4 -11.6 137.55 Q -9.95 130.55 -5.6 117.25 -1.1 103.4 0.5 96.9 M 9.7 96.35 L 9.55 97.7 Q 7.7 119.5 6.75 141.55 L 6.5 141.4 5.55 141.4 Q 2.3 153.95 0.1 173.25 -2 191.65 -2 205.9 -2 211.05 -1.6 218.45 L -4.1 208.35 Q -6.85 196.4 -6.85 191.5 -6.85 174.75 0.75 140.05 8.3 105.4 8.3 90.25 L 8.3 89.65 9.7 96.35 Z"
         stroke="none"
         fill="#6F5A3C" />
    </g>
    <g
       id="Symbol_75_0_Layer1_0_FILL">
      <path
         id="path341"
         d=" M -21 -99.3 Q -27.25 -96.5 -33.5 -92.2 L -33.5 153.55 Q -27.3 157.6 -21 160.15 L -21 -99.3 Z"
         stroke="none"
         fill="#B19873" />
      <path
         id="path343"
         d=" M 33.5 -92.2 Q 17.25 -103.45 1 -104.2 L 1 164.25 Q 9.4 164.05 17.5 161.4 25.6 158.7 33.5 153.55 L 33.5 -92.2 Z"
         stroke="none"
         fill="#7B6749" />
      <path
         id="path345"
         d=" M 0.5 -104.25 L 0 -104.25 -0.5 -104.25 Q -10.75 -103.85 -21 -99.3 L -21 160.15 -17.5 161.4 Q -9.15 164.15 -0.5 164.25 L 0.5 164.25 1 164.25 1 -104.2 0.5 -104.25 Z"
         stroke="none"
         fill="#8C734F" />
    </g>
    <g
       id="Symbol_75_0_Layer0_0_FILL">
      <path
         id="path348"
         d=" M -17.8 -100.35 L -18.5 -100.35 -18.55 -99.7 -18.75 -100.35 -18.8 -98.3 -18.95 -97.75 -19.45 -95.4 -19.15 -92.5 -19.6 -87.5 Q -20.3 -80.05 -20.3 -75 -20.3 -74.35 -20.1 -74.3 L -19.95 -74.4 -18.4 -81.55 -18.2 -82.35 -17.55 -74.1 Q -17.55 -55 -22.55 -34.25 L -24.95 -24 -26.85 -19.55 -27.05 -18.9 -29.45 -15.8 -28.25 -15.9 -28.05 -16.1 Q -29.8 -10.75 -29.8 -7.7 -29.8 -5.05 -28.7 -1.8 L -28.6 1.9 Q -28.3 4.05 -27.15 5.15 L -26.7 4.9 -27.05 2.05 -21.75 12 Q -13.75 27.8 -13.75 46.55 -13.75 54.55 -14.75 61.05 L -16.55 72 -16.7 72 Q -19.6 78.05 -25.45 93.6 -31.2 109 -31.2 110.4 -31.2 111.1 -30.95 111.05 L -30.75 110.85 -30.2 110.45 -30 110.25 -22.5 91.85 Q -18.75 82.85 -17.05 78 L -16.95 78 Q -12.75 66.75 -11.9 61.05 -11.5 58.1 -11.5 46.55 -11.5 27.85 -19.75 10.4 L -25.4 -0.55 -27.15 -4.35 -26.7 -4.6 -23.1 -21.35 Q -20.5 -24.45 -18.25 -27.9 -14.05 -34.2 -12.35 -39.9 L -20.3 -28.4 -21.85 -26.15 Q -21.4 -27.8 -21.45 -28.4 L -21.55 -28.4 Q -18.05 -44.35 -18.05 -46.25 L -17.25 -54.2 -16.5 -62.15 -17.85 -84.2 Q -16.95 -88.95 -16.95 -90.05 -16.95 -91.05 -17.5 -94.4 L -18.05 -97.65 -18.05 -97.75 Q -17.65 -99.55 -17.8 -100.35 M 32.05 -29.3 L 31.9 -30.35 31.2 -30.35 Q 28.4 -24.25 24.55 -14.6 18.5 0.55 18.5 4.4 18.5 11.25 22.85 25.5 27.15 39.75 27.15 46.7 L 26.2 50.35 Q 25.25 53.45 25.25 54 L 25.3 55.25 25.75 56.15 26.25 56.1 24.05 64.2 Q 20.6 76.75 17.8 85.25 L 17.8 117.05 16.95 118.5 16.95 143.85 16.3 144.7 Q 16 145.2 16 145.95 16 148.8 17.25 155.25 18.5 161.7 18.5 164.25 L 19.45 164.05 19.55 159.9 Q 19 149.4 19.2 144.1 L 19.2 119.05 20.05 117.65 20.05 85.45 26.3 66.7 Q 31.45 50.2 31.45 45.25 31.45 44.5 31 43.9 L 30 42.95 29.8 42.95 28.8 46.7 29.05 40.3 Q 29.05 36.6 25.95 28.25 22.8 19.95 22.8 18.95 L 22.05 11.75 21.25 4.5 Q 21.25 -1.85 26.65 -15.75 L 32.05 -29.3 M 29.05 -47.15 Q 29.4 -45.1 29 -41.35 L 28.5 -37.25 Q 28.5 -32.85 25.9 -26.75 24.4 -23.25 20.25 -15.6 11.95 -0.5 11.95 6.55 11.95 15.85 13.3 20.1 17.3 32.95 18.5 37.95 L 19.45 37.85 19.45 34.6 Q 18.3 28.2 15.3 19.6 13.3 13.8 13.3 6.6 13.3 1 22.7 -16.35 32.05 -33.75 32.05 -40 L 31.6 -43.2 Q 31 -45.7 30 -47.15 L 29.05 -47.15 M 2.1 -58.9 Q 2.1 -60.75 2.45 -64.3 2.45 -67.3 1 -83.3 L -0.55 -100.35 -1.3 -100.35 -1.3 -93.6 Q 0.9 -86.75 1.2 -75.9 1.55 -60.45 1.75 -58.7 L 2.1 -58.9 M 16.7 -102 L 15.55 -102 Q 15.3 -101.35 15.3 -99.9 L 15.85 -91.9 16.95 -79.9 16.95 -56.65 Q 15.6 -50.9 13.9 -35.7 12.35 -22.5 10.05 -15.25 L 1.7 5.05 Q -1.25 12.15 -2.75 17.5 -0.1 0.8 2.9 -14.25 L 7.3 -35.8 Q 10.8 -54.25 10.8 -82.4 10.8 -85.35 9.1 -92.75 7.35 -100.4 6.25 -101.45 L 6.05 -101.7 Q 5.8 -101.75 5.8 -101.05 5.8 -99.55 7.65 -95.3 9.5 -91.05 9.5 -89 9.5 -56.25 2 -25.75 L -3.2 -6.2 Q -5.55 3 -5.55 8 L -4.85 13.25 Q -4.15 18.45 -4 20.85 L -3.6 20.85 Q -4.25 24.05 -4.25 26.4 L -4 29.8 -4.25 29.25 Q -5.7 25.75 -9.15 21.1 -12.85 16 -14 13.6 -16.25 9.05 -16.25 3.55 -16.25 0.5 -14.35 -4.35 L -10.25 -13.85 Q -4.25 -27.5 -4.25 -36.35 L -4.75 -39.7 -5.8 -44.15 -5.8 -65.25 Q -3.7 -72.35 -5.35 -82.4 -6.3 -88.1 -8.75 -99.55 L -10.3 -99.4 -8.4 -85.6 Q -7.45 -77.55 -7.45 -71.85 -7.45 -67.4 -8.55 -65.25 L -8.55 -43.8 Q -7.8 -42.05 -7.1 -39.45 -6.5 -37.05 -6.5 -36.1 -6.5 -28.05 -12.25 -14.1 -18.05 -0.1 -18.05 3.75 -18.05 9.8 -17.3 12.9 -16.7 15.45 -14.75 18.55 -8.9 28 -4.8 36.8 -4.1 40.9 -5.55 46.4 L -7.45 52.9 Q -8.55 56.75 -8.75 59.45 L -8.55 60 -7.6 59.9 -4.2 50.75 -3.9 49.8 Q -3.15 51.1 -0.75 57.6 2 65.15 2 66.95 2 70.45 -7 84.2 L -11.65 91.75 Q -10.25 87.35 -7.55 82.1 -2.1 71.55 -2.1 65.3 L -3.1 61.7 -4.25 56.75 -4.95 56.75 -4.95 59.65 -3.65 62.65 Q -3.05 64.3 -3.05 65.15 -3.05 68.25 -5.05 72 L -9.4 79.1 Q -14.55 87.4 -15.5 96 L -15.75 96.35 -15.6 96.95 -15.75 100 -15.75 100.85 -16 102.65 -15.55 104.4 -15.3 106.95 Q -15.6 110.05 -16.25 113.6 -18.75 127.05 -18.75 130.2 L -17.85 134.7 -16.95 139.15 Q -16.95 144.5 -17.3 149.85 -17.4 154.5 -16 163.15 L -14.45 162.95 Q -14.15 159.3 -13.95 152.5 L -13.75 145.5 Q -13.75 144.4 -14.65 137.3 L -15.55 130.3 Q -15.55 127.85 -13.85 121 L -13.2 118.25 -10.25 129 -0.8 156.35 -0.2 156.1 0 154.65 -6.5 131.95 -6.9 130.5 -4.8 133.5 Q -1.85 137.3 -1 138.9 L 0.05 145.5 Q 2 156.3 3.55 160.35 L 4 160.15 4 157.65 Q 1.6 150.1 0.9 146.55 0 142.05 0 136 0 130.45 4.05 114 L 6.15 105.9 Q 5.8 112.45 5.8 119.05 5.8 121.1 6.25 125.55 L 6.7 125.2 6.85 125 12.35 79.8 12.35 79.7 Q 15.55 52.65 15.55 50.65 15.55 44.45 11.8 29.05 8.05 13.65 8.05 8.6 8.05 8 9.2 -0.7 L 10 -7.15 Q 19.45 -37 19.45 -54.75 L 19.2 -56.3 19.2 -79.9 Q 17.65 -84.3 17.35 -91.1 L 16.7 -102 M 7.9 0.25 Q 6.25 4.2 6.25 9 6.25 14.2 9.8 29.25 13.3 44.25 13.3 50.65 13.3 55.75 12.15 62.8 L 10.15 73.75 Q 7.7 66.35 4.05 53 -1.3 33.3 -1.3 30.65 -1.3 27.05 1.95 16.95 L 9 -4.1 Q 8.6 -1.5 7.9 0.25 M 8.3 73.25 L 8.3 72.95 9.7 76.15 9.55 76.8 Q 7.7 87.2 6.75 97.7 L 6.5 97.6 5.55 97.6 Q 2.3 103.6 0.1 112.8 -2 121.55 -2 128.35 -2 130.8 -1.6 134.35 L -4.1 129.5 Q -6.85 123.85 -6.85 121.5 -6.85 113.5 0.75 97 8.3 80.45 8.3 73.25 M 5.95 66.7 L 5.55 66.7 Q 6.05 74.25 5.4 78.6 4.4 85.55 0.35 90.6 -0.95 92.3 -5.15 102.3 -9.5 112.7 -9.5 114.7 L -8.55 124.5 Q -11.2 114.75 -12.25 108.05 L -12.65 101.8 -12.95 99.05 -11.6 95.8 Q -9.95 92.45 -5.6 86.1 -1.1 79.5 0.5 76.4 3.3 71.05 3.3 66.8 3.3 65.3 0.5 58.05 -2.3 50.9 -3.3 49.65 L -3.85 49.65 Q -2.45 45.15 -2.45 41.75 L -2.1 41.55 -2.1 39.95 Q -0.55 46.45 2.15 55.15 L 5.95 66.7 Z"
         stroke="none"
         fill="#6F5A3C" />
    </g>
    <path
       d=" M 1 -279.2 Q 17.25 -278.45 33.5 -267.2 L 33.5 268.55 Q 25.6 273.7 17.5 276.4 9.4 279.05 1 279.25 L 0.5 279.25 -0.5 279.25 Q -9.15 279.15 -17.5 276.4 L -21 275.15 Q -27.3 272.6 -33.5 268.55 L -33.5 -267.2 Q -27.25 -271.5 -21 -274.3 -10.75 -278.85 -0.5 -279.25 L 0 -279.25 0.5 -279.25 1 -279.2 Z"
       fill="none"
       stroke-linecap="round"
       stroke-linejoin="round"
       stroke-width="12"
       stroke="#6F5A3C"
       id="Symbol_73_0_Layer1_0_1_STROKES" />
    <path
       d=" M 1 -104.2 L 0.5 -104.25 0 -104.25 -0.5 -104.25 Q -10.75 -103.85 -21 -99.3 M -21 160.15 L -17.5 161.4 Q -9.15 164.15 -0.5 164.25 L 0.5 164.25 1 164.25 M 1 -104.2 Q 17.25 -103.45 33.5 -92.2 L 33.5 153.55 Q 25.6 158.7 17.5 161.4 9.4 164.05 1 164.25 M -21 -99.3 Q -27.25 -96.5 -33.5 -92.2 L -33.5 153.55 Q -27.3 157.6 -21 160.15"
       fill="none"
       stroke-linecap="round"
       stroke-linejoin="round"
       stroke-width="12"
       stroke="#6F5A3C"
       id="Symbol_75_0_Layer1_0_1_STROKES" />
  </defs>
  <mask
     id="Mask_Mask_1">
    <g
       id="g359"
       transform="matrix( 12.5, 0, 0, 12.499359130859375, 310,310) ">
      <g
         id="g357"
         transform="matrix( 1, 0, 0, 1, 0,0) ">
        <use
           id="use355"
           xlink:href="#Mask_Mask_Symbol_1_0_Layer0_0_FILL" />
      </g>
    </g>
  </mask>
  <mask
     id="Mask_Mask_2">
    <g
       id="g536"
       transform="matrix( 12.5, 0, 0, 12.498748779296875, 850,309.95) ">
      <g
         id="g534"
         transform="matrix( 1, 0, 0, 1, 0,0) ">
        <use
           id="use532"
           xlink:href="#Mask_Mask_Symbol_42_0_Layer0_0_FILL" />
      </g>
    </g>
  </mask>
  <mask
     id="Mask_Mask_3">
    <g
       id="g673"
       transform="matrix( 12.5, 0, 0, 12.498748779296875, 850,309.95) ">
      <g
         id="g671"
         transform="matrix( 1, 0, 0, 1, 0,0) ">
        <use
           id="use669"
           xlink:href="#Mask_Mask_Symbol_42_0_Layer0_0_FILL" />
      </g>
    </g>
  </mask>
  <g
     transform="translate(-398.5611,642.57477)"
     id="g2331">
    <g
       mask="url(#Mask_Mask_2)"
       id="g549">
      <g
         transform="matrix(12.5,0,0,12.498749,850,309.95)"
         id="g547">
        <g
           id="g541">
          <use
             height="100%"
             width="100%"
             y="0"
             x="0"
             xlink:href="#Symbol_43_0_Layer1_0_FILL"
             id="use539" />
        </g>
        <g
           id="g545">
          <use
             height="100%"
             width="100%"
             y="0"
             x="0"
             xlink:href="#Symbol_43_0_Layer0_0_FILL"
             id="use543" />
        </g>
      </g>
    </g>
    <g
       mask="url(#Mask_Mask_2)"
       id="g557">
      <g
         transform="matrix(12.5,0,0,12.498749,645,317.45)"
         id="g555">
        <g
           id="g553">
          <use
             height="100%"
             width="100%"
             y="0"
             x="0"
             xlink:href="#Symbol_22_0_Layer0_0_FILL"
             id="use551" />
        </g>
      </g>
    </g>
    <g
       mask="url(#Mask_Mask_2)"
       id="g565">
      <g
         transform="matrix(12.5,0,0,12.498749,768.15,412.45)"
         id="g563">
        <g
           id="g561">
          <use
             height="100%"
             width="100%"
             y="0"
             x="0"
             xlink:href="#Symbol_45_0_Layer0_0_FILL"
             id="use559" />
        </g>
      </g>
    </g>
    <g
       mask="url(#Mask_Mask_2)"
       id="g573">
      <g
         transform="matrix(12.5,0,0,12.498749,624.4,466.8)"
         id="g571">
        <g
           id="g569">
          <use
             height="100%"
             width="100%"
             y="0"
             x="0"
             xlink:href="#Symbol_24_0_Layer0_0_FILL"
             id="use567" />
        </g>
      </g>
    </g>
    <g
       mask="url(#Mask_Mask_2)"
       id="g581">
      <g
         transform="matrix(12.5,0,0,12.498749,898.15,361.2)"
         id="g579">
        <g
           id="g577">
          <use
             height="100%"
             width="100%"
             y="0"
             x="0"
             xlink:href="#Symbol_4_0_Layer0_0_FILL"
             id="use575" />
        </g>
      </g>
    </g>
    <g
       mask="url(#Mask_Mask_2)"
       id="g589">
      <g
         transform="matrix(12.5,0,0,12.498749,1020.65,347.45)"
         id="g587">
        <g
           id="g585">
          <use
             height="100%"
             width="100%"
             y="0"
             x="0"
             xlink:href="#Symbol_6_0_Layer0_0_FILL"
             id="use583" />
        </g>
      </g>
    </g>
    <g
       mask="url(#Mask_Mask_2)"
       id="g597">
      <g
         transform="matrix(12.5,0,0,12.498749,799.4,246.85)"
         id="g595">
        <g
           id="g593">
          <use
             height="100%"
             width="100%"
             y="0"
             x="0"
             xlink:href="#Symbol_8_0_Layer0_0_FILL"
             id="use591" />
        </g>
      </g>
    </g>
    <g
       mask="url(#Mask_Mask_2)"
       id="g605">
      <g
         transform="matrix(12.5,0,0,12.498749,738.75,50.6)"
         id="g603">
        <g
           id="g601">
          <use
             height="100%"
             width="100%"
             y="0"
             x="0"
             xlink:href="#Symbol_10_0_Layer0_0_FILL"
             id="use599" />
        </g>
      </g>
    </g>
    <g
       mask="url(#Mask_Mask_2)"
       id="g613">
      <g
         transform="matrix(12.5,0,0,12.498749,867.5,35.6)"
         id="g611">
        <g
           id="g609">
          <use
             height="100%"
             width="100%"
             y="0"
             x="0"
             xlink:href="#Symbol_12_0_Layer0_0_FILL"
             id="use607" />
        </g>
      </g>
    </g>
    <g
       mask="url(#Mask_Mask_2)"
       id="g621">
      <g
         transform="matrix(12.5,0,0,12.498749,1002.5,15)"
         id="g619">
        <g
           id="g617">
          <use
             height="100%"
             width="100%"
             y="0"
             x="0"
             xlink:href="#Symbol_14_0_Layer0_0_FILL"
             id="use615" />
        </g>
      </g>
    </g>
    <g
       mask="url(#Mask_Mask_2)"
       id="g629">
      <g
         transform="matrix(12.5,0,0,12.498749,626.25,71.2)"
         id="g627">
        <g
           id="g625">
          <use
             height="100%"
             width="100%"
             y="0"
             x="0"
             xlink:href="#Symbol_26_0_Layer0_0_FILL"
             id="use623" />
        </g>
      </g>
    </g>
    <g
       mask="url(#Mask_Mask_2)"
       id="g637">
      <g
         transform="matrix(12.5,0,0,12.498749,931.25,176.2)"
         id="g635">
        <g
           id="g633">
          <use
             height="100%"
             width="100%"
             y="0"
             x="0"
             xlink:href="#Symbol_16_0_Layer0_0_FILL"
             id="use631" />
        </g>
      </g>
    </g>
    <g
       mask="url(#Mask_Mask_2)"
       id="g645">
      <g
         transform="matrix(12.5,0,0,12.498749,803.75,139.35)"
         id="g643">
        <g
           id="g641">
          <use
             height="100%"
             width="100%"
             y="0"
             x="0"
             xlink:href="#Symbol_18_0_Layer0_0_FILL"
             id="use639" />
        </g>
      </g>
    </g>
    <g
       mask="url(#Mask_Mask_2)"
       id="g653">
      <g
         transform="matrix(12.5,0,0,12.498749,664.4,182.45)"
         id="g651">
        <g
           id="g649">
          <use
             height="100%"
             width="100%"
             y="0"
             x="0"
             xlink:href="#Symbol_28_0_Layer0_0_FILL"
             id="use647" />
        </g>
      </g>
    </g>
    <g
       mask="url(#Mask_Mask_2)"
       id="g661">
      <g
         transform="matrix(12.5,0,0,12.498749,1044.4,168.7)"
         id="g659">
        <g
           id="g657">
          <use
             height="100%"
             width="100%"
             y="0"
             x="0"
             xlink:href="#Symbol_20_0_Layer0_0_FILL"
             id="use655" />
        </g>
      </g>
    </g>
    <g
       mask="url(#Mask_Mask_3)"
       id="g682">
      <g
         transform="matrix(12.5,0,0,12.498749,1124.4,466.8)"
         id="g680">
        <g
           id="g678">
          <use
             height="100%"
             width="100%"
             y="0"
             x="0"
             xlink:href="#Symbol_24_0_Layer0_0_FILL"
             id="use676" />
        </g>
      </g>
    </g>
    <g
       mask="url(#Mask_Mask_3)"
       id="g690">
      <g
         transform="matrix(12.5,0,0,12.498749,1126.25,71.2)"
         id="g688">
        <g
           id="g686">
          <use
             height="100%"
             width="100%"
             y="0"
             x="0"
             xlink:href="#Symbol_26_0_Layer0_0_FILL"
             id="use684" />
        </g>
      </g>
    </g>
    <g
       mask="url(#Mask_Mask_3)"
       id="g698">
      <g
         transform="matrix(12.5,0,0,12.498749,1164.4,182.45)"
         id="g696">
        <g
           id="g694">
          <use
             height="100%"
             width="100%"
             y="0"
             x="0"
             xlink:href="#Symbol_28_0_Layer0_0_FILL"
             id="use692" />
        </g>
      </g>
    </g>
    <g
       mask="url(#Mask_Mask_3)"
       id="g706">
      <g
         transform="matrix(12.5,0,0,12.498749,721.9,498.05)"
         id="g704">
        <g
           id="g702">
          <use
             height="100%"
             width="100%"
             y="0"
             x="0"
             xlink:href="#Symbol_47_0_Layer0_0_FILL"
             id="use700" />
        </g>
      </g>
    </g>
    <g
       mask="url(#Mask_Mask_3)"
       id="g714">
      <g
         transform="matrix(12.5,0,0,12.498749,842.5,496.8)"
         id="g712">
        <g
           id="g710">
          <use
             height="100%"
             width="100%"
             y="0"
             x="0"
             xlink:href="#Symbol_49_0_Layer0_0_FILL"
             id="use708" />
        </g>
      </g>
    </g>
    <g
       mask="url(#Mask_Mask_3)"
       id="g722">
      <g
         transform="matrix(12.5,0,0,12.498749,979.4,476.8)"
         id="g720">
        <g
           id="g718">
          <use
             height="100%"
             width="100%"
             y="0"
             x="0"
             xlink:href="#Symbol_51_0_Layer0_0_FILL"
             id="use716" />
        </g>
      </g>
    </g>
    <g
       mask="url(#Mask_Mask_3)"
       id="g730">
      <g
         transform="matrix(12.5,0,0,12.498749,1056.25,515.55)"
         id="g728">
        <g
           id="g726">
          <use
             height="100%"
             width="100%"
             y="0"
             x="0"
             xlink:href="#Symbol_53_0_Layer0_0_FILL"
             id="use724" />
        </g>
      </g>
    </g>
    <g
       mask="url(#Mask_Mask_3)"
       id="g740">
      <g
         style="filter:url(#Filter_2)"
         id="g738">
        <g
           transform="matrix(16.122818,0,0,12.498749,850,188.1)"
           id="g736">
          <g
             id="g734">
            <use
               height="100%"
               width="100%"
               y="0"
               x="0"
               xlink:href="#Symbol_55_0_Layer0_0_FILL"
               id="use732" />
          </g>
        </g>
      </g>
    </g>
    <g
       mask="url(#Mask_Mask_3)"
       id="g748">
      <g
         transform="matrix(12.5,0,0,12.498749,850,309.95)"
         id="g746">
        <g
           id="g744">
          <use
             height="100%"
             width="100%"
             y="0"
             x="0"
             xlink:href="#Symbol_41_0_Layer0_0_FILL"
             id="use742" />
        </g>
      </g>
    </g>
  </g>
  <mask
     id="Mask_Mask_4">
    <g
       id="g754"
       transform="matrix( 12.5, 0, 0, 12.49932861328125, 1390,310) ">
      <g
         id="g752"
         transform="matrix( 1, 0, 0, 1, 0,0) ">
        <use
           id="use750"
           xlink:href="#Mask_Mask_Symbol_56_0_Layer0_0_FILL" />
      </g>
    </g>
  </mask>
  <mask
     id="Mask_Mask_5">
    <g
       id="g927"
       transform="matrix( 12.5, 0, 0, 12.5, 310,850) ">
      <g
         id="g925"
         transform="matrix( 1, 0, 0, 1, 0,0) ">
        <use
           id="use923"
           xlink:href="#Mask_Mask_Symbol_42_0_Layer0_0_FILL" />
      </g>
    </g>
  </mask>
  <mask
     id="Mask_Mask_6">
    <g
       id="g1148"
       transform="matrix( 12.5, 0, 0, 12.5, 850,850) ">
      <g
         id="g1146"
         transform="matrix( 1, 0, 0, 1, 0,0) ">
        <use
           id="use1144"
           xlink:href="#Mask_Mask_Symbol_42_0_Layer0_0_FILL" />
      </g>
    </g>
  </mask>
</svg>
