<?xml version="1.0" encoding="UTF-8" standalone="no"?>
<svg xmlns:xlink="http://www.w3.org/1999/xlink" height="72.75px" width="111.75px" xmlns="http://www.w3.org/2000/svg">
  <g transform="matrix(1.0, 0.0, 0.0, 1.0, 52.1, 94.3)">
    <use height="190.0" transform="matrix(0.3072, 0.0282, -0.0282, 0.3072, -38.1515, -91.2924)" width="293.85" xlink:href="#shape0"/>
  </g>
  <defs>
    <g id="shape0" transform="matrix(1.0, 0.0, 0.0, 1.0, 156.7, 183.5)">
      <path d="M63.0 -55.1 L54.15 -54.05 49.75 -53.4 49.7 -53.7 Q49.4 -57.4 49.7 -74.5 L49.7 -76.3 Q50.0 -95.25 50.2 -98.2 L50.6 -106.3 Q51.4 -114.3 53.5 -120.4 60.3 -139.8 79.45 -139.0 90.95 -138.5 98.0 -132.3 101.7 -129.0 104.85 -123.65 L107.85 -119.9 Q104.9 -123.0 102.2 -125.1 93.55 -131.9 83.8 -131.9 65.75 -131.9 60.1 -115.3 56.9 -105.9 56.9 -81.8 56.9 -72.15 58.9 -64.45 60.45 -58.4 63.0 -55.1 M33.3 -51.3 L17.7 -49.35 Q17.55 -50.8 17.0 -51.9 15.65 -54.3 11.95 -55.1 L13.15 -74.5 13.55 -82.85 Q14.5 -101.95 18.05 -113.95 L22.1 -129.25 Q24.65 -139.1 26.45 -144.7 28.2 -150.35 33.1 -159.5 L40.0 -172.45 47.0 -170.15 Q37.05 -155.7 31.5 -129.25 26.1 -103.5 26.1 -72.3 26.1 -61.7 31.15 -54.1 L33.3 -51.3 M-0.4 -55.0 Q-1.4 -55.0 -1.45 -55.3 L-1.4 -55.75 Q-11.1 -56.1 -13.05 -55.45 -15.9 -54.5 -16.75 -51.0 L-18.35 -51.05 -27.85 -51.65 Q-27.3 -53.75 -27.35 -55.3 -27.3 -56.6 -27.7 -60.0 -27.9 -62.75 -26.4 -74.5 L-24.45 -90.0 Q-21.1 -114.65 -19.75 -120.9 -15.4 -140.8 -12.05 -151.35 -6.75 -167.65 0.95 -179.9 L7.6 -179.25 8.2 -178.7 8.4 -179.1 10.8 -178.75 Q3.55 -169.4 -3.75 -141.15 -11.8 -109.95 -11.8 -86.1 -11.8 -73.95 -6.3 -63.2 -3.7 -58.15 -0.4 -55.0 M3.0 -52.35 L3.45 -52.3 14.25 -51.55 14.35 -50.65 Q12.45 -49.8 12.2 -49.8 7.15 -49.8 3.0 -52.35 M14.6 -47.6 L14.95 -42.95 15.05 -30.5 Q1.35 -30.5 -11.4 -31.1 L-14.5 -31.25 -14.4 -34.25 -14.5 -43.15 -10.35 -43.4 -10.15 -44.05 Q-9.1 -46.5 -6.0 -47.4 L3.9 -48.2 10.6 -48.15 14.6 -47.6 M-121.65 -1.75 Q-134.5 -4.4 -142.3 -9.05 -146.8 -11.65 -149.55 -14.75 L-149.95 -18.7 Q-150.85 -31.2 -137.3 -41.95 -132.85 -45.4 -126.2 -49.2 L-119.75 -52.8 Q-118.25 -51.75 -115.85 -50.65 L-111.15 -48.0 Q-110.1 -46.7 -104.05 -44.2 L-101.7 -43.35 Q-93.25 -40.1 -81.75 -37.25 -99.45 -33.15 -109.2 -25.0 -119.95 -16.0 -121.65 -1.75 M-18.4 -179.8 L-25.45 -172.25 Q-38.3 -157.1 -48.4 -135.45 -53.4 -124.75 -57.3 -113.45 L-73.2 -115.3 Q-74.45 -115.3 -80.45 -113.0 L-82.25 -112.2 Q-79.6 -125.2 -72.45 -139.25 -69.05 -145.95 -62.0 -157.8 -55.2 -169.2 -52.05 -174.95 -36.8 -179.55 -18.4 -179.8 M-46.65 -100.3 Q-46.5 -95.25 -47.35 -82.0 L-47.75 -74.5 Q-48.15 -66.65 -47.95 -63.2 L-48.1 -53.65 Q-59.1 -55.1 -66.5 -56.85 L-68.85 -57.45 -80.85 -60.75 -80.75 -61.1 -81.15 -61.1 -83.8 -61.4 -83.75 -79.2 Q-83.45 -87.4 -81.45 -91.6 -79.1 -96.55 -73.45 -98.8 -67.6 -101.1 -56.5 -101.1 L-51.5 -100.7 -46.65 -100.3 M-84.0 -157.9 Q-79.65 -161.6 -74.8 -164.65 -83.65 -153.55 -92.0 -124.35 -96.65 -108.1 -99.15 -92.25 -100.85 -81.85 -101.15 -74.5 -101.35 -70.8 -101.15 -68.0 L-101.15 -67.6 -102.35 -68.05 Q-111.05 -71.05 -114.05 -71.2 -114.35 -72.9 -115.1 -74.5 -115.95 -76.25 -117.25 -77.8 -113.55 -101.95 -105.25 -122.3 -96.65 -143.35 -84.0 -157.9 M-17.2 -43.05 L-17.4 -37.7 -17.7 -31.35 -40.1 -33.25 Q-58.8 -35.3 -74.55 -38.85 L-78.5 -39.7 Q-83.1 -40.8 -89.6 -42.65 L-96.3 -44.45 -95.9 -44.65 Q-97.45 -44.65 -99.95 -45.75 -101.75 -46.55 -105.9 -48.9 -107.35 -49.65 -108.45 -49.8 L-109.55 -50.5 Q-111.25 -51.4 -112.65 -52.4 L-112.45 -54.0 -112.5 -58.05 -113.05 -63.1 -92.5 -56.9 -74.35 -51.65 -65.45 -49.35 Q-38.4 -42.7 -17.2 -43.05" fill="#ffcc00" fill-rule="evenodd" stroke="none"/>
      <path d="M10.8 -178.75 Q25.95 -176.7 39.4 -172.55 30.3 -162.55 25.0 -146.35 23.15 -140.55 20.65 -130.9 L16.75 -115.5 Q11.55 -94.6 10.65 -74.5 10.15 -64.8 10.8 -55.35 L7.9 -55.45 1.5 -55.1 -0.4 -55.0 Q-3.7 -58.15 -6.3 -63.2 -11.8 -73.95 -11.8 -86.1 -11.8 -109.95 -3.75 -141.15 3.55 -169.4 10.8 -178.75 M-18.4 -179.8 L-12.9 -179.8 0.1 -180.0 Q-4.85 -174.85 -11.8 -158.15 -20.3 -137.75 -19.7 -128.1 -19.6 -127.25 -22.8 -111.3 -26.3 -94.35 -26.85 -88.25 L-27.95 -74.5 -29.45 -51.75 -29.5 -51.75 -42.9 -53.05 Q-42.15 -55.65 -41.35 -60.25 L-39.05 -74.5 -38.7 -77.25 Q-37.65 -83.25 -33.75 -95.1 L-30.15 -106.1 Q-30.2 -107.0 -30.75 -107.45 L-30.75 -107.65 Q-30.9 -109.3 -50.05 -112.4 L-57.3 -113.45 Q-53.4 -124.75 -48.4 -135.45 -38.3 -157.1 -25.45 -172.25 L-18.4 -179.8" fill="#d9ae03" fill-rule="evenodd" stroke="none"/>
      <path d="M107.85 -119.9 Q115.1 -110.7 117.9 -105.85 121.65 -99.15 126.2 -85.7 L129.85 -74.5 130.7 -72.05 Q119.05 -68.85 104.3 -66.75 92.05 -65.85 85.95 -61.2 83.95 -59.75 81.65 -57.0 L81.15 -56.4 63.0 -55.1 Q60.45 -58.4 58.9 -64.45 56.9 -72.15 56.9 -81.8 56.9 -105.9 60.1 -115.3 65.75 -131.9 83.8 -131.9 93.55 -131.9 102.2 -125.1 104.9 -123.0 107.85 -119.9 M47.0 -170.15 Q79.95 -158.45 102.1 -134.35 115.7 -119.3 123.45 -101.35 128.35 -90.0 130.0 -79.8 L128.3 -85.0 Q124.1 -97.55 118.2 -108.45 101.1 -140.1 79.45 -141.05 62.9 -141.75 55.2 -128.1 49.9 -118.65 48.6 -101.4 48.15 -95.25 48.05 -76.7 L48.05 -74.5 Q47.95 -60.55 48.2 -58.15 48.35 -55.55 48.9 -53.4 L33.3 -51.3 31.15 -54.1 Q26.1 -61.7 26.1 -72.3 26.1 -103.5 31.5 -129.25 37.05 -155.7 47.0 -170.15" fill="#bb9706" fill-rule="evenodd" stroke="none"/>
      <path d="M68.3 -46.35 Q63.4 -43.65 56.55 -40.3 35.65 -30.2 23.1 -30.65 L21.55 -30.6 17.55 -30.55 17.9 -38.55 17.9 -43.05 Q33.65 -42.3 45.9 -43.4 L62.45 -45.25 68.3 -46.35 M134.15 -63.6 L133.8 -55.1 Q133.55 -51.9 127.6 -49.55 123.95 -48.05 122.75 -46.7 119.45 -45.9 116.55 -46.05 L116.3 -46.05 110.5 -44.45 Q97.55 -40.9 88.75 -39.15 L64.5 -35.1 Q68.75 -37.15 72.9 -39.95 76.4 -42.3 85.4 -49.0 94.7 -55.7 110.25 -59.55 119.7 -61.9 134.15 -63.6 M-34.3 -103.9 Q-36.95 -96.85 -41.55 -78.85 L-42.6 -74.5 -45.15 -63.75 -44.7 -74.5 -44.6 -76.6 -44.0 -89.1 -43.6 -100.55 -39.6 -102.05 -34.3 -103.9" fill="#cda60b" fill-rule="evenodd" stroke="none"/>
      <path d="M37.35 -48.35 L40.75 -48.8 59.95 -51.6 65.75 -52.5 72.5 -53.65 80.05 -55.1 78.05 -52.95 Q75.1 -50.25 68.3 -46.35 L62.45 -45.25 45.9 -43.4 Q33.65 -42.3 17.9 -43.05 L17.8 -47.05 19.35 -46.9 37.35 -48.35 41.1 -48.2 41.9 -48.2 41.1 -48.2 37.35 -48.35 M3.0 -52.35 Q7.15 -49.8 12.2 -49.8 12.45 -49.8 14.35 -50.65 L14.6 -47.6 10.6 -48.15 3.9 -48.2 -6.0 -47.4 Q-9.1 -46.5 -10.15 -44.05 L-10.35 -43.4 -14.5 -43.15 -14.55 -44.2 -13.85 -49.9 Q-13.5 -51.85 -12.55 -52.45 -11.7 -52.9 -2.4 -52.6 L-2.45 -52.2 3.0 -52.35 M-149.55 -14.75 Q-153.25 -19.05 -153.65 -24.3 -154.25 -33.45 -144.85 -42.25 -134.0 -52.35 -125.1 -54.85 L-122.5 -55.45 -122.3 -55.1 Q-121.65 -54.0 -119.75 -52.8 L-126.2 -49.2 Q-132.85 -45.4 -137.3 -41.95 -150.85 -31.2 -149.95 -18.7 L-149.55 -14.75 M64.5 -35.1 L62.35 -34.8 49.55 -32.95 53.2 -34.25 Q65.45 -38.85 77.0 -47.25 L84.35 -55.0 Q88.75 -59.9 94.2 -60.95 L134.0 -69.3 134.15 -67.1 134.15 -63.6 Q119.7 -61.9 110.25 -59.55 94.7 -55.7 85.4 -49.0 76.4 -42.3 72.9 -39.95 68.75 -37.15 64.5 -35.1 M-82.25 -112.2 L-84.5 -111.1 -84.75 -111.1 -85.2 -110.7 Q-86.6 -109.95 -86.6 -109.45 L-86.35 -108.55 -86.6 -107.25 -87.95 -101.0 Q-88.95 -96.9 -89.2 -94.5 -90.15 -85.0 -90.1 -80.4 L-89.7 -74.5 -89.3 -68.95 -88.95 -63.85 -88.8 -63.1 -99.9 -67.15 -98.95 -74.5 -96.95 -91.3 Q-94.95 -106.7 -92.3 -117.85 -85.75 -146.05 -70.95 -167.0 -62.2 -171.9 -52.05 -174.95 -55.2 -169.2 -62.0 -157.8 -69.05 -145.95 -72.45 -139.25 -79.6 -125.2 -82.25 -112.2 M-73.4 -112.55 L-58.15 -111.05 -49.8 -109.35 Q-43.0 -107.75 -37.8 -107.0 L-38.45 -106.75 Q-43.35 -105.0 -45.15 -103.5 L-47.5 -103.7 -58.1 -104.25 -60.15 -104.6 Q-67.45 -106.05 -79.65 -110.2 -74.35 -112.6 -73.4 -112.55 M-83.8 -61.4 L-85.85 -61.95 -86.75 -74.5 -86.95 -76.95 -87.05 -77.5 Q-87.4 -82.35 -85.9 -92.05 -84.1 -103.05 -84.0 -106.75 -83.7 -106.75 -83.55 -107.4 L-83.1 -107.2 -75.25 -104.5 Q-69.85 -102.85 -61.0 -101.65 L-57.9 -101.3 -47.95 -100.7 -46.65 -100.45 -46.65 -100.3 -51.5 -100.7 -56.5 -101.1 Q-67.6 -101.1 -73.45 -98.8 -79.1 -96.55 -81.45 -91.6 -83.45 -87.4 -83.75 -79.2 L-83.8 -61.4 M-117.25 -77.8 L-118.75 -79.25 -120.2 -80.4 Q-120.3 -89.45 -117.3 -102.05 -112.65 -121.15 -102.7 -136.6 -94.65 -149.05 -84.0 -157.9 -96.65 -143.35 -105.25 -122.3 -113.55 -101.95 -117.25 -77.8 M-117.55 -74.5 Q-116.9 -73.6 -116.95 -72.55 L-116.35 -66.2 -116.05 -64.0 -114.9 -54.45 -114.8 -53.7 Q-118.25 -56.05 -119.55 -57.9 -120.2 -58.75 -120.3 -59.55 L-120.3 -69.25 -120.15 -74.5 -120.1 -76.75 -119.8 -76.55 Q-118.4 -75.7 -117.75 -74.75 L-117.55 -74.5 M-113.05 -63.1 L-113.75 -68.75 Q-108.4 -65.75 -87.9 -59.5 L-83.7 -58.3 -74.25 -55.75 -69.0 -54.45 -66.45 -53.9 Q-58.55 -52.15 -45.95 -50.5 -45.5 -49.85 -44.9 -49.85 -44.5 -49.8 -44.1 -50.35 L-29.55 -48.8 -18.15 -48.4 -17.15 -48.05 -17.1 -47.3 -17.2 -43.05 Q-38.4 -42.7 -65.45 -49.35 L-74.35 -51.65 -92.5 -56.9 -113.05 -63.1" fill="#ffdc54" fill-rule="evenodd" stroke="none"/>
      <path d="M-81.75 -37.25 L-77.8 -36.35 Q-48.1 -29.5 -11.55 -27.85 3.0 -27.2 18.7 -27.35 L18.95 -26.7 19.5 -25.75 19.65 -26.45 20.45 -26.35 26.55 -27.4 43.65 -28.45 Q56.4 -29.6 70.15 -31.9 85.55 -34.55 94.05 -36.85 L102.7 -38.75 Q82.8 -30.1 58.7 -21.7 -17.5 5.05 -70.1 2.85 L-72.85 2.7 -86.7 1.95 Q-107.35 1.3 -121.65 -1.75 -119.95 -16.0 -109.2 -25.0 -99.45 -33.15 -81.75 -37.25" fill="#d4ac0b" fill-rule="evenodd" stroke="none"/>
      <path d="M107.85 -119.9 L104.85 -123.65 Q101.7 -129.0 98.0 -132.3 90.95 -138.5 79.45 -139.0 60.3 -139.8 53.5 -120.4 51.4 -114.3 50.6 -106.3 L50.2 -98.2 Q50.0 -95.25 49.7 -76.3 L49.7 -74.5 Q49.4 -57.4 49.7 -53.7 L49.75 -53.4 54.15 -54.05 63.0 -55.1 81.15 -56.4 81.65 -57.0 Q83.95 -59.75 85.95 -61.2 92.05 -65.85 104.3 -66.75 119.05 -68.85 130.7 -72.05 L129.85 -74.5 126.2 -85.7 Q121.65 -99.15 117.9 -105.85 115.1 -110.7 107.85 -119.9 M104.6 -136.2 Q118.45 -120.9 126.2 -102.35 132.45 -87.55 133.45 -74.5 L133.45 -74.0 133.55 -72.6 Q135.45 -72.8 136.05 -72.05 136.75 -71.3 137.05 -67.6 L137.15 -63.95 137.15 -60.65 136.9 -54.45 Q136.3 -51.0 130.9 -47.2 125.95 -43.65 123.2 -43.8 122.6 -43.85 122.45 -44.0 L122.35 -44.0 Q116.25 -41.85 109.45 -38.65 L92.2 -30.4 Q70.15 -19.75 52.65 -16.0 33.05 -9.25 10.1 -3.5 -35.25 7.75 -69.9 6.35 L-72.9 6.05 -86.75 5.3 -102.2 3.45 -121.25 1.6 -121.95 1.55 Q-123.95 1.25 -128.1 -0.2 -134.3 -2.3 -139.8 -5.3 -145.1 -8.15 -148.7 -11.15 -156.1 -17.25 -156.65 -24.3 -157.65 -38.9 -138.6 -51.05 -131.65 -55.55 -125.45 -57.35 L-122.9 -57.95 -123.1 -59.45 Q-123.6 -66.9 -123.25 -74.5 -122.9 -82.5 -121.75 -90.7 -118.5 -113.9 -108.95 -132.0 -95.15 -158.3 -70.1 -171.1 L-69.3 -171.5 Q-46.6 -182.9 -14.65 -183.25 L-13.4 -183.25 0.55 -183.5 0.6 -183.25 Q67.95 -176.65 104.6 -136.2 M33.3 -51.3 L48.9 -53.4 Q48.35 -55.55 48.2 -58.15 47.95 -60.55 48.05 -74.5 L48.05 -76.7 Q48.15 -95.25 48.6 -101.4 49.9 -118.65 55.2 -128.1 62.9 -141.75 79.45 -141.05 101.1 -140.1 118.2 -108.45 124.1 -97.55 128.3 -85.0 L130.0 -79.8 Q128.35 -90.0 123.45 -101.35 115.7 -119.3 102.1 -134.35 79.95 -158.45 47.0 -170.15 L47.4 -170.7 47.0 -170.15 40.0 -172.45 33.1 -159.5 Q28.2 -150.35 26.45 -144.7 24.65 -139.1 22.1 -129.25 L18.05 -113.95 Q14.5 -101.95 13.55 -82.85 L13.15 -74.5 11.95 -55.1 Q15.65 -54.3 17.0 -51.9 17.55 -50.8 17.7 -49.35 L33.3 -51.3 Q35.3 -49.1 37.35 -48.35 35.3 -49.1 33.3 -51.3 M68.3 -46.35 Q75.1 -50.25 78.05 -52.95 L80.05 -55.1 72.5 -53.65 65.75 -52.5 59.95 -51.6 40.75 -48.8 37.35 -48.35 19.35 -46.9 17.8 -47.05 17.9 -43.05 17.9 -38.55 17.55 -30.55 21.55 -30.6 23.1 -30.65 Q35.65 -30.2 56.55 -40.3 63.4 -43.65 68.3 -46.35 M10.8 -178.75 L8.4 -179.1 8.2 -178.7 7.6 -179.25 0.95 -179.9 Q-6.75 -167.65 -12.05 -151.35 -15.4 -140.8 -19.75 -120.9 -21.1 -114.65 -24.45 -90.0 L-26.4 -74.5 Q-27.9 -62.75 -27.7 -60.0 -27.3 -56.6 -27.35 -55.3 -27.3 -53.75 -27.85 -51.65 L-18.35 -51.05 -16.75 -51.0 Q-15.9 -54.5 -13.05 -55.45 -11.1 -56.1 -1.4 -55.75 L-1.45 -55.3 Q-1.4 -55.0 -0.4 -55.0 L1.5 -55.1 7.9 -55.45 10.8 -55.35 Q10.15 -64.8 10.65 -74.5 11.55 -94.6 16.75 -115.5 L20.65 -130.9 Q23.15 -140.55 25.0 -146.35 30.3 -162.55 39.4 -172.55 25.95 -176.7 10.8 -178.75 M14.35 -50.65 L14.25 -51.55 3.45 -52.3 3.0 -52.35 -2.45 -52.2 -2.4 -52.6 Q-11.7 -52.9 -12.55 -52.45 -13.5 -51.85 -13.85 -49.9 L-14.55 -44.2 -14.5 -43.15 -14.4 -34.25 -14.5 -31.25 -11.4 -31.1 Q1.35 -30.5 15.05 -30.5 L14.95 -42.95 14.6 -47.6 14.35 -50.65 M-121.65 -1.75 Q-107.35 1.3 -86.7 1.95 L-72.85 2.7 -70.1 2.85 Q-17.5 5.05 58.7 -21.7 82.8 -30.1 102.7 -38.75 L94.05 -36.85 Q85.55 -34.55 70.15 -31.9 56.4 -29.6 43.65 -28.45 L26.55 -27.4 20.45 -26.35 19.65 -26.45 19.5 -25.75 18.95 -26.7 18.7 -27.35 Q3.0 -27.2 -11.55 -27.85 -48.1 -29.5 -77.8 -36.35 L-81.75 -37.25 Q-93.25 -40.1 -101.7 -43.35 L-104.05 -44.2 Q-110.1 -46.7 -111.15 -48.0 L-115.85 -50.65 Q-118.25 -51.75 -119.75 -52.8 -121.65 -54.0 -122.3 -55.1 L-122.5 -55.45 -125.1 -54.85 Q-134.0 -52.35 -144.85 -42.25 -154.25 -33.45 -153.65 -24.3 -153.25 -19.05 -149.55 -14.75 -146.8 -11.65 -142.3 -9.05 -134.5 -4.4 -121.65 -1.75 M134.15 -63.6 L134.15 -67.1 134.0 -69.3 94.2 -60.95 Q88.75 -59.9 84.35 -55.0 L77.0 -47.25 Q65.45 -38.85 53.2 -34.25 L49.55 -32.95 62.35 -34.8 64.5 -35.1 88.75 -39.15 Q97.55 -40.9 110.5 -44.45 L116.3 -46.05 116.55 -46.05 Q119.45 -45.9 122.75 -46.7 123.95 -48.05 127.6 -49.55 133.55 -51.9 133.8 -55.1 L134.15 -63.6 M-57.3 -113.45 L-50.05 -112.4 Q-30.9 -109.3 -30.75 -107.65 L-30.75 -107.45 Q-30.2 -107.0 -30.15 -106.1 L-33.75 -95.1 Q-37.65 -83.25 -38.7 -77.25 L-39.05 -74.5 -41.35 -60.25 Q-42.15 -55.65 -42.9 -53.05 L-29.5 -51.75 -29.45 -51.75 -27.95 -74.5 -26.85 -88.25 Q-26.3 -94.35 -22.8 -111.3 -19.6 -127.25 -19.7 -128.1 -20.3 -137.75 -11.8 -158.15 -4.85 -174.85 0.1 -180.0 L-12.9 -179.8 -18.4 -179.8 Q-36.8 -179.55 -52.05 -174.95 -62.2 -171.9 -70.95 -167.0 -85.75 -146.05 -92.3 -117.85 -94.95 -106.7 -96.95 -91.3 L-98.95 -74.5 -99.9 -67.15 -88.8 -63.1 -88.95 -63.85 -89.3 -68.95 -89.7 -74.5 -90.1 -80.4 Q-90.15 -85.0 -89.2 -94.5 -88.95 -96.9 -87.95 -101.0 L-86.6 -107.25 -86.35 -108.55 -86.6 -109.45 Q-86.6 -109.95 -85.2 -110.7 L-84.75 -111.1 -84.5 -111.1 -82.25 -112.2 -80.45 -113.0 Q-74.45 -115.3 -73.2 -115.3 L-57.3 -113.45 M-46.65 -100.3 L-46.65 -100.45 -47.95 -100.7 -57.9 -101.3 -61.0 -101.65 Q-69.85 -102.85 -75.25 -104.5 L-83.1 -107.2 -83.55 -107.4 Q-83.7 -106.75 -84.0 -106.75 -84.1 -103.05 -85.9 -92.05 -87.4 -82.35 -87.05 -77.5 L-86.95 -76.95 -86.75 -74.5 -85.85 -61.95 -83.8 -61.4 -81.15 -61.1 -80.75 -61.1 -80.85 -60.75 -68.85 -57.45 -66.5 -56.85 Q-59.1 -55.1 -48.1 -53.65 L-47.95 -63.2 Q-48.15 -66.65 -47.75 -74.5 L-47.35 -82.0 Q-46.5 -95.25 -46.65 -100.3 M-73.4 -112.55 Q-74.35 -112.6 -79.65 -110.2 -67.45 -106.05 -60.15 -104.6 L-58.1 -104.25 -47.5 -103.7 -45.15 -103.5 Q-43.35 -105.0 -38.45 -106.75 L-37.8 -107.0 Q-43.0 -107.75 -49.8 -109.35 L-58.15 -111.05 -73.4 -112.55 M-34.3 -103.9 L-39.6 -102.05 -43.6 -100.55 -44.0 -89.1 -44.6 -76.6 -44.7 -74.5 -45.15 -63.75 -42.6 -74.5 -41.55 -78.85 Q-36.95 -96.85 -34.3 -103.9 M-84.0 -157.9 Q-94.65 -149.05 -102.7 -136.6 -112.65 -121.15 -117.3 -102.05 -120.3 -89.45 -120.2 -80.4 L-118.75 -79.25 -117.25 -77.8 Q-115.95 -76.25 -115.1 -74.5 -114.35 -72.9 -114.05 -71.2 -111.05 -71.05 -102.35 -68.05 L-101.15 -67.6 -101.15 -68.0 Q-101.35 -70.8 -101.15 -74.5 -100.85 -81.85 -99.15 -92.25 -96.65 -108.1 -92.0 -124.35 -83.65 -153.55 -74.8 -164.65 -79.65 -161.6 -84.0 -157.9 M-117.55 -74.5 L-117.75 -74.75 Q-118.4 -75.7 -119.8 -76.55 L-120.1 -76.75 -120.15 -74.5 -120.3 -69.25 -120.3 -59.55 Q-120.2 -58.75 -119.55 -57.9 -118.25 -56.05 -114.8 -53.7 L-114.9 -54.45 -116.05 -64.0 -116.35 -66.2 -116.95 -72.55 Q-116.9 -73.6 -117.55 -74.5 M-17.2 -43.05 L-17.1 -47.3 -17.15 -48.05 -18.15 -48.4 -29.55 -48.8 -44.1 -50.35 Q-44.5 -49.8 -44.9 -49.85 -45.5 -49.85 -45.95 -50.5 -58.55 -52.15 -66.45 -53.9 L-69.0 -54.45 -74.25 -55.75 -83.7 -58.3 -87.9 -59.5 Q-108.4 -65.75 -113.75 -68.75 L-113.05 -63.1 -112.5 -58.05 -112.45 -54.0 -112.65 -52.4 Q-111.25 -51.4 -109.55 -50.5 L-108.45 -49.8 Q-107.35 -49.65 -105.9 -48.9 -101.75 -46.55 -99.95 -45.75 -97.45 -44.65 -95.9 -44.65 L-96.3 -44.45 -89.6 -42.65 Q-83.1 -40.8 -78.5 -39.7 L-74.55 -38.85 Q-58.8 -35.3 -40.1 -33.25 L-17.7 -31.35 -17.4 -37.7 -17.2 -43.05" fill="#a38409" fill-rule="evenodd" stroke="none"/>
      <path d="M33.3 -51.3 Q35.3 -49.1 37.35 -48.35 L41.1 -48.2 41.9 -48.2 M47.4 -170.7 L47.0 -170.15 M33.3 -51.3 L31.15 -54.1 Q26.1 -61.7 26.1 -72.3 26.1 -103.5 31.5 -129.25 37.05 -155.7 47.0 -170.15" fill="none" stroke="#6f5a3c" stroke-linecap="round" stroke-linejoin="round" stroke-width="1.0"/>
    </g>
  </defs>
</svg>
