<?xml version="1.0" encoding="UTF-8" standalone="no"?>
<svg xmlns:xlink="http://www.w3.org/1999/xlink" height="159.05px" width="110.75px" xmlns="http://www.w3.org/2000/svg">
  <g transform="matrix(1.0, 0.0, 0.0, 1.0, 45.35, 82.6)">
    <use height="12.35" transform="matrix(1.0929, 0.0, 0.0, 1.0, -35.5907, 62.65)" width="73.0" xlink:href="#sprite0"/>
    <use height="55.65" transform="matrix(0.8436, 0.3294, -0.2905, 0.7952, -12.1039, -3.6078)" width="25.2" xlink:href="#sprite1"/>
    <use height="23.55" transform="matrix(0.8839, -0.4568, 0.5479, 0.8017, -10.7992, 35.2511)" width="22.25" xlink:href="#sprite2"/>
    <use height="18.5" transform="matrix(0.8716, -0.6295, 0.5638, 0.5142, -2.1644, 49.9261)" width="11.75" xlink:href="#shape3"/>
    <use height="11.75" transform="matrix(0.8457, -1.0502, 1.2564, 0.5408, -7.0976, 68.1767)" width="26.15" xlink:href="#shape4"/>
    <use height="23.55" transform="matrix(1.0428, 0.199, -0.0687, 1.0343, 1.5326, 24.4881)" width="22.25" xlink:href="#sprite2"/>
    <use height="18.5" transform="matrix(1.0888, 0.2981, -0.0828, 0.8176, -1.1031, 40.4938)" width="11.75" xlink:href="#shape3"/>
    <use height="11.75" transform="matrix(1.3611, 0.643, -0.1867, 1.5678, -20.8618, 37.0792)" width="26.15" xlink:href="#shape4"/>
    <use height="55.85" transform="matrix(1.0638, 0.0, -0.0544, 1.1118, -16.7327, -16.1684)" width="47.0" xlink:href="#sprite3"/>
    <use height="55.65" transform="matrix(1.143, -0.2856, 0.3038, 1.0553, 5.2035, -7.189)" width="25.2" xlink:href="#sprite1"/>
    <use height="257.6" transform="matrix(0.3086, 0.0, 0.0, 0.2989, -42.2742, -66.8989)" width="232.2" xlink:href="#shape6"/>
    <use height="288.45" transform="matrix(0.3086, 0.0, 0.0, 0.2989, -43.1826, -73.702)" width="269.2" xlink:href="#shape7"/>
    <use height="49.85" transform="matrix(0.3086, 0.0, 0.0, 0.2989, 9.145, -23.8427)" width="46.75" xlink:href="#shape8"/>
    <use height="55.75" transform="matrix(0.2827, 0.0, 0.0, 0.2555, -35.5892, -20.0616)" width="129.25" xlink:href="#shape9"/>
    <use height="40.0" transform="matrix(0.3307, 0.0, 0.0, 0.2989, -36.1716, -29.7778)" width="112.35" xlink:href="#shape10"/>
    <use height="25.65" transform="matrix(0.3307, 0.0, 0.0, 0.2989, -35.6787, -28.6258)" width="93.9" xlink:href="#shape11"/>
    <use height="38.65" transform="matrix(0.3307, 0.0, 0.0, 0.2261, -39.9987, -31.6638)" width="130.05" xlink:href="#shape12"/>
  </g>
  <defs>
    <g id="sprite0" transform="matrix(1.0, 0.0, 0.0, 1.0, 36.5, 6.15)">
      <use height="12.35" transform="matrix(1.0, 0.0, 0.0, 1.0, -36.5, -6.15)" width="73.0" xlink:href="#shape0"/>
    </g>
    <g id="shape0" transform="matrix(1.0, 0.0, 0.0, 1.0, 36.5, 6.15)">
      <path d="M25.85 -4.3 Q36.5 -2.5 36.5 0.05 36.5 2.55 25.85 4.4 15.1 6.2 0.0 6.2 -15.15 6.2 -25.85 4.4 -36.5 2.55 -36.5 0.05 -36.5 -2.5 -25.85 -4.3 -15.15 -6.15 0.0 -6.15 15.1 -6.15 25.85 -4.3" fill="#000000" fill-opacity="0.2509804" fill-rule="evenodd" stroke="none"/>
    </g>
    <g id="sprite1" transform="matrix(1.0, 0.0, 0.0, 1.0, 12.6, 27.8)">
      <use height="55.65" transform="matrix(1.0, 0.0, 0.0, 1.0, -12.6, -27.8)" width="25.2" xlink:href="#shape1"/>
    </g>
    <g id="shape1" transform="matrix(1.0, 0.0, 0.0, 1.0, 12.6, 27.8)">
      <path d="M-6.05 -25.7 Q-5.15 -26.3 -4.05 -26.3 -3.05 -26.3 -0.65 -24.3 0.7 -22.8 2.05 -20.2 3.8 -16.9 7.1 -8.15 8.45 -4.5 9.15 1.1 L9.55 4.55 9.45 4.4 9.45 4.95 Q9.6 7.75 10.05 10.75 L10.2 12.0 Q9.6 12.4 9.15 13.15 8.4 14.05 8.4 14.25 L8.45 14.6 Q7.95 14.7 7.1 16.65 L7.1 16.55 6.8 16.15 Q6.2 16.85 5.25 20.55 L5.35 20.9 5.15 22.0 5.15 23.15 5.25 23.25 5.1 24.8 Q4.65 26.45 3.2 26.45 L2.65 26.45 2.95 24.65 3.5 20.25 3.7 18.05 3.85 16.05 3.85 15.4 Q5.05 15.15 5.75 13.85 L6.45 12.05 5.55 12.8 4.7 13.6 3.15 14.1 Q2.05 14.35 1.8 14.95 L2.25 15.25 0.85 16.7 0.75 16.85 0.8 16.55 Q-0.2 17.35 -1.3 19.2 L-2.65 21.1 -3.8 22.9 -4.7 23.6 -4.95 23.6 -5.5 23.55 -5.4 23.5 -5.15 22.85 -4.4 21.5 -4.3 21.2 -4.25 20.85 Q-4.05 20.85 -4.15 20.5 -2.65 17.0 -2.65 15.8 L-2.5 15.35 -2.25 15.35 -1.6 15.1 -1.2 14.5 Q-3.4 13.6 -3.75 13.75 L-3.75 13.9 -4.0 13.6 -4.15 13.6 -4.15 12.75 -3.6 13.0 -3.25 13.35 -2.8 13.45 -1.85 13.75 0.7 12.6 0.8 12.6 1.35 12.75 Q2.0 12.75 2.0 12.1 L2.3 6.25 2.6 -0.2 Q2.6 -4.2 2.25 -7.9 L1.55 -11.6 0.75 -15.0 Q0.1 -18.1 -2.25 -21.75 -4.35 -24.95 -6.05 -25.7 M8.65 14.7 L9.15 14.75 Q9.5 14.75 10.25 13.6 L10.35 13.55 10.35 13.85 10.85 17.45 11.35 20.7 Q10.5 22.25 9.9 22.25 L9.85 22.25 9.85 22.05 9.35 18.2 8.65 14.7" fill="#b2916f" fill-rule="evenodd" stroke="none"/>
      <path d="M-7.5 -18.95 L-7.65 -19.25 -8.75 -20.4 -9.1 -19.9 -8.55 -21.95 Q-8.0 -23.6 -7.25 -24.55 L-6.05 -25.7 Q-4.35 -24.95 -2.25 -21.75 0.1 -18.1 0.75 -15.0 L1.55 -11.6 2.25 -7.9 Q2.6 -4.2 2.6 -0.2 L2.3 6.25 2.0 12.1 Q2.0 12.75 1.35 12.75 L0.8 12.6 0.7 12.6 -1.85 13.75 -2.8 13.45 -3.25 13.35 -3.6 13.0 -4.15 12.75 -4.15 13.6 -4.0 13.6 -3.75 13.9 -3.85 14.2 -3.45 14.8 -2.5 15.35 -2.65 15.8 Q-2.65 17.0 -4.15 20.5 -4.05 20.85 -4.25 20.85 L-4.3 21.2 -4.4 21.5 -5.15 22.85 -5.4 23.5 -5.5 23.55 -6.65 22.8 -7.15 21.5 -5.7 15.75 Q-4.9 13.4 -4.9 12.4 -4.9 11.1 -6.2 11.1 -7.1 11.1 -9.1 12.3 L-11.3 13.75 -11.3 13.65 -11.3 13.55 -11.55 13.0 -11.55 12.85 -11.55 12.7 -11.45 12.55 -10.0 11.35 -8.75 10.5 -7.8 9.65 -7.15 9.0 -4.95 7.15 -2.65 4.5 Q-4.5 4.6 -5.15 5.0 L-5.25 4.0 -4.75 0.0 Q-4.25 -3.2 -4.25 -6.7 -4.25 -10.55 -4.9 -13.2 -5.4 -15.2 -7.15 -19.75 L-7.4 -19.45 -7.45 -19.7 -7.55 -19.65 -7.5 -18.95" fill="#b89876" fill-rule="evenodd" stroke="none"/>
      <path d="M-9.1 -19.9 L-9.4 -18.4 -9.4 -19.3 -9.4 -20.4 Q-9.3 -22.85 -8.4 -24.45 L-6.9 -26.8 -6.7 -27.0 Q-4.65 -28.5 -2.05 -27.2 L-0.6 -26.35 -0.35 -26.05 1.15 -24.05 Q3.85 -20.1 5.75 -15.0 L9.8 -2.9 Q10.65 0.9 10.7 7.2 L10.85 8.3 11.35 12.5 12.6 20.7 Q12.6 21.35 11.95 22.25 11.1 23.45 9.85 23.45 L9.75 23.45 Q8.15 23.4 7.35 22.05 L6.6 20.2 Q6.3 21.7 6.15 23.45 L6.0 25.2 5.95 25.85 Q5.55 27.5 3.4 27.65 L3.2 27.65 3.4 27.75 Q3.2 27.95 2.35 27.75 L2.3 27.75 Q1.2 27.5 0.45 26.9 0.0 26.6 -0.15 25.8 L-0.4 23.5 -0.4 23.15 -0.35 22.7 -0.35 22.35 -0.15 21.5 -0.15 20.25 -0.4 20.1 -2.2 22.65 -2.65 23.75 -2.75 23.85 -3.1 24.3 -3.65 24.6 -4.85 24.8 -4.9 24.8 -5.75 24.75 Q-8.25 24.35 -8.25 21.45 L-7.75 19.25 Q-7.3 17.95 -7.3 17.05 L-6.7 14.7 Q-6.7 14.35 -6.85 14.2 L-8.55 15.35 Q-9.3 15.95 -10.65 15.95 -11.4 15.95 -11.9 15.25 L-12.2 14.75 -12.3 14.4 -12.6 12.8 Q-12.6 11.6 -10.6 10.1 -8.35 8.5 -8.05 7.4 L-7.4 4.7 Q-7.05 3.15 -7.05 2.0 L-6.45 -2.4 -6.4 -3.0 -6.4 -3.15 Q-6.05 -7.0 -6.05 -8.9 L-6.25 -12.15 -6.55 -13.6 -6.6 -13.85 -6.65 -14.15 -6.65 -14.2 -7.1 -15.9 -7.1 -16.1 -7.5 -18.95 -7.55 -19.65 -7.45 -19.7 -7.4 -19.45 -6.9 -17.65 -6.7 -16.9 -6.15 -15.2 -5.3 -12.7 -5.15 -11.55 -4.95 -8.95 Q-4.95 -7.55 -5.3 -3.65 L-5.35 -3.0 -5.35 -2.9 -5.45 -2.45 -5.95 2.0 Q-6.25 4.85 -6.65 6.5 L-5.15 5.35 -5.05 5.55 Q-5.05 5.95 -6.25 7.45 -7.55 9.0 -7.95 9.0 L-8.65 9.65 -10.9 11.5 Q-11.4 11.95 -11.55 12.7 L-11.55 12.85 -11.55 13.0 -11.3 13.55 -11.3 13.65 -11.3 13.75 -11.25 13.85 Q-10.9 14.75 -10.6 14.75 -9.85 14.75 -8.65 13.9 -7.45 13.1 -6.85 13.1 -5.15 13.1 -5.55 14.55 L-5.7 15.75 -7.15 21.5 -6.65 22.8 -5.5 23.55 -4.95 23.6 -4.7 23.6 -3.8 22.9 -2.65 21.1 -1.3 19.2 Q-0.2 17.35 0.8 16.55 L0.75 16.85 0.1 18.65 Q0.75 18.9 1.0 20.05 L0.9 21.6 0.9 21.7 0.75 23.5 Q0.75 25.05 0.9 25.4 1.3 26.3 2.65 26.45 L3.2 26.45 Q4.65 26.45 5.1 24.8 L5.25 23.25 5.15 23.15 5.15 22.0 5.35 20.9 5.25 20.55 Q6.2 16.85 6.8 16.15 L7.1 16.55 7.1 16.65 7.1 16.7 6.6 18.85 Q7.7 18.95 8.3 20.5 8.95 22.2 9.85 22.25 L9.9 22.25 Q10.5 22.25 11.35 20.7 L10.85 17.45 10.35 13.85 10.35 13.55 10.25 13.6 Q9.5 14.75 9.15 14.75 L8.65 14.7 8.45 14.7 8.45 14.6 8.4 14.25 Q8.4 14.05 9.15 13.15 9.6 12.4 10.2 12.0 L10.05 10.75 Q9.6 7.75 9.45 4.95 L9.45 4.4 9.55 4.55 9.15 1.1 Q8.45 -4.5 7.1 -8.15 3.8 -16.9 2.05 -20.2 0.7 -22.8 -0.65 -24.3 -3.05 -26.3 -4.05 -26.3 -5.15 -26.3 -6.05 -25.7 L-7.25 -24.55 Q-8.0 -23.6 -8.55 -21.95 L-9.1 -19.9 M-3.75 13.9 L-3.75 13.75 Q-3.4 13.6 -1.2 14.5 L-1.6 15.1 -2.25 15.35 -2.5 15.35 -3.45 14.8 -3.85 14.2 -3.75 13.9 M3.85 15.4 L3.3 15.45 2.25 15.25 1.8 14.95 Q2.05 14.35 3.15 14.1 L4.7 13.6 5.55 12.8 6.45 12.05 5.75 13.85 Q5.05 15.15 3.85 15.4" fill="#62574b" fill-rule="evenodd" stroke="none"/>
      <path d="M-11.55 12.7 Q-11.4 11.95 -10.9 11.5 L-8.65 9.65 -7.95 9.0 Q-7.55 9.0 -6.25 7.45 -5.05 5.95 -5.05 5.55 L-5.15 5.35 -6.65 6.5 Q-6.25 4.85 -5.95 2.0 L-5.45 -2.45 -5.35 -2.9 -5.35 -3.0 -5.3 -3.65 Q-4.95 -7.55 -4.95 -8.95 L-5.15 -11.55 -5.3 -12.7 -6.15 -15.2 -6.7 -16.9 -6.9 -17.65 -7.4 -19.45 -7.15 -19.75 Q-5.4 -15.2 -4.9 -13.2 -4.25 -10.55 -4.25 -6.7 -4.25 -3.2 -4.75 0.0 L-5.25 4.0 -5.15 5.0 Q-4.5 4.6 -2.65 4.5 L-4.95 7.15 -7.15 9.0 -7.8 9.65 -8.75 10.5 -10.0 11.35 -11.45 12.55 -11.55 12.7" fill="#c09d78" fill-rule="evenodd" stroke="none"/>
      <path d="M8.45 14.6 L8.45 14.7 8.65 14.7 9.35 18.2 9.85 22.05 9.85 22.25 Q8.95 22.2 8.3 20.5 7.7 18.95 6.6 18.85 L7.1 16.7 7.1 16.65 Q7.95 14.7 8.45 14.6 M2.65 26.45 Q1.3 26.3 0.9 25.4 0.75 25.05 0.75 23.5 L0.9 21.7 0.9 21.6 1.0 20.05 Q0.75 18.9 0.1 18.65 L0.75 16.85 0.85 16.7 2.25 15.25 3.3 15.45 3.85 15.4 3.85 16.05 3.7 18.05 3.5 20.25 2.95 24.65 2.65 26.45 M-5.7 15.75 L-5.55 14.55 Q-5.15 13.1 -6.85 13.1 -7.45 13.1 -8.65 13.9 -9.85 14.75 -10.6 14.75 -10.9 14.75 -11.25 13.85 L-11.3 13.75 -9.1 12.3 Q-7.1 11.1 -6.2 11.1 -4.9 11.1 -4.9 12.4 -4.9 13.4 -5.7 15.75" fill="#9c8063" fill-rule="evenodd" stroke="none"/>
    </g>
    <g id="sprite2" transform="matrix(1.0, 0.0, 0.0, 1.0, 11.1, 11.75)">
      <use height="23.55" transform="matrix(1.0, 0.0, 0.0, 1.0, -11.1, -11.75)" width="22.25" xlink:href="#shape2"/>
    </g>
    <g id="shape2" transform="matrix(1.0, 0.0, 0.0, 1.0, 11.1, 11.75)">
      <path d="M2.3 -10.75 Q5.6 -11.5 8.15 -9.0 10.2 -6.95 10.2 -5.45 10.2 -3.0 9.05 -1.4 L4.85 3.15 Q-3.5 10.8 -6.25 10.8 -7.6 10.8 -8.9 9.7 -10.1 8.65 -10.1 7.85 -10.1 7.25 -7.8 2.2 -5.4 -3.05 -4.2 -4.9 -3.4 -6.8 -1.9 -8.3 -0.05 -10.25 2.3 -10.75" fill="#af9170" fill-rule="evenodd" stroke="none"/>
      <path d="M2.3 -10.75 Q-0.05 -10.25 -1.9 -8.3 -3.4 -6.8 -4.2 -4.9 -5.4 -3.05 -7.8 2.2 -10.1 7.25 -10.1 7.85 -10.1 8.65 -8.9 9.7 -7.6 10.8 -6.25 10.8 -3.5 10.8 4.85 3.15 L9.05 -1.4 Q10.2 -3.0 10.2 -5.45 10.2 -6.95 8.15 -9.0 5.6 -11.5 2.3 -10.75 M9.45 -8.95 Q11.15 -7.15 11.15 -5.35 11.15 -2.95 9.9 -1.0 8.75 0.85 5.45 3.85 L0.3 8.25 Q-4.3 11.8 -6.25 11.8 -8.3 11.8 -9.85 10.2 -11.1 8.9 -11.1 8.2 -11.1 6.65 -8.15 0.5 L-4.95 -5.7 Q-1.1 -13.15 5.25 -11.45 7.7 -10.8 9.45 -8.95" fill="#5d5347" fill-rule="evenodd" stroke="none"/>
    </g>
    <g id="shape3" transform="matrix(1.0, 0.0, 0.0, 1.0, 5.85, 9.25)">
      <path d="M-3.45 -8.1 Q-2.25 -9.25 -0.6 -9.25 L2.25 -8.45 Q4.25 -7.75 4.8 -7.25 2.4 -6.05 2.4 -4.35 2.4 -3.6 3.55 -2.35 4.65 -1.1 4.65 0.5 4.65 1.75 2.9 4.3 1.15 6.85 1.15 8.15 L1.2 8.4 0.85 8.7 Q0.25 9.25 -0.3 9.25 L-1.9 8.85 -1.9 8.2 Q-1.9 4.25 -3.45 -0.3 -5.05 -4.15 -5.05 -4.65 L-4.25 -6.4 -3.5 -7.75 -3.45 -8.1 M-4.4 -4.8 L-4.7 -4.3 -4.25 -3.65 Q-3.65 -3.05 -2.7 -3.05 -1.45 -3.05 -0.9 -3.45 L-0.95 -3.55 -1.15 -3.65 -3.35 -3.65 -4.4 -4.8" fill="#af9170" fill-rule="evenodd" stroke="none"/>
      <path d="M-1.9 8.85 Q-1.95 9.25 -2.35 9.25 L-2.8 7.8 -3.0 6.55 -3.7 2.25 Q-4.05 0.55 -5.05 -1.5 -5.85 -3.0 -5.85 -4.65 L-5.65 -5.55 -4.7 -7.45 Q-3.7 -9.25 -3.45 -9.25 L-3.35 -8.8 -3.45 -8.1 -3.5 -7.75 -4.25 -6.4 -5.05 -4.65 Q-5.05 -4.15 -3.45 -0.3 -1.9 4.25 -1.9 8.2 L-1.9 8.85 M4.8 -7.25 L5.9 -7.75 4.6 -6.3 Q3.35 -4.75 3.35 -4.4 L4.5 -2.65 Q5.6 -1.05 5.6 0.55 5.6 2.1 3.85 4.7 2.75 6.35 2.35 7.55 2.1 8.2 2.1 8.75 2.1 9.15 1.7 9.15 L1.3 8.7 1.2 8.4 1.15 8.15 Q1.15 6.85 2.9 4.3 4.65 1.75 4.65 0.5 4.65 -1.1 3.55 -2.35 2.4 -3.6 2.4 -4.35 2.4 -6.05 4.8 -7.25 M-4.4 -4.8 L-3.35 -3.65 -1.15 -3.65 -0.95 -3.55 -0.9 -3.45 Q-1.45 -3.05 -2.7 -3.05 -3.65 -3.05 -4.25 -3.65 L-4.7 -4.3 -4.4 -4.8" fill="#5d5347" fill-rule="evenodd" stroke="none"/>
    </g>
    <g id="shape4" transform="matrix(1.0, 0.0, 0.0, 1.0, 13.05, 3.75)">
      <path d="M4.8 -2.3 L5.1 -2.4 5.9 -2.6 5.85 -2.6 6.15 -2.65 6.6 -2.75 7.6 -2.7 8.4 -2.6 8.8 -2.05 9.15 -1.55 9.45 -1.25 10.05 -0.5 10.5 -0.1 10.6 0.05 Q12.2 2.15 12.2 3.25 12.2 4.25 11.7 5.0 10.65 6.55 7.8 6.55 L6.15 6.15 2.85 5.8 2.5 5.8 1.3 5.65 2.8 5.25 4.05 5.1 1.65 5.0 Q0.4 5.45 -0.1 6.1 L-0.5 6.35 Q-1.4 7.05 -2.05 7.05 L-3.2 6.75 Q-4.0 6.65 -4.4 5.85 L-4.45 5.7 -4.7 5.25 -4.65 5.1 -4.55 5.1 -4.0 4.9 -3.25 4.65 -1.75 4.85 -1.55 4.65 -1.6 4.6 Q-2.1 4.2 -3.55 4.25 L-4.3 4.35 -3.7 3.45 -3.55 3.25 -3.35 3.05 Q-1.65 1.4 -0.05 1.4 L1.45 2.05 3.05 2.7 3.7 2.35 Q3.5 1.7 2.6 1.35 L1.15 0.75 -0.25 0.35 0.3 -0.05 0.25 -0.15 0.4 -0.2 0.7 -0.2 2.35 -0.6 2.9 -0.8 3.1 -0.9 4.45 -1.95 4.8 -2.3 M-3.25 1.6 L-4.85 2.95 Q-5.75 4.05 -5.75 4.95 -5.75 5.5 -5.2 6.25 L-5.25 6.25 -6.1 6.6 -6.65 6.5 -6.75 6.5 Q-7.45 6.5 -8.0 5.85 L-8.45 5.05 -6.7 4.9 -8.45 4.5 -7.5 2.9 Q-6.25 1.15 -5.15 1.15 L-4.55 1.4 -3.5 1.6 -3.45 1.6 -3.3 1.6 -3.25 1.6 M-7.45 1.5 L-7.55 1.6 -9.0 3.2 Q-9.55 3.9 -9.55 4.7 -9.55 5.45 -8.65 6.4 L-8.3 6.75 -9.25 6.9 -9.65 6.85 -9.8 6.85 Q-10.35 6.85 -11.05 6.15 L-11.95 5.3 -9.95 4.6 -10.8 4.4 -11.85 4.6 -11.65 4.25 -10.85 3.15 Q-9.45 1.5 -7.85 1.5 L-7.45 1.5" fill="#af9170" fill-rule="evenodd" stroke="none"/>
      <path d="M8.4 -2.6 Q8.15 -3.1 8.2 -3.75 8.45 -3.1 8.9 -2.8 L10.75 -1.3 11.05 -1.05 11.55 -0.4 Q13.1 1.6 13.1 3.2 13.1 4.6 12.65 5.45 12.0 6.75 10.15 7.5 L8.55 7.5 4.7 7.05 3.3 6.85 3.3 6.9 1.15 6.65 Q0.8 6.65 0.0 7.35 -0.75 8.0 -1.75 8.0 -3.45 8.0 -4.6 6.95 L-5.95 7.6 -7.55 7.25 Q-8.35 7.85 -9.15 7.85 -11.0 7.85 -12.2 6.5 L-13.05 5.0 Q-13.05 4.45 -11.75 2.75 -10.25 0.75 -9.0 0.75 L-6.85 0.9 Q-6.15 0.3 -5.5 0.2 L-4.05 0.25 -2.85 0.55 -2.25 0.35 -1.95 0.2 -1.85 0.2 -1.8 0.15 -0.9 -0.4 0.2 -0.8 0.4 -0.75 0.85 -0.85 2.05 -1.0 Q3.0 -1.3 4.2 -2.0 L4.55 -2.25 4.7 -2.3 4.8 -2.3 4.45 -1.95 3.1 -0.9 2.9 -0.8 2.35 -0.6 0.7 -0.2 0.4 -0.2 0.25 -0.15 0.3 -0.05 -0.25 0.35 1.15 0.75 2.6 1.35 Q3.5 1.7 3.7 2.35 L3.05 2.7 1.45 2.05 -0.05 1.4 Q-1.65 1.4 -3.35 3.05 L-3.55 3.25 -3.7 3.45 -4.3 4.35 -3.55 4.25 Q-2.1 4.2 -1.6 4.6 L-1.55 4.65 -1.75 4.85 -3.25 4.65 -4.0 4.9 -4.55 5.1 -4.65 5.1 -4.7 5.25 -4.45 5.7 -4.4 5.85 Q-4.0 6.65 -3.2 6.75 L-2.05 7.05 Q-1.4 7.05 -0.5 6.35 L-0.1 6.1 Q0.4 5.45 1.65 5.0 L4.05 5.1 2.8 5.25 1.3 5.65 2.5 5.8 2.85 5.8 6.15 6.15 7.8 6.55 Q10.65 6.55 11.7 5.0 12.2 4.25 12.2 3.25 12.2 2.15 10.6 0.05 L10.5 -0.1 10.05 -0.5 9.45 -1.25 9.15 -1.55 8.8 -2.05 8.4 -2.6 M-3.3 1.6 L-3.45 1.6 -3.5 1.6 -4.55 1.4 -5.15 1.15 Q-6.25 1.15 -7.5 2.9 L-8.45 4.5 -6.7 4.9 -8.45 5.05 -8.0 5.85 Q-7.45 6.5 -6.75 6.5 L-6.65 6.5 -6.1 6.6 -5.25 6.25 -5.2 6.25 Q-5.75 5.5 -5.75 4.95 -5.75 4.05 -4.85 2.95 L-3.25 1.6 -3.2 1.6 -3.3 1.6 M-7.45 1.5 L-7.85 1.5 Q-9.45 1.5 -10.85 3.15 L-11.65 4.25 -11.85 4.6 -10.8 4.4 -9.95 4.6 -11.95 5.3 -11.05 6.15 Q-10.35 6.85 -9.8 6.85 L-9.65 6.85 -9.25 6.9 -8.3 6.75 -8.65 6.4 Q-9.55 5.45 -9.55 4.7 -9.55 3.9 -9.0 3.2 L-7.55 1.6 -7.45 1.5" fill="#5d5347" fill-rule="evenodd" stroke="none"/>
    </g>
    <g id="sprite3" transform="matrix(1.0, 0.0, 0.0, 1.0, 23.5, 27.9)">
      <use height="55.85" transform="matrix(1.0, 0.0, 0.0, 1.0, -23.5, -27.9)" width="47.0" xlink:href="#shape5"/>
    </g>
    <g id="shape5" transform="matrix(1.0, 0.0, 0.0, 1.0, 23.5, 27.9)">
      <path d="M7.35 -17.3 L9.25 -21.45 11.35 -19.5 Q13.15 -17.8 14.45 -15.6 L16.65 -11.6 16.9 -11.15 18.2 -7.85 18.1 -6.9 18.3 -4.35 18.25 -3.7 17.75 -1.55 17.4 0.55 17.35 0.7 17.45 0.9 17.45 0.95 17.4 1.0 17.4 1.05 15.0 -0.1 14.95 0.05 14.3 0.85 14.05 1.1 13.05 2.25 7.4 1.5 6.3 0.65 6.4 0.65 6.9 0.55 7.6 -0.9 8.05 -2.35 Q8.4 -2.35 8.4 -3.65 L8.15 -6.0 8.05 -6.55 8.05 -8.6 Q8.4 -10.7 8.65 -11.2 9.05 -12.4 9.75 -13.55 L9.3 -14.5 Q8.7 -15.7 7.35 -17.3" fill="#b69571" fill-rule="evenodd" stroke="none"/>
      <path d="M9.25 -21.45 L9.2 -21.5 7.55 -22.85 6.35 -23.6 3.85 -24.85 3.05 -25.3 Q0.9 -26.25 -1.4 -26.85 L-2.8 -26.95 -3.05 -26.95 Q-7.55 -26.95 -11.25 -25.7 -14.75 -24.55 -17.55 -22.3 L-17.2 -19.4 Q-17.7 -21.45 -17.65 -23.6 -14.8 -25.75 -11.1 -26.8 -7.5 -27.9 -3.1 -27.9 L-3.0 -27.9 -0.85 -27.75 Q1.6 -27.2 3.8 -26.15 6.9 -25.15 9.75 -22.55 13.35 -19.35 16.65 -13.7 L16.9 -13.25 18.55 -10.2 18.6 -9.95 Q18.4 -10.1 18.15 -9.8 L18.2 -7.85 16.9 -11.15 16.65 -11.6 14.45 -15.6 Q13.15 -17.8 11.35 -19.5 L9.25 -21.45 M-15.7 1.9 L-16.8 0.6 -17.35 0.0 Q-18.35 -0.8 -18.65 -1.5 L-19.95 -3.8 -21.1 -6.2 -22.65 -10.9 Q-23.5 -13.7 -23.5 -15.55 L-23.45 -15.7 -22.4 -15.0 -21.85 -11.8 -21.85 -11.5 Q-21.35 -9.35 -20.45 -7.15 L-18.4 -3.25 -18.35 -3.15 -16.8 -0.95 -15.65 0.55 -15.7 -0.55 -15.5 0.55 -15.7 1.9" fill="#6b5f52" fill-rule="evenodd" stroke="none"/>
      <path d="M7.35 -17.3 Q8.7 -15.7 9.3 -14.5 L9.75 -13.55 Q9.05 -12.4 8.65 -11.2 8.4 -10.7 8.05 -8.6 L8.05 -6.55 8.15 -6.0 8.4 -3.65 Q8.4 -2.35 8.05 -2.35 L7.6 -0.9 6.9 0.55 6.4 0.65 6.3 0.65 5.4 -0.1 Q4.65 0.4 4.2 0.95 L3.65 -0.6 3.45 -1.5 Q3.3 -1.95 2.75 -1.9 L1.9 -1.0 1.5 -0.55 1.15 -0.3 1.05 -0.2 -1.95 -1.6 -3.85 -2.45 Q-0.45 -4.65 1.9 -7.7 4.15 -10.6 7.35 -17.3" fill="#c9a681" fill-rule="evenodd" stroke="none"/>
      <path d="M18.2 -7.85 L18.15 -9.8 Q18.4 -10.1 18.6 -9.95 L18.55 -10.2 20.55 -5.85 Q22.45 -1.05 22.55 2.7 L23.1 7.0 Q23.5 12.6 22.2 18.05 L21.55 20.65 21.5 20.95 22.75 23.5 23.5 25.15 Q23.5 25.75 23.1 25.75 L18.35 23.9 17.0 26.0 Q16.7 26.0 15.5 25.05 L14.85 24.55 15.25 27.0 Q15.25 27.75 14.8 27.75 12.2 25.75 11.3 25.6 10.05 25.4 9.0 24.75 L8.3 24.2 8.4 24.7 8.4 24.75 8.7 26.7 8.65 27.85 8.3 27.95 Q7.75 27.95 6.7 27.35 L5.0 26.3 3.05 24.85 0.45 27.4 Q-0.15 27.4 -3.4 23.1 L-5.05 24.1 -7.45 26.1 -9.1 27.6 -9.2 27.5 Q-11.0 24.85 -11.55 23.2 L-12.85 24.2 Q-15.3 26.15 -15.55 26.15 -15.85 26.15 -16.15 23.95 L-16.6 20.6 -20.1 23.3 -20.35 23.05 -20.5 22.6 -19.8 20.15 -19.0 18.15 Q-18.65 17.55 -18.5 15.95 L-18.4 15.25 Q-18.3 13.6 -16.65 9.85 L-15.75 7.65 -15.15 5.95 -14.9 4.3 Q-14.9 3.15 -15.6 2.0 L-15.7 1.9 -15.5 0.55 -15.7 -0.55 -16.25 -3.5 Q-16.9 -6.4 -17.3 -6.95 L-17.2 -7.1 -18.25 -9.4 Q-19.6 -12.5 -21.9 -14.65 L-22.05 -14.8 -22.4 -15.1 -22.4 -15.0 -23.45 -15.7 -23.3 -16.1 -23.2 -16.2 -22.7 -17.75 Q-21.65 -20.2 -18.85 -22.65 L-18.1 -23.25 -17.65 -23.6 Q-17.7 -21.45 -17.2 -19.4 L-17.15 -19.05 Q-16.9 -17.15 -16.35 -15.7 L-16.3 -15.75 -13.05 -7.3 -12.85 -7.1 -12.85 -7.75 -12.7 -7.85 -11.05 -6.2 -7.5 -3.15 -7.05 -2.8 -7.05 -2.9 -7.0 -3.05 -7.0 -3.4 -6.65 -4.4 -5.9 -4.35 -5.0 -3.15 -3.85 -2.45 -1.95 -1.6 1.05 -0.2 1.15 -0.3 1.5 -0.55 1.9 -1.0 2.75 -1.9 Q3.3 -1.95 3.45 -1.5 L3.65 -0.6 4.2 0.95 Q4.65 0.4 5.4 -0.1 L6.3 0.65 7.4 1.5 13.05 2.25 14.05 1.1 14.3 0.85 14.95 0.05 15.0 -0.1 17.4 1.05 17.4 1.0 17.45 0.95 17.45 0.9 17.35 0.7 17.4 0.55 17.75 -1.55 18.25 -3.7 18.3 -4.35 18.1 -6.9 18.2 -7.85 M7.35 2.1 L6.6 1.75 5.15 0.8 4.4 1.45 4.9 2.8 4.85 2.9 Q4.3 2.35 3.9 1.4 L3.85 1.35 3.9 1.35 3.7 0.95 2.9 -1.1 2.3 -0.45 1.85 -0.1 1.7 0.1 1.7 0.15 1.75 0.15 1.55 0.3 1.5 0.3 0.95 0.55 0.75 0.5 0.65 0.3 0.7 0.2 Q-0.45 -0.15 -2.4 -1.15 L-4.3 -2.15 -6.2 -3.5 Q-6.2 -2.75 -6.6 -2.3 L-6.75 -1.25 -6.95 -1.1 -7.1 -2.05 -7.1 -2.55 -7.35 -2.7 Q-10.3 -4.2 -12.2 -6.45 L-12.2 -6.4 -12.25 -6.0 -12.25 -5.95 -12.4 -5.9 -12.45 -5.9 -12.2 -4.35 -12.3 -4.25 Q-12.55 -4.6 -13.0 -6.3 -14.3 -7.85 -16.4 -15.35 -17.2 -16.6 -17.5 -18.45 L-17.8 -21.15 -17.85 -21.5 -17.9 -21.9 -17.9 -22.0 Q-20.95 -19.55 -21.9 -17.25 L-22.35 -15.7 Q-21.6 -15.5 -20.55 -14.35 -19.3 -12.9 -18.75 -11.65 L-17.6 -9.1 -16.4 -6.4 -16.55 -6.25 Q-16.1 -5.4 -15.7 -3.75 -15.05 -1.15 -15.05 0.5 L-15.1 1.25 -14.65 1.8 -14.5 2.0 -14.05 2.8 -14.15 2.85 -14.0 3.9 -13.3 2.5 -12.55 1.3 -10.1 -1.5 -11.95 1.15 -13.1 3.1 -13.8 4.5 -13.1 4.05 -11.5 3.2 Q-8.85 2.05 -5.25 1.8 L3.2 2.25 3.25 2.35 2.95 2.6 -0.8 2.35 -6.3 2.65 Q-10.4 3.15 -12.45 4.5 L-10.65 4.25 -10.55 4.25 -10.5 4.3 -10.3 4.35 -10.7 4.45 -12.45 5.1 -13.65 5.6 -14.5 7.0 -16.0 11.0 Q-17.7 15.0 -17.6 17.2 L-17.45 17.45 -17.25 17.8 -17.15 18.0 -17.1 18.4 -17.1 18.5 -17.1 18.6 -16.8 19.15 -16.85 19.2 -17.25 18.6 -17.35 18.5 -17.35 18.45 -17.75 17.75 -17.95 17.3 -18.85 20.1 -19.3 21.35 -19.35 21.4 -17.65 20.2 -16.65 19.5 Q-13.95 16.2 -12.15 13.5 L-12.55 14.2 -12.75 14.9 Q-12.75 15.25 -14.5 17.6 L-16.1 19.6 Q-15.7 20.05 -15.5 21.55 -15.25 23.1 -15.25 24.85 L-13.05 23.3 -11.75 22.65 -11.7 22.65 -10.35 22.1 -9.45 21.2 -7.95 19.5 -7.65 19.2 -7.95 19.6 -9.15 21.3 Q-9.9 22.35 -10.9 22.9 L-10.05 24.05 -9.0 26.3 -5.85 23.7 Q-2.4 21.25 -0.45 21.25 L1.35 20.75 -2.95 22.85 -1.75 24.0 0.25 26.15 Q0.75 26.15 2.25 24.65 L4.15 22.95 4.35 23.15 3.4 24.45 4.9 25.45 Q5.7 25.95 6.45 26.25 L7.85 26.75 7.9 26.3 7.75 23.8 7.7 23.75 7.75 23.75 7.7 23.55 7.75 23.45 7.65 23.0 7.3 20.6 7.7 16.65 7.85 16.65 7.65 18.1 Q7.65 20.35 8.05 22.6 L8.15 23.35 8.35 23.3 13.85 25.95 14.05 25.9 13.95 25.5 13.9 24.95 13.85 24.75 13.85 24.3 Q13.85 23.25 14.1 22.4 L14.6 19.9 14.65 19.9 14.85 21.4 14.65 22.8 14.75 23.75 15.4 24.25 Q16.35 25.0 16.8 25.15 L17.45 24.2 17.95 23.75 16.5 23.35 19.05 23.3 21.65 23.9 21.7 23.85 21.1 22.5 20.6 21.1 19.4 22.2 19.35 22.15 20.6 20.75 20.6 20.15 21.0 18.85 Q22.25 14.15 22.05 9.4 L20.1 11.3 16.6 13.85 16.55 13.75 19.9 10.9 Q21.8 9.1 21.9 7.95 L21.95 7.9 21.25 2.8 16.75 4.65 Q19.15 2.85 21.2 2.45 L20.85 0.7 20.8 0.7 20.3 0.7 20.5 0.65 20.2 0.65 20.15 0.6 20.15 0.65 19.75 0.65 19.5 0.55 Q19.8 0.2 19.95 0.15 L20.7 0.15 19.8 -3.35 19.75 -3.6 19.05 -5.75 19.05 -4.8 19.05 -4.05 19.1 -3.6 18.7 -1.6 18.4 -0.3 18.25 0.4 18.35 1.0 17.9 1.3 18.45 1.6 18.5 2.0 17.45 1.7 17.3 1.8 17.15 1.6 16.7 1.35 15.35 0.65 Q15.15 0.7 14.3 1.5 L13.9 1.9 13.4 2.25 13.65 2.25 14.55 2.25 14.6 2.35 13.8 2.6 13.3 2.7 13.2 2.7 11.35 2.7 8.65 2.45 9.65 2.9 12.2 3.85 12.25 3.9 Q12.2 4.05 11.95 4.05 11.35 4.05 9.45 3.25 L7.5 2.15 7.35 2.1" fill="#a17f2a" fill-rule="evenodd" stroke="none"/>
      <path d="M-4.3 -2.15 L-2.4 -1.15 Q-0.45 -0.15 0.7 0.2 L0.65 0.3 0.75 0.5 0.95 0.55 1.5 0.3 1.55 0.3 1.75 0.15 1.7 0.15 1.7 0.1 1.85 -0.1 2.3 -0.45 2.9 -1.1 3.7 0.95 3.9 1.35 3.85 1.35 3.9 1.4 Q4.3 2.35 4.85 2.9 L4.9 2.8 4.4 1.45 5.15 0.8 6.6 1.75 7.35 2.1 Q9.05 4.1 9.05 6.25 9.05 8.2 7.65 9.2 L4.85 11.0 5.7 10.9 Q8.65 10.9 8.65 12.95 8.65 14.7 6.6 16.95 4.75 19.0 3.15 19.65 4.9 21.55 5.9 24.4 L6.45 26.25 Q5.7 25.95 4.9 25.45 L3.4 24.45 4.35 23.15 4.15 22.95 2.25 24.65 Q0.75 26.15 0.25 26.15 L-1.75 24.0 -2.95 22.85 1.35 20.75 -0.45 21.25 Q-2.4 21.25 -5.85 23.7 L-9.0 26.3 -8.85 25.65 -8.2 24.5 -8.1 24.5 Q-7.35 22.75 -7.35 21.75 L-7.95 19.6 -7.65 19.2 -7.95 19.5 -8.6 17.5 Q-8.85 17.5 -9.1 15.4 L-9.35 12.7 -8.7 9.45 -7.95 6.5 -7.0 3.85 -6.3 2.65 -0.8 2.35 2.95 2.6 3.25 2.35 3.2 2.25 -5.25 1.8 -6.6 -0.9 Q-5.4 -1.5 -4.3 -2.15" fill="#d0a335" fill-rule="evenodd" stroke="none"/>
      <path d="M6.45 26.25 L5.9 24.4 Q4.9 21.55 3.15 19.65 4.75 19.0 6.6 16.95 8.65 14.7 8.65 12.95 8.65 10.9 5.7 10.9 L4.85 11.0 7.65 9.2 Q9.05 8.2 9.05 6.25 9.05 4.1 7.35 2.1 L7.5 2.15 9.45 3.25 Q11.35 4.05 11.95 4.05 12.2 4.05 12.25 3.9 L12.2 3.85 9.65 2.9 8.65 2.45 11.35 2.7 13.2 2.7 13.05 2.75 13.3 2.7 13.8 2.6 14.6 2.35 14.55 2.25 13.65 2.25 13.9 1.9 14.3 1.5 Q15.15 0.7 15.35 0.65 L16.7 1.35 17.15 1.6 17.3 1.8 17.45 1.7 18.5 2.0 18.45 1.6 17.9 1.3 18.35 1.0 18.25 0.4 18.4 -0.3 18.7 -1.6 19.1 -3.6 19.05 -4.05 19.05 -4.8 19.05 -5.75 19.75 -3.6 19.8 -3.35 20.7 0.15 19.95 0.15 Q19.8 0.2 19.5 0.55 L19.75 0.65 20.15 0.65 20.15 0.6 20.2 0.65 20.5 0.65 20.3 0.7 20.8 0.7 20.85 0.7 21.2 2.45 Q19.15 2.85 16.75 4.65 L21.25 2.8 21.95 7.9 21.9 7.95 Q21.8 9.1 19.9 10.9 L16.55 13.75 16.6 13.85 20.1 11.3 22.05 9.4 Q22.25 14.15 21.0 18.85 L20.6 20.15 20.6 20.75 19.35 22.15 19.4 22.2 20.6 21.1 21.1 22.5 21.7 23.85 21.65 23.9 19.05 23.3 16.5 23.35 17.95 23.75 17.45 24.2 16.8 25.15 Q16.35 25.0 15.4 24.25 L14.75 23.75 14.65 22.8 14.85 21.4 14.65 19.9 14.6 19.9 14.1 22.4 Q13.85 23.25 13.85 24.3 L13.85 24.75 13.9 24.95 13.95 25.5 14.05 25.9 13.85 25.95 8.35 23.3 8.15 23.35 8.05 22.6 Q7.65 20.35 7.65 18.1 L7.85 16.65 7.7 16.65 7.3 20.6 7.65 23.0 7.75 23.45 7.7 23.55 7.75 23.75 7.7 23.75 7.75 23.8 7.9 26.3 7.85 26.75 6.45 26.25" fill="#bf9734" fill-rule="evenodd" stroke="none"/>
      <path d="M-6.6 -0.9 L-5.25 1.8 Q-8.85 2.05 -11.5 3.2 L-13.1 4.05 -13.8 4.5 -13.1 3.1 -11.95 1.15 Q-9.05 0.3 -6.6 -0.9 M-6.3 2.65 L-7.0 3.85 -7.95 6.5 -8.7 9.45 -9.35 12.7 -9.1 15.4 Q-8.85 17.5 -8.6 17.5 L-7.95 19.5 -9.45 21.2 -10.35 22.1 -11.7 22.65 -11.75 22.65 -13.05 23.3 -15.25 24.85 Q-15.25 23.1 -15.5 21.55 -15.7 20.05 -16.1 19.6 L-14.5 17.6 Q-12.75 15.25 -12.75 14.9 L-12.55 14.2 -12.15 13.5 Q-13.95 16.2 -16.65 19.5 L-17.65 20.2 -19.35 21.4 -19.3 21.35 -18.85 20.1 Q-18.25 19.0 -18.05 19.0 L-17.35 18.45 -17.35 18.5 -17.25 18.6 -16.85 19.2 -16.8 19.15 -17.1 18.6 -17.1 18.5 -17.1 18.4 -17.15 18.0 -17.25 17.8 -17.2 17.65 -17.2 17.6 -16.95 16.65 -17.2 16.0 Q-15.65 11.85 -14.35 10.15 L-12.4 6.85 Q-11.5 5.15 -10.7 4.45 L-10.3 4.35 -10.5 4.3 -10.55 4.25 -10.65 4.25 -12.45 4.5 Q-10.4 3.15 -6.3 2.65 M-7.95 19.6 L-7.35 21.75 Q-7.35 22.75 -8.1 24.5 L-8.2 24.5 -8.85 25.65 -9.0 26.3 -10.05 24.05 -10.9 22.9 Q-9.9 22.35 -9.15 21.3 L-7.95 19.6 M13.2 2.7 L13.3 2.7 13.05 2.75 13.2 2.7 M13.65 2.25 L13.4 2.25 13.9 1.9 13.65 2.25 M-13.3 2.5 L-13.35 2.4 -13.9 1.65 -12.55 1.3 -13.3 2.5" fill="#e0ae33" fill-rule="evenodd" stroke="none"/>
      <path d="M-14.65 1.8 L-13.9 1.65 -13.35 2.4 -13.3 2.5 -14.0 3.9 -14.15 2.85 -14.05 2.8 -14.5 2.0 -14.65 1.8 M-17.25 17.8 L-17.45 17.45 -17.6 17.2 Q-17.7 15.0 -16.0 11.0 L-14.5 7.0 -13.65 5.6 -12.45 5.1 -10.7 4.45 Q-11.5 5.15 -12.4 6.85 L-14.35 10.15 Q-15.65 11.85 -17.2 16.0 L-16.95 16.65 -17.2 17.6 -17.2 17.65 -17.25 17.8 M-18.85 20.1 L-17.95 17.3 -17.75 17.75 -17.35 18.45 -18.05 19.0 Q-18.25 19.0 -18.85 20.1" fill="#e2be66" fill-rule="evenodd" stroke="none"/>
      <path d="M-17.9 -21.9 L-17.85 -21.5 -17.9 -21.85 -17.9 -21.9" fill="#000000" fill-rule="evenodd" stroke="none"/>
      <path d="M-2.8 -26.95 Q0.3 -24.4 3.35 -21.45 L7.35 -17.3 Q4.15 -10.6 1.9 -7.7 -0.45 -4.65 -3.85 -2.45 L-5.0 -3.15 -5.9 -4.35 -6.65 -4.4 -7.0 -3.4 -7.0 -3.05 -7.05 -2.9 -7.05 -2.8 -7.5 -3.15 -8.75 -6.3 Q-11.7 -14.25 -11.7 -19.1 L-11.25 -25.7 Q-7.55 -26.95 -3.05 -26.95 L-2.8 -26.95" fill="#b4926e" fill-rule="evenodd" stroke="none"/>
      <path d="M-17.2 -19.4 L-17.55 -22.3 Q-14.75 -24.55 -11.25 -25.7 L-11.7 -19.1 Q-11.7 -14.25 -8.75 -6.3 L-7.5 -3.15 -11.05 -6.2 -12.7 -7.85 -12.85 -7.75 -12.85 -7.1 -13.05 -7.3 -16.3 -15.75 -16.35 -15.7 Q-16.9 -17.15 -17.15 -19.05 L-17.2 -19.4 M-22.4 -15.0 L-22.4 -15.1 -22.05 -14.8 -21.9 -14.65 Q-19.6 -12.5 -18.25 -9.4 L-17.2 -7.1 -17.3 -6.95 Q-16.9 -6.4 -16.25 -3.5 L-15.7 -0.55 -15.65 0.55 -16.8 -0.95 -18.35 -3.15 -18.4 -3.25 -20.45 -7.15 Q-21.35 -9.35 -21.85 -11.5 L-21.85 -11.8 -22.4 -15.0" fill="#bd9972" fill-rule="evenodd" stroke="none"/>
      <path d="M-4.3 -2.15 Q-5.4 -1.5 -6.6 -0.9 L-6.75 -1.25 -6.6 -2.3 Q-6.2 -2.75 -6.2 -3.5 L-4.3 -2.15" fill="#b8902f" fill-rule="evenodd" stroke="none"/>
      <path d="M-13.9 1.65 L-14.15 1.25 Q-14.7 0.35 -14.7 -0.2 -14.7 -5.4 -16.85 -9.35 L-19.4 -14.1 Q-20.7 -16.3 -21.9 -17.25 -20.95 -19.55 -17.9 -22.0 L-17.9 -21.9 -17.9 -21.85 -17.85 -21.5 -17.8 -21.15 -17.5 -18.45 Q-17.2 -16.6 -16.4 -15.35 -14.3 -7.85 -13.0 -6.3 -12.55 -4.6 -12.3 -4.25 L-12.2 -4.35 -12.45 -5.9 -12.4 -5.9 -12.25 -5.95 -12.25 -6.0 -12.2 -6.4 -12.2 -6.45 Q-10.3 -4.2 -7.35 -2.7 L-7.1 -2.55 -7.1 -2.05 -6.95 -1.1 -6.75 -1.25 -6.6 -0.9 Q-9.05 0.3 -11.95 1.15 L-10.1 -1.5 -12.55 1.3 -13.9 1.65" fill="#c99c2e" fill-rule="evenodd" stroke="none"/>
      <path d="M-14.65 1.8 L-15.1 1.25 -15.05 0.5 Q-15.05 -1.15 -15.7 -3.75 -16.1 -5.4 -16.55 -6.25 L-16.4 -6.4 -17.6 -9.1 -18.75 -11.65 Q-19.3 -12.9 -20.55 -14.35 -21.6 -15.5 -22.35 -15.7 L-21.9 -17.25 Q-20.7 -16.3 -19.4 -14.1 L-16.85 -9.35 Q-14.7 -5.4 -14.7 -0.2 -14.7 0.35 -14.15 1.25 L-13.9 1.65 -14.65 1.8" fill="#c9a754" fill-rule="evenodd" stroke="none"/>
      <path d="M-2.8 -26.95 L-1.4 -26.85 Q0.9 -26.25 3.05 -25.3 L3.85 -24.85 6.35 -23.6 7.55 -22.85 9.2 -21.5 9.25 -21.45 7.35 -17.3 3.35 -21.45 Q0.3 -24.4 -2.8 -26.95" fill="#a68460" fill-rule="evenodd" stroke="none"/>
    </g>
    <g id="shape6" transform="matrix(1.0, 0.0, 0.0, 1.0, 116.1, 128.8)">
      <path d="M-23.95 -126.55 L-21.4 -126.95 Q-13.1 -128.4 -5.0 -128.7 24.65 -129.95 51.65 -116.5 73.25 -105.85 87.9 -90.25 101.95 -75.3 109.6 -56.0 L111.25 -51.95 Q116.1 -36.65 116.1 -21.8 116.1 -15.95 115.55 -10.1 L113.9 -0.4 111.85 9.1 Q110.3 15.6 107.45 21.75 L104.45 27.65 Q101.25 33.2 96.8 38.05 L91.2 43.8 Q88.75 46.2 86.0 48.2 L80.35 52.2 71.8 58.1 63.9 64.55 Q62.2 66.55 60.65 68.85 L58.95 71.65 Q58.3 73.8 56.35 77.05 L52.0 84.75 Q49.15 91.25 39.3 100.05 34.2 104.8 17.15 113.6 -4.05 124.55 -15.2 124.6 L-15.75 126.6 -15.85 126.6 Q-18.0 128.8 -22.65 128.8 -28.1 128.8 -42.85 125.3 L-46.0 124.5 Q-63.8 120.1 -67.9 117.25 -69.85 115.95 -71.65 109.85 L-77.7 106.65 Q-84.0 102.95 -88.2 98.95 -104.3 83.75 -108.8 74.75 -112.8 66.75 -112.8 52.1 -112.8 45.85 -111.45 39.5 L-113.15 36.45 Q-116.1 31.9 -116.1 29.35 -116.1 20.8 -108.0 17.15 -104.85 15.65 -102.45 16.3 L-102.3 16.4 -100.9 13.6 Q-98.7 9.55 -98.7 8.0 -99.4 3.3 -101.9 -3.55 -105.45 -13.3 -105.45 -27.05 -105.45 -41.55 -102.75 -52.25 -99.6 -64.05 -91.75 -78.4 -80.6 -98.45 -53.6 -114.2 -40.95 -121.55 -31.25 -124.7 L-24.65 -127.15 -23.95 -126.55 M-45.3 118.75 L-40.95 119.85 -31.3 122.15 Q-28.3 123.15 -23.75 123.3 L-21.9 123.6 Q-19.5 123.3 -18.35 121.8 -17.2 120.75 -16.35 119.1 -15.05 116.3 -15.05 113.5 L-15.05 113.45 -14.65 114.8 -13.9 118.95 Q-11.55 117.85 -7.7 116.8 L6.5 113.1 Q23.3 106.0 31.3 99.95 L40.45 92.5 Q45.2 88.05 46.4 84.6 46.6 84.1 50.55 77.8 51.2 75.95 52.95 72.35 L54.4 69.2 54.25 69.0 54.65 68.5 54.75 68.25 Q58.2 63.15 61.0 60.2 L61.5 59.8 Q67.15 54.8 73.15 50.75 L81.1 45.35 Q86.35 41.6 90.7 37.05 95.4 32.1 98.25 25.7 L101.7 17.6 106.15 6.5 Q108.3 0.55 109.15 -5.5 L110.05 -12.1 110.2 -17.2 Q110.2 -35.0 104.6 -51.95 L103.05 -56.0 Q94.75 -75.6 79.4 -90.25 65.4 -103.7 45.7 -112.95 17.25 -126.1 -11.6 -122.35 -25.65 -120.55 -39.8 -114.7 -62.25 -105.5 -75.9 -90.25 L-80.6 -84.6 Q-88.9 -73.6 -93.05 -59.75 -99.2 -47.35 -99.2 -34.45 L-99.1 -28.8 -99.2 -25.95 Q-99.2 -22.45 -98.8 -18.65 -98.65 -9.75 -96.9 -2.2 -94.2 5.3 -94.1 10.55 L-93.8 12.9 -95.0 15.55 -99.9 24.0 Q-106.9 36.95 -106.9 51.95 -106.9 59.1 -105.2 65.7 L-105.1 65.7 -104.7 67.15 -104.5 68.25 Q-103.3 72.5 -102.1 74.25 -98.1 82.6 -90.8 89.65 -83.7 96.55 -73.4 102.25 -74.7 96.5 -74.7 94.15 -74.7 92.85 -74.1 91.75 -72.25 93.25 -69.85 94.0 L-69.85 94.15 Q-69.85 97.35 -68.1 103.6 L-67.65 105.3 -67.3 105.4 -65.8 109.85 -65.45 110.95 -64.9 112.6 Q-64.1 114.25 -59.3 115.2 L-58.65 115.4 -58.85 115.3 -58.1 115.45 -50.65 117.25 -45.3 118.75 M-105.45 20.7 Q-108.35 20.7 -110.1 24.85 -111.0 27.0 -111.3 29.2 -111.3 30.5 -109.95 33.5 L-109.9 33.55 Q-108.35 28.25 -105.75 22.85 L-104.8 21.05 Q-105.1 20.9 -105.45 20.7" fill="#6b5f52" fill-rule="evenodd" stroke="none"/>
      <path d="M-11.6 -122.35 Q17.25 -126.1 45.7 -112.95 65.4 -103.7 79.4 -90.25 94.75 -75.6 103.05 -56.0 L104.6 -51.95 Q110.2 -35.0 110.2 -17.2 L110.05 -12.1 109.15 -5.5 Q108.3 0.55 106.15 6.5 L101.7 17.6 98.25 25.7 Q95.4 32.1 90.7 37.05 86.35 41.6 81.1 45.35 L73.15 50.75 Q67.15 54.8 61.5 59.8 L61.0 60.2 Q58.2 63.15 54.75 68.25 L54.65 68.5 54.25 69.0 54.4 69.2 52.95 72.35 Q51.2 75.95 50.55 77.8 46.6 84.1 46.4 84.6 45.2 88.05 40.45 92.5 L31.3 99.95 Q23.3 106.0 6.5 113.1 L-7.7 116.8 Q-11.55 117.85 -13.9 118.95 L-14.65 114.8 -15.05 113.45 -15.05 113.5 Q-15.05 116.3 -16.35 119.1 -17.2 120.75 -18.35 121.8 -19.5 123.3 -21.9 123.6 L-23.75 123.3 Q-28.3 123.15 -31.3 122.15 L-40.95 119.85 -45.3 118.75 Q-48.95 109.1 -52.55 100.15 L-60.2 81.6 Q-63.0 74.45 -63.95 69.65 -64.95 64.55 -64.95 56.65 -64.95 38.95 -58.95 20.5 L-54.8 8.7 Q-52.95 3.35 -52.95 1.15 -52.95 -0.85 -52.2 -4.85 -51.45 -8.85 -51.45 -10.6 L-52.45 -25.85 -52.45 -27.2 -52.45 -27.75 Q-52.35 -32.1 -51.9 -36.45 -50.85 -44.5 -47.95 -54.85 -45.95 -61.9 -43.45 -68.8 L-38.6 -80.25 -35.15 -87.45 -35.05 -87.9 -34.4 -89.2 Q-24.15 -109.05 -11.6 -122.35" fill="#d2ac83" fill-rule="evenodd" stroke="none"/>
      <path d="M-11.6 -122.35 Q-24.15 -109.05 -34.4 -89.2 L-35.05 -87.9 -35.15 -87.45 -38.6 -80.25 -43.45 -68.8 Q-45.95 -61.9 -47.95 -54.85 -50.85 -44.5 -51.9 -36.45 -52.35 -32.1 -52.45 -27.75 L-52.45 -27.2 -52.45 -25.85 -51.45 -10.6 Q-51.45 -8.85 -52.2 -4.85 -52.95 -0.85 -52.95 1.15 -52.95 3.35 -54.8 8.7 L-58.95 20.5 Q-64.95 38.95 -64.95 56.65 -64.95 64.55 -63.95 69.65 -63.0 74.45 -60.2 81.6 L-52.55 100.15 Q-48.95 109.1 -45.3 118.75 L-50.65 117.25 -58.1 115.45 -58.85 115.3 -58.65 115.4 -59.3 115.2 Q-64.1 114.25 -64.9 112.6 L-65.45 110.95 -65.8 109.85 -67.3 105.4 -67.65 105.3 -68.1 103.6 Q-69.85 97.35 -69.85 94.15 L-69.85 94.0 Q-72.25 93.25 -74.1 91.75 -74.7 92.85 -74.7 94.15 -74.7 96.5 -73.4 102.25 -83.7 96.55 -90.8 89.65 -93.75 85.4 -95.75 81.75 -102.45 69.7 -102.45 57.15 -102.45 45.75 -95.7 29.7 -92.3 22.0 -91.05 18.7 -88.95 13.15 -88.95 9.9 -88.95 3.75 -91.45 -10.25 -93.95 -24.25 -93.95 -32.1 -93.95 -51.35 -87.35 -69.75 -84.45 -77.75 -80.6 -84.6 L-75.9 -90.25 Q-62.25 -105.5 -39.8 -114.7 -25.65 -120.55 -11.6 -122.35 M-105.45 20.7 Q-105.1 20.9 -104.8 21.05 L-105.75 22.85 Q-108.35 28.25 -109.9 33.55 L-109.95 33.5 Q-111.3 30.5 -111.3 29.2 -111.0 27.0 -110.1 24.85 -108.35 20.7 -105.45 20.7" fill="#ecc193" fill-rule="evenodd" stroke="none"/>
      <path d="M-90.8 89.65 Q-98.1 82.6 -102.1 74.25 -103.3 72.5 -104.5 68.25 L-104.7 67.15 -105.1 65.7 -105.2 65.7 Q-106.9 59.1 -106.9 51.95 -106.9 36.95 -99.9 24.0 L-95.0 15.55 -93.8 12.9 -94.1 10.55 Q-94.2 5.3 -96.9 -2.2 -98.65 -9.75 -98.8 -18.65 -99.2 -22.45 -99.2 -25.95 L-99.1 -28.8 -99.2 -34.45 Q-99.2 -47.35 -93.05 -59.75 -88.9 -73.6 -80.6 -84.6 -84.45 -77.75 -87.35 -69.75 -93.95 -51.35 -93.95 -32.1 -93.95 -24.25 -91.45 -10.25 -88.95 3.75 -88.95 9.9 -88.95 13.15 -91.05 18.7 -92.3 22.0 -95.7 29.7 -102.45 45.75 -102.45 57.15 -102.45 69.7 -95.75 81.75 -93.75 85.4 -90.8 89.65" fill="#eccdad" fill-rule="evenodd" stroke="none"/>
    </g>
    <g id="shape7" transform="matrix(1.0, 0.0, 0.0, 1.0, 134.6, 144.2)">
      <path d="M55.25 -122.8 L58.6 -121.25 Q52.9 -117.45 47.55 -110.55 41.1 -101.3 37.8 -97.25 37.95 -97.0 38.2 -97.0 41.3 -100.8 52.2 -111.9 L59.05 -119.05 Q60.5 -119.65 64.3 -121.7 69.25 -124.15 70.45 -124.15 72.65 -124.15 77.35 -121.15 74.0 -118.45 68.9 -113.55 60.5 -105.3 56.55 -99.35 L56.95 -99.1 70.3 -111.65 Q76.5 -117.65 78.8 -120.2 L81.15 -118.65 79.9 -117.5 77.45 -113.9 78.05 -113.55 Q81.2 -115.9 82.6 -117.55 L84.6 -116.1 89.2 -112.55 79.1 -103.7 79.25 -103.7 Q88.25 -109.0 90.6 -111.45 L99.05 -104.45 Q95.3 -102.9 93.0 -100.55 L91.1 -98.5 Q85.8 -95.05 80.6 -89.95 L67.0 -75.0 67.15 -74.5 Q72.55 -79.55 87.05 -91.75 L92.95 -96.65 94.85 -94.05 96.35 -92.25 Q89.55 -89.3 83.05 -84.5 77.35 -80.35 70.85 -73.75 L71.05 -73.75 Q75.15 -76.75 88.9 -85.15 95.65 -89.2 98.55 -91.15 L102.9 -91.95 110.7 -92.9 Q111.15 -92.9 112.9 -89.95 110.7 -89.3 107.7 -87.6 102.55 -84.4 100.95 -83.6 L102.1 -84.05 103.5 -84.5 Q111.3 -86.75 113.95 -88.1 L114.05 -87.95 117.25 -82.0 Q113.6 -80.7 108.7 -77.6 102.8 -74.05 99.65 -71.2 L99.75 -71.0 Q113.85 -77.55 118.1 -80.25 120.0 -76.35 122.5 -67.9 L119.05 -66.2 Q109.6 -63.0 100.7 -56.95 91.65 -50.8 85.95 -43.95 L86.7 -43.45 Q97.9 -53.0 112.6 -60.55 L117.35 -62.95 118.9 -63.15 118.8 -62.95 Q118.4 -61.4 118.4 -59.95 118.4 -59.1 124.95 -57.3 128.1 -56.45 129.75 -55.55 126.95 -55.45 121.7 -53.95 110.4 -50.75 110.4 -49.8 110.4 -49.2 110.65 -49.1 L111.35 -48.95 124.85 -51.9 131.55 -53.6 131.2 -50.3 Q129.8 -50.8 126.6 -49.8 122.2 -48.45 121.3 -47.0 L121.2 -46.8 121.85 -46.75 126.95 -47.6 Q129.65 -48.25 131.0 -48.85 L130.85 -48.0 130.15 -43.95 Q127.55 -44.05 124.05 -43.1 118.9 -41.7 115.4 -39.45 L125.05 -40.65 129.5 -41.75 Q129.0 -40.15 128.85 -37.9 128.35 -36.5 126.75 -35.2 123.25 -34.9 113.95 -31.55 99.05 -26.1 99.05 -24.25 99.05 -23.65 99.3 -23.5 L100.05 -23.4 Q101.35 -24.0 116.3 -29.0 L125.1 -32.1 125.75 -32.1 123.55 -26.6 122.15 -22.8 Q119.85 -23.65 117.85 -23.15 115.9 -22.65 115.9 -22.05 115.9 -21.1 116.2 -21.2 L118.4 -20.8 121.55 -21.1 120.8 -18.25 119.4 -18.05 Q93.3 -19.75 62.85 -19.6 L62.75 -19.6 62.55 -19.0 Q62.55 -18.4 62.75 -18.4 L62.85 -18.25 90.7 -17.05 114.6 -15.95 121.0 -16.0 123.4 -16.3 Q126.45 -15.45 128.5 -13.85 131.25 -11.45 131.25 -8.35 L131.2 -7.1 130.5 -7.3 123.5 -7.45 Q123.5 -7.25 121.15 -6.75 L124.3 -5.45 130.9 -4.9 131.0 -4.9 129.4 5.45 127.55 5.2 Q123.5 4.6 118.0 5.1 L116.85 6.15 118.0 7.15 129.0 7.65 128.6 10.1 Q128.6 13.15 126.45 13.8 L123.0 15.0 121.15 15.35 110.15 15.55 94.5 17.2 85.65 18.05 86.55 18.25 87.35 18.25 90.75 18.45 Q91.3 18.75 91.8 18.75 L109.25 18.05 121.15 17.9 123.65 17.45 Q122.75 19.15 122.6 22.1 L122.35 24.8 118.95 24.25 113.4 24.45 113.4 25.0 122.15 26.95 121.7 30.65 121.2 32.95 Q118.3 31.25 113.25 29.7 L100.05 26.45 100.05 27.25 Q103.5 29.05 115.0 33.2 L118.3 35.4 Q121.5 36.35 122.15 37.9 L122.2 37.5 123.25 37.95 121.4 41.65 121.15 41.3 121.15 41.25 121.3 41.05 121.05 41.25 Q119.4 39.5 118.15 39.45 118.95 41.65 119.85 42.65 L119.5 43.1 119.95 42.75 120.6 43.15 118.35 47.55 118.3 47.55 117.85 47.05 117.35 46.4 117.2 46.25 116.75 45.7 113.9 41.55 111.65 43.55 Q101.25 33.15 98.9 29.55 98.15 30.3 95.9 31.2 L92.4 32.05 89.4 25.7 87.85 22.6 87.75 22.35 87.7 22.3 Q86.65 21.05 84.1 19.8 81.45 18.55 79.9 18.55 L68.2 19.35 58.4 20.55 Q55.9 21.15 49.6 23.6 44.55 25.55 42.15 25.55 40.6 25.55 39.5 24.2 L39.8 19.05 Q37.2 21.95 36.25 25.15 L36.25 25.2 36.25 25.3 36.2 25.5 Q35.85 26.95 36.1 28.45 L35.85 34.1 Q35.1 37.25 33.25 39.5 31.55 41.5 31.55 42.75 31.55 43.3 31.65 43.3 L32.3 43.3 Q33.85 43.0 35.05 42.35 L33.65 53.0 33.85 54.15 34.75 55.0 Q34.4 56.1 34.15 57.65 33.85 59.75 33.85 61.85 L34.1 63.8 Q33.5 65.0 33.5 65.6 L33.75 66.8 Q33.5 66.85 33.5 67.25 33.5 68.9 35.2 70.9 L36.2 72.85 36.75 72.6 38.85 74.3 Q44.1 78.55 44.1 79.45 44.1 81.0 43.3 82.85 42.5 84.7 42.5 86.8 42.5 87.4 42.65 87.5 L43.3 87.65 Q47.0 82.5 47.5 80.75 L49.1 81.4 42.5 91.9 Q39.35 88.85 39.35 91.9 39.35 92.5 40.7 94.5 L42.5 96.9 38.1 102.95 Q34.8 107.35 33.2 107.35 L33.0 107.3 34.3 105.35 Q34.3 104.85 34.0 104.75 L33.5 104.65 Q32.85 104.95 31.3 106.4 30.6 106.45 30.35 106.85 L30.25 106.7 30.2 107.2 30.25 107.35 28.9 108.55 Q25.0 112.35 25.0 113.3 25.0 114.55 23.3 116.7 20.9 119.75 17.15 119.75 L16.35 119.15 Q15.8 118.55 14.9 118.55 14.6 118.55 10.4 122.2 L10.15 122.35 7.65 124.55 6.1 121.1 5.85 121.1 5.3 123.05 4.9 124.95 5.3 128.15 -0.8 129.2 -3.15 129.4 -3.6 128.55 -4.1 127.3 Q-4.1 126.05 -1.1 124.05 1.9 122.05 1.9 120.8 L1.4 118.75 Q0.9 117.35 0.9 116.55 4.75 115.0 8.7 110.5 12.85 105.7 13.35 101.05 L13.4 99.8 13.15 98.05 Q14.1 97.95 15.9 97.05 15.9 97.55 16.4 97.55 L16.65 96.8 16.9 96.05 17.15 94.95 17.4 93.3 Q17.4 92.0 16.4 89.0 L15.4 86.05 Q15.4 85.35 15.65 85.0 L15.9 84.55 15.9 83.9 16.0 83.7 16.0 83.45 Q16.15 82.55 16.9 82.55 L18.4 82.55 19.1 82.5 Q19.8 82.05 20.4 82.05 L21.35 82.0 21.4 81.65 21.45 81.75 21.9 81.55 21.9 81.15 Q21.9 81.55 22.4 81.55 L21.0 79.95 Q21.9 78.75 21.9 77.55 L22.1 76.1 Q22.15 75.55 21.4 75.55 20.6 75.55 20.7 72.75 L20.9 70.0 Q21.15 69.3 21.9 68.55 L23.05 69.25 24.4 69.55 26.4 68.05 Q27.05 68.05 26.4 67.8 25.8 67.55 26.4 67.55 27.2 67.55 27.1 67.0 L26.95 66.4 27.4 65.55 Q26.1 65.75 24.95 64.4 24.25 63.6 24.05 62.75 L24.4 62.05 Q28.05 55.05 28.9 55.05 29.6 55.05 29.35 54.65 L28.9 53.3 28.4 47.85 28.35 47.3 28.4 45.8 27.9 41.55 Q27.9 37.65 28.3 35.4 L29.55 32.95 30.35 31.45 30.4 31.4 Q31.55 30.55 32.15 28.05 L32.4 27.55 32.3 27.5 Q32.9 24.45 32.9 19.3 L32.65 15.3 Q33.4 13.7 33.4 11.55 33.4 7.0 33.9 -1.05 L34.3 -7.25 44.85 -1.25 Q45.45 -1.25 45.85 -2.2 42.5 -5.8 35.5 -10.7 L34.4 -11.45 Q34.35 -13.0 31.15 -14.95 28.45 -16.6 28.0 -17.75 L27.95 -18.45 28.8 -20.8 30.4 -23.15 31.8 -25.2 34.4 -23.6 Q35.3 -23.6 38.35 -27.8 L42.1 -33.4 Q38.55 -31.55 34.1 -27.05 L32.9 -27.7 32.9 -27.95 Q32.9 -28.3 31.9 -28.9 L31.9 -29.95 Q30.9 -30.95 28.2 -32.1 26.9 -32.7 26.9 -35.2 L27.1 -38.1 28.25 -40.35 Q30.85 -44.3 31.4 -45.95 30.45 -46.65 29.1 -48.9 30.45 -50.2 33.8 -55.0 38.2 -61.4 38.2 -62.05 L37.95 -62.75 37.4 -62.8 Q35.5 -61.3 31.55 -56.2 L28.3 -52.3 Q27.75 -56.3 24.4 -60.8 L23.9 -61.45 23.9 -61.7 Q23.9 -62.8 24.95 -63.15 26.25 -63.55 26.9 -65.45 L23.7 -67.05 Q20.9 -68.55 20.9 -69.95 L21.3 -72.2 Q22.25 -74.15 24.15 -76.55 L29.4 -82.95 27.95 -83.7 28.9 -85.45 Q25.55 -87.2 24.6 -88.15 L39.65 -105.1 55.25 -122.8" fill="#413224" fill-rule="evenodd" stroke="none"/>
      <path d="M-26.65 -59.0 L-28.75 -59.1 -28.8 -59.1 -29.0 -60.6 -29.15 -60.95 -30.3 -65.0 Q-32.1 -63.6 -35.95 -61.65 -38.7 -60.2 -40.35 -59.4 L-40.55 -59.35 -40.45 -59.0 -40.45 -58.75 -40.05 -56.9 -40.45 -56.9 -41.0 -56.7 -44.9 -56.6 -64.25 -55.55 Q-64.9 -55.15 -65.9 -55.15 L-67.7 -55.15 -67.85 -55.15 Q-73.05 -55.45 -74.5 -57.15 -74.9 -57.65 -75.05 -59.15 L-76.45 -58.75 -77.35 -58.4 -79.85 -57.15 -82.2 -56.05 -88.2 -55.05 -89.45 -58.05 -89.6 -58.5 -89.7 -58.75 -89.8 -58.75 -92.1 -58.75 Q-102.4 -58.75 -107.55 -56.15 -110.8 -54.45 -112.2 -51.15 -115.0 -44.7 -118.4 -41.75 L-119.55 -42.85 Q-119.55 -43.8 -118.55 -45.7 L-118.55 -53.95 -119.15 -60.25 -119.65 -65.35 Q-119.65 -66.6 -117.45 -70.7 -115.55 -74.5 -113.55 -75.85 L-114.2 -78.05 Q-114.2 -81.95 -108.8 -86.4 L-107.4 -87.4 Q-107.25 -88.65 -106.35 -88.1 L-102.95 -92.15 Q-99.75 -95.8 -97.35 -97.85 L-97.7 -100.1 -98.25 -103.1 Q-98.25 -106.05 -93.1 -111.15 L-92.8 -111.65 -92.35 -111.8 -88.8 -115.0 Q-79.45 -122.95 -79.45 -119.05 L-79.2 -117.8 Q-77.1 -120.05 -72.3 -123.3 L-72.3 -123.5 -72.15 -124.3 -71.75 -124.5 -71.15 -124.05 Q-63.6 -129.05 -59.45 -129.2 -56.9 -137.1 -41.6 -140.15 -35.3 -141.4 -29.0 -141.45 -23.25 -141.45 -23.25 -140.7 -23.25 -139.85 -25.1 -137.65 L-25.2 -136.25 -23.7 -136.15 -17.75 -135.45 -17.7 -135.4 -15.0 -138.75 Q-10.15 -144.2 -4.65 -144.2 L5.1 -142.25 8.05 -141.65 19.75 -138.95 Q21.55 -138.45 25.65 -136.0 29.75 -133.5 29.75 -133.0 29.75 -132.25 25.0 -127.85 L26.55 -127.35 26.55 -127.45 Q27.75 -127.5 32.45 -125.5 L37.8 -122.8 42.1 -126.0 Q44.9 -127.8 46.85 -128.8 L46.75 -128.9 Q47.0 -129.2 47.55 -129.2 49.35 -130.05 50.3 -130.15 L49.25 -128.8 Q50.9 -128.2 53.8 -126.6 L54.45 -126.25 55.4 -126.5 54.95 -126.0 56.45 -125.1 60.2 -122.3 63.1 -123.9 69.5 -126.7 Q71.75 -127.6 76.7 -124.9 80.0 -123.05 83.4 -120.25 87.75 -117.65 94.95 -112.15 103.75 -105.2 103.75 -103.05 103.75 -102.3 96.9 -99.6 L95.65 -99.0 94.55 -98.15 95.75 -96.9 Q97.9 -94.45 98.2 -94.45 L99.75 -94.7 101.95 -95.15 108.55 -95.9 111.85 -96.15 Q115.25 -96.15 121.15 -81.8 124.15 -74.55 126.4 -67.3 126.4 -66.05 122.3 -64.4 L120.85 -63.85 120.85 -63.4 120.65 -61.55 Q121.8 -60.95 127.45 -59.25 134.6 -56.55 134.6 -53.85 L132.8 -43.55 133.1 -43.45 132.7 -43.25 132.45 -42.0 Q131.65 -35.9 130.9 -34.75 129.95 -32.8 127.3 -32.3 127.05 -30.65 124.95 -25.1 L122.3 -18.25 126.45 -17.75 Q134.25 -15.8 134.25 -8.75 134.25 -6.55 133.35 -1.05 L132.05 5.35 131.75 6.35 131.85 6.45 131.65 7.4 131.35 7.5 Q130.15 11.95 130.05 15.6 129.65 16.8 125.75 17.2 L126.0 19.35 Q126.0 20.6 124.7 26.25 L124.7 26.45 Q124.55 26.65 124.55 27.0 L124.5 27.2 122.95 33.5 Q126.6 34.3 126.6 36.35 126.6 38.25 121.0 48.1 L120.4 49.15 Q115.25 58.0 113.3 59.5 116.05 61.95 116.05 63.6 100.2 79.95 98.05 79.95 96.8 79.95 95.65 78.05 91.65 80.25 75.35 84.45 75.25 87.35 74.35 88.35 72.75 90.2 67.6 90.2 L65.9 89.95 58.5 91.3 Q56.95 91.9 55.95 91.9 52.35 91.9 50.25 88.5 L49.25 86.45 48.7 87.25 44.15 93.6 46.6 96.95 Q46.6 97.5 40.3 104.05 L33.65 110.6 Q32.4 110.6 31.45 109.4 L28.1 113.8 Q28.1 114.2 28.55 114.9 L28.9 116.1 Q28.9 117.5 17.1 123.05 16.5 123.05 15.95 122.6 L15.55 122.1 Q14.65 122.1 10.0 125.6 L8.35 126.85 8.45 127.7 Q8.45 130.15 5.8 131.25 2.95 132.35 -3.55 132.35 L-4.25 132.25 -5.5 131.8 Q-6.6 131.3 -6.65 131.3 -7.05 131.3 -9.0 132.4 -10.85 133.35 -11.9 133.4 -11.9 136.9 -13.85 136.9 L-16.45 136.4 -19.75 135.8 -21.55 136.25 -24.8 137.3 Q-24.45 138.85 -24.45 139.55 -24.45 140.55 -38.85 142.25 L-43.5 141.9 -43.55 141.9 -43.55 142.85 Q-43.95 144.25 -45.2 144.25 -50.15 144.25 -56.4 141.8 L-60.85 140.0 -60.85 141.45 Q-61.05 143.15 -62.4 143.15 L-66.0 143.1 Q-75.4 142.7 -78.05 140.2 -79.35 139.0 -79.35 134.45 -79.9 135.45 -80.75 135.45 -83.45 135.45 -89.4 132.15 -94.85 129.25 -94.85 128.85 -94.85 126.55 -93.0 121.3 L-92.8 120.85 Q-99.15 120.75 -100.7 118.95 -101.05 118.45 -101.1 115.25 -101.25 113.45 -103.7 111.2 L-104.1 110.95 Q-105.3 111.95 -106.05 111.95 -106.5 111.95 -116.95 100.85 L-115.85 98.25 -117.35 96.55 -118.25 95.55 -120.15 96.95 Q-122.0 96.95 -128.5 87.75 L-127.45 84.3 -126.35 81.25 Q-126.35 80.8 -127.15 79.8 -128.25 80.8 -129.15 80.8 -130.3 80.8 -132.55 75.9 L-134.6 70.9 Q-134.6 70.4 -132.2 68.3 -130.6 66.95 -130.05 65.85 -131.2 65.75 -132.4 63.05 L-133.45 60.1 -131.2 56.1 Q-128.75 52.15 -128.5 51.1 -127.8 48.0 -127.15 46.75 -126.4 45.05 -124.15 45.7 -122.05 46.4 -122.05 47.85 L-122.05 48.4 -121.9 49.1 -121.1 52.0 Q-118.1 51.85 -118.1 52.9 -118.1 53.6 -118.75 55.35 L-117.25 60.7 -116.05 64.15 Q-113.2 64.5 -112.9 66.1 -112.75 67.25 -112.85 69.9 L-110.0 75.55 Q-107.95 75.15 -106.75 76.45 -104.5 79.55 -103.5 81.4 L-102.5 81.15 Q-99.55 80.45 -98.4 84.1 -98.25 84.95 -96.6 87.85 L-95.7 89.35 -93.35 90.1 Q-89.05 91.9 -88.0 93.6 -87.75 94.35 -87.75 95.8 L-87.55 98.25 Q-87.35 99.45 -85.85 100.1 L-85.3 100.05 -81.95 101.05 Q-78.95 102.05 -77.5 102.05 -74.45 102.05 -74.1 99.4 L-73.6 95.65 Q-72.7 94.65 -67.8 94.8 L-62.45 95.1 -54.65 96.2 -54.7 95.3 -54.55 95.1 Q-54.4 94.8 -53.75 94.8 -52.35 94.8 -52.35 96.75 -52.3 97.7 -52.65 98.8 -52.65 101.7 -50.35 103.25 -47.05 105.45 -38.5 105.5 L-38.15 105.5 Q-39.3 101.15 -39.3 100.25 -39.3 98.95 -35.15 96.45 -31.75 94.45 -29.0 93.5 -27.2 92.8 -26.0 93.5 -24.8 92.6 -22.1 91.35 L-19.85 90.55 -21.1 87.5 -13.45 81.75 Q-8.3 79.05 -6.6 81.75 L-4.5 79.95 Q-2.05 77.95 -0.45 77.2 L-1.35 75.3 5.2 69.3 Q8.7 66.8 10.35 68.15 L15.55 60.1 Q18.55 56.3 20.05 56.6 L21.15 54.0 23.3 49.1 23.3 48.9 21.2 47.9 Q20.35 47.6 20.35 47.15 20.35 45.3 21.3 39.55 22.35 34.05 23.15 31.9 L22.45 31.9 22.1 32.5 21.55 32.25 Q21.3 32.2 21.3 31.7 L21.05 31.55 20.4 30.9 Q20.9 30.05 21.55 29.65 21.75 27.0 22.5 22.05 L23.4 17.45 Q21.95 17.2 21.55 16.7 L21.3 15.85 22.1 5.1 Q22.75 -2.85 23.15 -5.7 L23.15 -6.15 Q23.15 -7.0 23.65 -9.5 L24.2 -13.1 21.3 -14.75 21.4 -15.35 21.2 -16.0 Q21.2 -16.9 23.0 -22.9 L24.5 -27.8 Q22.5 -28.15 21.9 -29.35 L21.8 -29.8 21.75 -29.9 21.8 -29.9 21.75 -31.4 Q22.4 -39.8 22.35 -43.8 21.9 -48.0 21.8 -50.05 L21.8 -50.4 Q18.3 -50.65 15.15 -52.0 13.95 -53.15 12.2 -53.7 L11.9 -53.75 11.7 -53.85 9.9 -54.45 9.85 -54.2 9.55 -54.1 8.85 -53.9 2.95 -55.55 1.4 -56.05 -18.55 -58.05 -26.0 -59.0 -26.65 -59.15 -26.65 -59.0 M117.2 46.25 L117.35 46.4 117.85 47.05 118.3 47.55 118.35 47.55 120.6 43.15 119.95 42.75 119.5 43.1 119.85 42.65 Q118.95 41.65 118.15 39.45 119.4 39.5 121.05 41.25 L121.3 41.05 121.15 41.25 121.15 41.3 121.4 41.65 123.25 37.95 122.2 37.5 122.15 37.9 Q121.5 36.35 118.3 35.4 L115.0 33.2 Q103.5 29.05 100.05 27.25 L100.05 26.45 113.25 29.7 Q118.3 31.25 121.2 32.95 L121.7 30.65 122.15 26.95 113.4 25.0 113.4 24.45 118.95 24.25 122.35 24.8 122.6 22.1 Q122.75 19.15 123.65 17.45 L121.15 17.9 109.25 18.05 91.8 18.75 Q91.3 18.75 90.75 18.45 L87.35 18.25 86.55 18.25 85.65 18.05 94.5 17.2 110.15 15.55 121.15 15.35 123.0 15.0 126.45 13.8 Q128.6 13.15 128.6 10.1 L129.0 7.65 118.0 7.15 116.85 6.15 118.0 5.1 Q123.5 4.6 127.55 5.2 L129.4 5.45 131.0 -4.9 130.9 -4.9 124.3 -5.45 121.15 -6.75 Q123.5 -7.25 123.5 -7.45 L130.5 -7.3 131.2 -7.1 131.25 -8.35 Q131.25 -11.45 128.5 -13.85 126.45 -15.45 123.4 -16.3 L121.0 -16.0 114.6 -15.95 90.7 -17.05 62.85 -18.25 62.75 -18.4 Q62.55 -18.4 62.55 -19.0 L62.75 -19.6 62.85 -19.6 Q93.3 -19.75 119.4 -18.05 L120.8 -18.25 121.55 -21.1 118.4 -20.8 116.2 -21.2 Q115.9 -21.1 115.9 -22.05 115.9 -22.65 117.85 -23.15 119.85 -23.65 122.15 -22.8 L123.55 -26.6 125.75 -32.1 125.1 -32.1 116.3 -29.0 Q101.35 -24.0 100.05 -23.4 L99.3 -23.5 Q99.05 -23.65 99.05 -24.25 99.05 -26.1 113.95 -31.55 123.25 -34.9 126.75 -35.2 128.35 -36.5 128.85 -37.9 129.0 -40.15 129.5 -41.75 L125.05 -40.65 115.4 -39.45 Q118.9 -41.7 124.05 -43.1 127.55 -44.05 130.15 -43.95 L130.85 -48.0 131.0 -48.85 Q129.65 -48.25 126.95 -47.6 L121.85 -46.75 121.2 -46.8 121.3 -47.0 Q122.2 -48.45 126.6 -49.8 129.8 -50.8 131.2 -50.3 L131.55 -53.6 124.85 -51.9 111.35 -48.95 110.65 -49.1 Q110.4 -49.2 110.4 -49.8 110.4 -50.75 121.7 -53.95 126.95 -55.45 129.75 -55.55 128.1 -56.45 124.95 -57.3 118.4 -59.1 118.4 -59.95 118.4 -61.4 118.8 -62.95 L118.9 -63.15 117.35 -62.95 112.6 -60.55 Q97.9 -53.0 86.7 -43.45 L85.95 -43.95 Q91.65 -50.8 100.7 -56.95 109.6 -63.0 119.05 -66.2 L122.5 -67.9 Q120.0 -76.35 118.1 -80.25 113.85 -77.55 99.75 -71.0 L99.65 -71.2 Q102.8 -74.05 108.7 -77.6 113.6 -80.7 117.25 -82.0 L114.05 -87.95 113.95 -88.1 Q111.3 -86.75 103.5 -84.5 L102.1 -84.05 100.95 -83.6 Q102.55 -84.4 107.7 -87.6 110.7 -89.3 112.9 -89.95 111.15 -92.9 110.7 -92.9 L102.9 -91.95 98.55 -91.15 Q95.65 -89.2 88.9 -85.15 75.15 -76.75 71.05 -73.75 L70.85 -73.75 Q77.35 -80.35 83.05 -84.5 89.55 -89.3 96.35 -92.25 L94.85 -94.05 92.95 -96.65 87.05 -91.75 Q72.55 -79.55 67.15 -74.5 L67.0 -75.0 80.6 -89.95 Q85.8 -95.05 91.1 -98.5 L93.0 -100.55 Q95.3 -102.9 99.05 -104.45 L90.6 -111.45 Q88.25 -109.0 79.25 -103.7 L79.1 -103.7 89.2 -112.55 84.6 -116.1 82.6 -117.55 Q81.2 -115.9 78.05 -113.55 L77.45 -113.9 79.9 -117.5 81.15 -118.65 78.8 -120.2 Q76.5 -117.65 70.3 -111.65 L56.95 -99.1 56.55 -99.35 Q60.5 -105.3 68.9 -113.55 74.0 -118.45 77.35 -121.15 72.65 -124.15 70.45 -124.15 69.25 -124.15 64.3 -121.7 60.5 -119.65 59.05 -119.05 L52.2 -111.9 Q41.3 -100.8 38.2 -97.0 37.95 -97.0 37.8 -97.25 41.1 -101.3 47.55 -110.55 52.9 -117.45 58.6 -121.25 L55.25 -122.8 54.1 -123.4 53.0 -124.0 Q51.5 -122.55 49.25 -120.65 L42.9 -115.25 42.5 -115.35 47.8 -121.8 51.5 -124.9 Q49.25 -126.25 47.9 -127.6 L43.85 -124.45 37.7 -119.75 Q33.1 -114.35 18.95 -99.35 18.4 -99.45 18.35 -99.7 21.6 -103.5 28.0 -112.25 32.1 -117.45 36.0 -120.85 L36.1 -120.95 Q34.15 -121.15 31.45 -122.3 L31.4 -122.3 29.75 -120.35 26.05 -116.25 25.25 -116.7 Q26.0 -118.75 27.6 -121.0 L29.55 -123.2 29.4 -123.35 Q24.95 -124.15 22.7 -125.65 L19.75 -123.05 17.35 -119.15 Q12.2 -110.95 10.0 -106.65 L9.8 -106.65 17.15 -121.85 Q21.8 -130.8 24.65 -132.35 L24.8 -132.1 25.0 -132.4 Q22.45 -134.2 15.4 -136.5 L6.25 -123.3 Q0.45 -114.85 -2.55 -109.0 L-9.6 -94.55 -12.05 -87.25 Q-13.45 -82.7 -14.5 -80.85 -4.8 -116.05 14.45 -136.85 L10.9 -137.95 6.35 -139.2 1.55 -140.35 Q1.1 -139.05 -4.95 -129.15 L-15.0 -112.1 -15.6 -112.3 -14.3 -115.6 Q-13.25 -118.25 -13.25 -119.15 -13.25 -121.3 -6.75 -131.0 L0.05 -140.65 -5.5 -141.3 Q-10.0 -141.3 -14.1 -136.65 L-15.0 -135.3 Q-16.15 -132.7 -20.55 -125.3 -25.45 -116.95 -28.0 -113.2 L-28.1 -113.7 Q-25.1 -120.85 -20.0 -129.7 L-19.05 -131.25 -19.2 -131.85 -18.85 -133.3 -18.95 -133.3 -25.15 -133.8 -25.4 -133.85 -25.6 -133.95 -25.75 -133.35 Q-26.05 -132.3 -26.5 -131.45 L-26.55 -131.1 Q-27.6 -125.9 -28.75 -124.3 L-29.35 -124.4 Q-29.55 -124.45 -29.55 -125.0 L-29.4 -126.45 -28.4 -132.2 -28.0 -134.15 -28.0 -134.45 -29.0 -133.65 Q-28.35 -134.8 -28.35 -135.9 -28.35 -137.25 -27.55 -138.75 L-34.0 -138.2 Q-34.15 -134.95 -35.05 -130.65 -36.4 -124.45 -36.75 -121.25 L-37.15 -121.25 -36.6 -130.8 Q-36.25 -135.15 -35.3 -138.0 -43.25 -137.15 -48.5 -135.45 L-43.55 -138.65 Q-54.45 -133.15 -55.35 -132.4 L-55.9 -131.75 Q-57.35 -130.5 -58.0 -129.15 L-57.2 -128.9 -58.35 -128.3 Q-58.9 -126.6 -58.1 -124.5 -58.45 -124.15 -58.9 -124.15 L-55.9 -116.6 Q-56.0 -116.2 -56.55 -115.9 -57.2 -116.6 -59.15 -121.25 -61.2 -125.85 -61.2 -126.6 L-61.2 -126.85 -64.4 -125.1 -66.65 -123.75 Q-68.6 -123.7 -68.8 -122.45 L-70.0 -121.75 -70.0 -121.6 Q-69.6 -119.9 -69.6 -118.8 L-69.65 -116.1 -70.05 -116.1 -71.7 -120.7 -73.3 -119.25 -74.85 -117.7 -75.5 -117.05 -77.75 -114.95 -76.85 -113.25 -76.85 -112.4 -76.55 -112.4 -76.45 -112.5 -73.75 -107.15 -73.95 -106.4 -74.5 -106.3 Q-75.6 -106.7 -77.9 -110.6 L-78.4 -110.6 Q-78.95 -110.6 -80.2 -113.4 L-80.4 -113.85 -80.75 -114.3 -80.75 -114.65 -81.85 -116.85 Q-87.5 -113.15 -90.9 -109.6 L-90.05 -107.85 -89.5 -106.3 -89.4 -105.2 -89.6 -104.8 Q-90.1 -105.1 -91.55 -107.5 L-92.05 -108.4 -93.3 -106.8 Q-96.35 -102.75 -95.7 -98.85 L-95.5 -98.6 -95.6 -98.35 -95.5 -97.75 Q-94.3 -97.6 -93.35 -96.15 -92.15 -94.35 -92.3 -92.75 L-92.55 -92.5 -94.85 -94.7 -95.85 -95.8 -96.05 -95.8 -96.8 -95.95 -97.15 -96.15 -98.65 -94.0 Q-101.8 -93.35 -102.55 -88.95 L-103.85 -87.6 Q-103.5 -86.9 -103.5 -85.4 L-103.6 -84.7 -102.65 -83.3 -102.55 -83.05 -102.25 -82.75 -100.5 -80.1 -101.1 -79.4 Q-102.4 -80.35 -104.75 -83.2 L-105.75 -84.35 -106.6 -84.35 Q-107.3 -84.35 -108.95 -81.2 L-110.5 -77.95 Q-110.5 -76.35 -106.35 -68.65 L-106.6 -67.7 -107.4 -67.4 Q-108.75 -67.45 -111.55 -72.1 L-112.75 -74.15 -114.45 -70.85 Q-117.2 -66.05 -117.2 -65.5 L-116.4 -58.95 Q-116.4 -54.7 -116.8 -51.9 L-117.45 -47.6 -116.75 -48.85 -113.4 -54.25 -112.9 -55.0 -113.3 -55.55 Q-113.8 -56.75 -113.8 -57.5 L-113.4 -58.85 -112.85 -60.05 -112.1 -57.5 -111.75 -56.55 Q-109.85 -58.65 -106.85 -59.75 L-103.2 -60.6 -103.2 -60.7 -102.15 -65.15 -101.85 -65.15 Q-101.1 -63.4 -101.1 -60.9 -96.35 -61.2 -90.2 -59.85 L-90.55 -61.7 -91.0 -65.8 Q-91.0 -72.55 -89.05 -75.85 L-89.3 -71.55 -89.05 -66.1 Q-88.7 -61.7 -87.7 -60.55 L-87.05 -58.2 -83.55 -59.15 -84.1 -60.35 Q-84.45 -61.8 -84.45 -63.4 -84.1 -65.85 -84.1 -67.2 L-83.4 -67.2 Q-82.95 -66.1 -82.6 -62.95 L-82.05 -59.6 -81.25 -59.85 -76.95 -60.85 -75.15 -61.2 -75.15 -61.3 -74.9 -63.25 -74.85 -65.3 -74.9 -68.55 Q-74.9 -77.45 -69.4 -90.65 -63.6 -104.7 -56.55 -110.45 L-56.0 -110.35 Q-55.75 -110.2 -55.75 -109.7 -55.75 -108.2 -59.95 -101.7 -65.15 -95.1 -67.8 -89.25 -70.2 -84.05 -71.15 -78.25 -72.65 -71.95 -72.65 -65.6 L-72.55 -62.75 -72.05 -60.6 -72.05 -60.4 -71.35 -58.0 -71.2 -58.0 -68.6 -58.75 -67.85 -63.3 -67.05 -67.9 -66.5 -67.9 -66.3 -66.2 -66.6 -58.95 -63.4 -59.15 -60.05 -59.2 -54.85 -59.3 -55.1 -61.05 Q-55.1 -66.95 -50.5 -78.35 -46.05 -89.55 -42.4 -93.1 L-42.3 -92.5 Q-42.3 -92.25 -47.85 -79.6 -53.1 -66.55 -53.25 -59.35 L-44.55 -59.5 Q-44.4 -61.35 -43.55 -64.4 L-43.8 -67.1 Q-43.8 -72.1 -42.75 -74.9 -41.85 -77.2 -38.15 -83.6 L-37.7 -83.45 -37.5 -82.85 -39.5 -78.15 Q-41.6 -73.65 -41.65 -71.35 L-41.75 -65.95 -41.65 -63.25 -41.15 -61.45 -39.65 -62.3 -37.4 -63.5 Q-32.8 -65.8 -30.7 -66.55 L-31.1 -69.5 -31.35 -70.5 Q-31.35 -74.25 -29.35 -70.6 -27.55 -67.1 -27.2 -63.6 -26.1 -61.65 -22.75 -61.3 L-21.3 -61.2 -20.65 -64.35 Q-20.0 -66.95 -19.35 -67.3 L-18.8 -67.2 Q-18.55 -67.05 -18.55 -66.45 L-18.7 -63.55 -18.8 -61.2 -12.3 -61.2 -7.85 -60.8 Q-7.8 -63.75 -1.75 -72.6 3.1 -79.75 5.3 -82.0 5.1 -80.9 3.6 -79.25 2.35 -77.8 2.35 -76.7 2.35 -76.1 -1.35 -69.25 -4.5 -63.6 -5.6 -60.45 L2.05 -59.5 Q2.35 -60.55 3.6 -63.3 L5.1 -67.2 5.3 -67.3 5.45 -66.1 5.7 -67.2 6.1 -67.3 5.6 -65.0 5.7 -64.6 5.6 -59.85 5.2 -58.4 7.55 -58.15 9.45 -57.65 10.0 -61.15 Q10.65 -64.7 11.45 -65.5 L11.6 -65.6 Q12.55 -64.25 12.4 -61.45 L12.1 -57.4 Q12.1 -56.8 15.0 -55.45 L20.95 -53.7 21.9 -53.4 Q22.05 -54.85 22.5 -55.9 L23.25 -52.95 27.65 -51.65 27.75 -51.65 28.3 -52.3 31.55 -56.2 Q35.5 -61.3 37.4 -62.8 L37.95 -62.75 38.2 -62.05 Q38.2 -61.4 33.8 -55.0 30.45 -50.2 29.1 -48.9 L28.4 -48.45 28.3 -48.45 Q25.8 -49.15 23.8 -49.8 L23.95 -48.6 24.85 -40.75 24.1 -31.95 Q24.1 -31.35 24.5 -30.75 27.15 -30.45 30.1 -29.05 L31.9 -28.2 32.9 -27.7 34.1 -27.05 Q38.55 -31.55 42.1 -33.4 L38.35 -27.8 Q35.3 -23.6 34.4 -23.6 L31.8 -25.2 31.6 -25.35 31.4 -25.5 29.2 -27.2 26.2 -27.75 25.8 -27.75 25.5 -27.75 25.65 -26.7 25.35 -21.8 24.15 -16.55 Q26.0 -16.35 28.75 -14.95 L34.4 -11.45 35.5 -10.7 Q42.5 -5.8 45.85 -2.2 45.45 -1.25 44.85 -1.25 L34.3 -7.25 33.75 -7.55 26.2 -11.9 Q25.5 -8.0 24.8 -6.05 L25.25 -3.6 25.1 3.75 24.5 15.0 28.0 15.1 28.25 15.35 28.4 16.05 Q28.4 17.55 24.85 17.55 25.25 19.4 25.25 20.5 25.25 21.7 23.95 26.8 L23.3 29.2 23.6 29.3 Q24.8 29.55 26.85 30.5 L27.05 31.0 Q26.95 31.4 25.65 31.7 L23.65 31.9 23.6 31.9 24.3 35.2 Q24.5 35.9 24.5 38.05 24.5 39.5 23.5 46.0 25.25 46.2 26.15 46.95 26.55 47.4 26.55 47.85 26.55 48.75 23.95 53.5 L21.2 57.9 Q21.6 59.1 21.6 61.35 L21.6 61.95 21.3 62.05 Q20.8 62.2 18.6 60.95 L15.1 66.0 Q12.95 68.9 11.45 70.25 L11.55 72.5 11.35 73.75 Q11.2 74.15 10.4 74.15 9.25 73.45 8.9 72.6 L8.1 70.85 4.3 73.2 Q1.4 75.15 1.4 75.55 1.4 76.3 2.45 78.7 L4.0 82.15 Q3.85 82.65 3.35 82.75 L0.75 79.2 0.35 78.55 -2.05 80.7 Q-4.5 82.5 -6.05 83.1 -5.8 84.05 -5.8 85.45 -5.8 86.4 -6.05 86.9 L-7.5 85.95 Q-8.7 84.95 -8.6 84.35 -11.2 84.8 -14.5 86.15 -17.75 87.55 -17.75 88.2 L-15.25 96.05 Q-15.25 96.95 -15.4 96.75 L-16.45 96.95 Q-16.95 96.95 -18.65 93.15 L-20.65 94.05 -24.55 95.55 Q-24.0 97.2 -23.5 100.45 L-25.75 99.1 -28.0 97.15 -32.8 99.85 -35.8 101.5 -34.65 106.1 Q-34.65 107.55 -35.0 108.05 -35.55 108.65 -37.55 108.65 -48.8 108.65 -52.7 105.15 -54.95 103.15 -54.95 99.0 L-54.9 98.8 -61.2 98.35 -68.45 98.35 -70.95 98.35 Q-70.95 99.9 -72.8 102.2 -74.7 104.7 -76.7 105.0 L-77.05 103.85 -77.35 103.85 -77.35 105.0 Q-82.25 105.0 -85.1 103.5 L-86.3 102.75 Q-88.75 102.45 -89.8 100.6 -90.25 99.75 -90.55 96.9 -90.8 94.6 -92.55 93.15 -94.7 91.35 -98.25 92.9 L-98.4 92.05 -98.15 90.7 -99.4 88.7 Q-100.6 86.4 -101.1 83.75 L-104.25 84.55 -105.4 83.55 Q-105.4 82.85 -105.0 82.35 L-106.85 80.3 Q-108.8 77.75 -108.95 77.75 -110.3 77.75 -110.95 78.2 L-112.5 79.1 -114.05 78.05 Q-114.05 77.2 -111.75 76.15 L-119.65 65.0 -119.55 64.25 -119.0 64.25 Q-119.8 62.9 -120.15 61.1 -120.5 57.05 -121.1 55.25 -123.05 54.85 -123.9 52.4 L-124.4 50.0 -124.25 48.75 -124.8 48.7 Q-125.05 51.1 -127.7 55.6 L-130.2 60.25 -129.85 61.45 -130.35 62.6 -129.65 61.9 -129.5 62.55 -127.7 62.2 -126.9 62.9 Q-126.4 63.25 -126.4 63.55 L-127.3 64.55 -126.65 65.55 -126.8 65.7 Q-130.15 69.3 -130.5 70.65 L-131.25 71.35 Q-131.25 71.95 -130.05 74.2 L-128.35 77.0 -127.95 76.95 Q-127.7 75.75 -126.8 76.45 L-125.75 75.9 -124.8 76.15 -124.6 76.15 -125.55 77.85 Q-124.8 78.85 -124.0 80.45 -122.7 79.05 -121.5 79.05 -120.2 79.05 -120.15 80.55 L-120.3 81.1 Q-121.9 81.7 -123.25 83.65 L-123.25 83.7 Q-125.55 85.4 -125.55 87.5 -125.55 88.1 -123.35 90.4 -120.9 93.0 -120.75 93.5 L-119.45 93.0 Q-119.3 91.65 -118.1 92.4 L-117.2 92.0 -116.0 93.0 -116.55 93.9 Q-115.6 94.95 -114.75 96.3 -112.85 93.4 -110.95 93.35 L-110.75 94.2 Q-110.75 94.85 -111.75 97.2 L-112.55 99.0 -113.65 101.0 Q-110.8 102.55 -109.25 104.5 L-106.1 108.3 Q-105.9 107.4 -104.85 107.7 L-103.05 106.75 -101.65 106.95 -101.6 106.95 -101.5 107.55 Q-101.5 108.05 -102.4 109.15 -100.7 110.5 -98.75 112.45 -97.9 112.1 -97.2 110.35 -96.65 108.8 -95.6 108.8 -94.0 108.8 -94.25 110.6 -94.25 111.2 -95.85 113.8 L-97.85 116.7 Q-97.2 117.2 -94.4 118.3 -93.15 118.8 -92.3 119.25 -91.0 115.5 -91.0 114.05 L-90.6 110.35 -90.35 106.6 Q-89.7 102.75 -88.5 104.65 -87.3 106.4 -87.3 108.3 L-87.5 112.35 -87.9 114.15 -88.7 118.25 -89.4 120.05 Q-91.55 124.8 -91.55 127.75 -91.55 128.1 -87.75 129.7 L-82.35 131.65 Q-80.85 129.8 -78.65 125.05 L-78.4 125.05 -78.4 129.8 -78.4 130.8 Q-77.4 130.9 -77.5 132.6 L-77.65 137.3 -75.85 138.1 -75.8 138.1 -74.85 138.5 Q-72.15 139.45 -69.25 139.45 L-66.8 139.35 -66.45 139.35 Q-64.85 139.2 -64.1 139.35 -64.1 138.15 -63.25 136.05 -62.45 134.0 -62.6 132.5 L-62.4 132.4 -60.9 136.5 -60.85 138.15 -60.1 138.0 -46.75 140.55 Q-46.9 139.4 -46.3 137.65 -45.5 135.4 -45.4 134.6 L-45.2 134.6 -44.1 138.15 -43.8 139.6 -40.25 139.0 -28.35 138.15 -27.45 130.9 -27.2 130.9 Q-26.5 131.75 -25.45 135.1 -24.55 134.3 -22.0 133.6 -17.85 132.4 -15.0 133.25 L-15.4 130.8 -14.75 128.35 Q-14.05 126.75 -14.1 126.15 L-13.85 126.15 -12.85 129.4 -12.3 131.3 Q-11.9 131.05 -11.4 130.9 L-8.8 129.95 -8.0 128.6 Q-7.4 127.65 -6.25 127.65 -5.25 127.65 -4.65 128.5 L-4.1 129.4 -3.15 129.4 -0.8 129.2 5.3 128.15 4.9 124.95 5.3 123.05 5.85 121.1 6.1 121.1 7.65 124.55 10.15 122.35 10.4 122.2 Q14.6 118.55 14.9 118.55 15.8 118.55 16.35 119.15 L17.15 119.75 Q20.9 119.75 23.3 116.7 25.0 114.55 25.0 113.3 25.0 112.35 28.9 108.55 L30.25 107.35 30.2 107.2 30.25 106.7 30.35 106.85 Q30.6 106.45 31.3 106.4 32.85 104.95 33.5 104.65 L34.0 104.75 Q34.3 104.85 34.3 105.35 L33.0 107.3 33.2 107.35 Q34.8 107.35 38.1 102.95 L42.5 96.9 40.7 94.5 Q39.35 92.5 39.35 91.9 39.35 88.85 42.5 91.9 L49.1 81.4 47.5 80.75 Q47.0 82.5 43.3 87.65 L42.65 87.5 Q42.5 87.4 42.5 86.8 42.5 84.7 43.3 82.85 44.1 81.0 44.1 79.45 44.1 78.55 38.85 74.3 L36.75 72.6 36.2 72.85 35.2 70.9 Q33.5 68.9 33.5 67.25 33.5 66.85 33.75 66.8 L33.5 65.6 Q33.5 65.0 34.1 63.8 L33.85 61.85 Q33.85 59.75 34.15 57.65 34.4 56.1 34.75 55.0 L33.85 54.15 33.65 53.0 35.05 42.35 Q33.85 43.0 32.3 43.3 L31.65 43.3 Q31.55 43.3 31.55 42.75 31.55 41.5 33.25 39.5 35.1 37.25 35.85 34.1 L36.1 28.45 36.2 25.55 36.2 25.5 36.25 25.3 36.25 25.2 36.25 25.15 Q37.2 21.95 39.8 19.05 L39.5 24.2 38.85 35.4 Q38.85 37.95 37.8 39.8 L37.8 40.3 37.3 45.85 Q36.65 49.35 36.65 51.1 36.65 52.0 37.05 52.65 L37.55 52.9 37.8 53.65 37.95 54.25 37.8 55.0 37.7 55.05 37.0 59.85 Q36.2 64.35 36.2 66.25 36.2 66.75 36.65 67.55 L37.0 68.7 40.55 71.75 45.25 76.45 46.75 76.9 44.9 72.0 Q42.9 66.3 42.9 65.05 42.9 64.5 43.3 64.35 L43.65 64.25 Q44.75 65.75 46.7 71.0 48.6 75.8 48.6 76.5 L48.45 77.5 49.35 77.85 Q52.75 79.4 52.75 79.95 52.75 80.65 51.0 83.7 L51.7 84.35 52.65 85.65 54.2 89.1 69.4 87.1 Q72.25 87.1 72.9 82.35 L72.25 78.35 71.2 68.15 69.1 58.8 67.4 51.55 Q67.4 51.05 67.55 51.05 L68.1 51.1 Q72.2 58.4 73.85 67.55 74.4 71.6 74.8 78.95 L75.35 83.1 Q77.65 81.85 82.5 80.05 81.95 79.05 81.45 77.1 L80.4 72.7 Q80.4 72.15 80.7 72.0 L81.2 71.95 Q82.75 73.4 83.4 75.75 L84.25 79.4 93.4 75.9 Q92.75 73.8 92.75 71.6 L92.8 71.05 91.3 68.05 Q85.3 56.15 83.05 52.55 83.15 52.2 83.7 52.2 85.4 54.0 91.45 64.4 96.8 73.55 97.65 76.5 100.05 74.9 104.35 71.0 103.65 70.5 103.0 69.05 102.15 67.4 102.15 66.85 L102.35 64.65 102.9 64.65 105.65 69.9 106.0 69.5 Q112.0 63.9 112.0 63.15 112.0 62.65 110.65 60.4 108.25 57.8 104.25 51.55 99.45 44.2 94.15 34.45 94.95 34.1 94.95 33.95 105.35 46.55 112.15 58.55 L112.5 58.85 112.5 58.75 117.35 49.6 115.4 47.85 Q113.7 45.8 113.7 44.9 115.4 44.6 117.2 46.25 M-59.7 -127.65 L-60.2 -127.45 -59.9 -126.7 -59.7 -127.65" fill="#231b14" fill-rule="evenodd" stroke="none"/>
      <path d="M55.25 -122.8 L39.65 -105.1 24.6 -88.15 Q25.55 -87.2 28.9 -85.45 L27.95 -83.7 29.4 -82.95 24.15 -76.55 Q22.25 -74.15 21.3 -72.2 L20.9 -69.95 Q20.9 -68.55 23.7 -67.05 L26.9 -65.45 Q26.25 -63.55 24.95 -63.15 23.9 -62.8 23.9 -61.7 L23.9 -61.45 24.4 -60.8 Q27.75 -56.3 28.3 -52.3 L27.75 -51.65 27.65 -51.65 23.25 -52.95 22.5 -55.9 Q22.05 -54.85 21.9 -53.4 L20.95 -53.7 15.0 -55.45 Q12.1 -56.8 12.1 -57.4 L12.4 -61.45 Q12.55 -64.25 11.6 -65.6 L11.55 -65.7 11.45 -65.5 Q10.65 -64.7 10.0 -61.15 L9.45 -57.65 7.55 -58.15 5.2 -58.4 5.6 -59.85 5.7 -64.6 5.6 -65.0 6.1 -67.3 5.7 -67.2 5.45 -66.1 5.3 -67.3 5.1 -67.2 3.6 -63.3 Q2.35 -60.55 2.05 -59.5 L-5.6 -60.45 Q-4.5 -63.6 -1.35 -69.25 2.35 -76.1 2.35 -76.7 2.35 -77.8 3.6 -79.25 5.1 -80.9 5.3 -82.0 3.1 -79.75 -1.75 -72.6 -7.8 -63.75 -7.85 -60.8 L-12.3 -61.2 -18.8 -61.2 -18.7 -63.55 -18.55 -66.45 Q-18.55 -67.05 -18.8 -67.2 L-19.35 -67.3 Q-20.0 -66.95 -20.65 -64.35 L-21.3 -61.2 -22.75 -61.3 Q-26.1 -61.65 -27.2 -63.6 -27.55 -67.1 -29.35 -70.6 -31.35 -74.25 -31.35 -70.5 L-31.1 -69.5 -30.7 -66.55 Q-32.8 -65.8 -37.4 -63.5 L-39.65 -62.3 -41.15 -61.45 -41.65 -63.25 -41.75 -65.95 -41.65 -71.35 Q-41.6 -73.65 -39.5 -78.15 L-37.5 -82.85 -37.7 -83.45 -38.15 -83.6 Q-41.85 -77.2 -42.75 -74.9 -43.8 -72.1 -43.8 -67.1 L-43.55 -64.4 Q-44.4 -61.35 -44.55 -59.5 L-53.25 -59.35 Q-53.1 -66.55 -47.85 -79.6 -42.3 -92.25 -42.3 -92.5 L-42.4 -93.1 Q-46.05 -89.55 -50.5 -78.35 -55.1 -66.95 -55.1 -61.05 L-54.85 -59.3 -60.05 -59.2 -59.3 -63.45 -57.6 -72.45 Q-57.1 -76.15 -54.6 -78.7 -51.85 -81.6 -51.6 -82.45 L-49.95 -88.8 Q-48.8 -93.2 -48.1 -94.45 -46.4 -97.5 -43.95 -98.1 -41.75 -98.65 -41.1 -100.45 -40.85 -101.2 -40.6 -106.15 -40.4 -110.15 -39.1 -111.45 -36.0 -113.05 -34.65 -114.25 -33.25 -115.5 -32.6 -117.45 L-29.4 -126.45 -29.55 -125.0 Q-29.55 -124.45 -29.35 -124.4 L-28.75 -124.3 Q-27.6 -125.9 -26.55 -131.1 L-26.5 -131.45 Q-26.05 -132.3 -25.75 -133.35 L-25.4 -133.85 -25.15 -133.8 -18.95 -133.3 -18.85 -133.3 -19.2 -131.85 -19.05 -131.25 -20.0 -129.7 Q-25.1 -120.85 -28.1 -113.7 L-28.0 -113.2 Q-25.45 -116.95 -20.55 -125.3 -16.15 -132.7 -15.0 -135.3 L-14.1 -136.65 Q-10.0 -141.3 -5.5 -141.3 L0.05 -140.65 -6.75 -131.0 Q-13.25 -121.3 -13.25 -119.15 -13.25 -118.25 -14.3 -115.6 L-15.6 -112.3 -15.0 -112.1 -4.95 -129.15 Q1.1 -139.05 1.55 -140.35 L6.35 -139.2 10.9 -137.95 14.45 -136.85 Q-4.8 -116.05 -14.5 -80.85 -13.45 -82.7 -12.05 -87.25 L-9.6 -94.55 -2.55 -109.0 Q0.45 -114.85 6.25 -123.3 L15.4 -136.5 Q22.45 -134.2 25.0 -132.4 L24.8 -132.1 24.65 -132.35 Q21.8 -130.8 17.15 -121.85 L9.8 -106.65 10.0 -106.65 Q12.2 -110.95 17.35 -119.15 L19.75 -123.05 22.7 -125.65 Q24.95 -124.15 29.4 -123.35 L29.55 -123.2 27.6 -121.0 Q26.0 -118.75 25.25 -116.7 L26.05 -116.25 29.75 -120.35 31.4 -122.3 31.45 -122.3 Q34.15 -121.15 36.1 -120.95 L36.0 -120.85 Q32.1 -117.45 28.0 -112.25 21.6 -103.5 18.35 -99.7 18.4 -99.45 18.95 -99.35 33.1 -114.35 37.7 -119.75 L43.85 -124.45 47.9 -127.6 Q49.25 -126.25 51.5 -124.9 L47.8 -121.8 42.5 -115.35 42.9 -115.25 49.25 -120.65 Q51.5 -122.55 53.0 -124.0 L54.1 -123.4 55.25 -122.8 M29.1 -48.9 Q30.45 -46.65 31.4 -45.95 30.85 -44.3 28.25 -40.35 L27.1 -38.1 26.9 -35.2 Q26.9 -32.7 28.2 -32.1 30.9 -30.95 31.9 -29.95 L31.9 -28.9 Q32.9 -28.3 32.9 -27.95 L32.9 -27.7 31.9 -28.2 30.1 -29.05 Q27.15 -30.45 24.5 -30.75 24.1 -31.35 24.1 -31.95 L24.85 -40.75 23.95 -48.6 23.8 -49.8 Q25.8 -49.15 28.3 -48.45 L28.4 -48.45 29.1 -48.9 M31.8 -25.2 L30.4 -23.15 28.8 -20.8 27.95 -18.45 28.0 -17.75 Q28.45 -16.6 31.15 -14.95 34.35 -13.0 34.4 -11.45 L28.75 -14.95 Q26.0 -16.35 24.15 -16.55 L25.35 -21.8 25.65 -26.7 25.5 -27.75 25.8 -27.75 26.2 -27.75 29.2 -27.2 31.4 -25.5 31.6 -25.35 31.8 -25.2 M34.3 -7.25 L33.9 -1.05 Q33.4 7.0 33.4 11.55 33.4 13.7 32.65 15.3 L32.9 19.3 Q32.9 24.45 32.3 27.5 L32.4 27.55 32.15 28.05 Q31.55 30.55 30.4 31.4 L30.35 31.45 29.55 32.95 28.3 35.4 Q27.9 37.65 27.9 41.55 L28.4 45.8 28.35 47.3 28.4 47.85 28.9 53.3 29.35 54.65 Q29.6 55.05 28.9 55.05 28.05 55.05 24.4 62.05 L24.05 62.75 Q24.25 63.6 24.95 64.4 26.1 65.75 27.4 65.55 L26.95 66.4 27.1 67.0 Q27.2 67.55 26.4 67.55 25.8 67.55 26.4 67.8 27.05 68.05 26.4 68.05 L24.4 69.55 23.05 69.25 21.9 68.55 Q21.15 69.3 20.9 70.0 L20.7 72.75 Q20.6 75.55 21.4 75.55 22.15 75.55 22.1 76.1 L21.9 77.55 Q21.9 78.75 21.0 79.95 L22.4 81.55 Q21.9 81.55 21.9 81.15 L21.9 81.55 21.45 81.75 21.4 81.65 21.35 82.0 20.4 82.05 Q19.8 82.05 19.1 82.5 L18.4 82.55 16.9 82.55 Q16.15 82.55 16.0 83.45 L16.0 83.7 15.9 83.9 15.9 84.55 15.65 85.0 Q15.4 85.35 15.4 86.05 L16.4 89.0 Q17.4 92.0 17.4 93.3 L17.15 94.95 16.9 96.05 16.65 96.8 16.4 97.55 Q15.9 97.55 15.9 97.05 14.1 97.95 13.15 98.05 L13.4 99.8 13.35 101.05 Q12.85 105.7 8.7 110.5 4.75 115.0 0.9 116.55 0.9 117.35 1.4 118.75 L1.9 120.8 Q1.9 122.05 -1.1 124.05 -4.1 126.05 -4.1 127.3 L-3.6 128.55 -3.15 129.4 -4.1 129.4 -4.65 128.5 Q-5.25 127.65 -6.25 127.65 -7.4 127.65 -8.0 128.6 L-8.8 129.95 -11.4 130.9 Q-11.9 131.05 -12.3 131.3 L-12.85 129.4 -13.85 126.15 -14.1 126.15 Q-14.05 126.75 -14.75 128.35 L-15.4 130.8 -15.0 133.25 Q-17.85 132.4 -22.0 133.6 -24.55 134.3 -25.45 135.1 -26.5 131.75 -27.2 130.9 L-27.45 130.9 -28.35 138.15 -40.25 139.0 -43.8 139.6 -44.1 138.15 -45.2 134.6 -45.4 134.6 Q-45.5 135.4 -46.3 137.65 -46.9 139.4 -46.75 140.55 L-60.1 138.0 -60.85 138.15 -60.9 136.5 -62.4 132.4 -62.6 132.5 Q-62.45 134.0 -63.25 136.05 -64.1 138.15 -64.1 139.35 -64.85 139.2 -66.45 139.35 L-66.6 136.8 -66.35 134.5 -66.15 133.0 -66.1 133.05 -66.1 132.25 -66.15 133.0 -66.6 132.05 -66.65 131.9 Q-66.9 131.25 -67.1 131.05 L-67.1 113.7 -67.4 113.25 -68.1 112.05 -67.6 112.05 Q-67.6 112.45 -67.35 112.2 L-67.15 111.95 Q-66.75 112.5 -67.1 111.55 L-67.15 111.95 -67.2 111.9 -67.85 111.05 Q-68.6 111.05 -68.75 110.7 -68.85 110.05 -69.1 109.55 -69.1 109.85 -69.4 109.75 L-70.1 109.55 -70.35 110.05 -70.55 110.3 -69.0 101.7 -68.45 98.35 -61.2 98.35 -54.9 98.8 -54.95 99.0 Q-54.95 103.15 -52.7 105.15 -48.8 108.65 -37.55 108.65 -35.55 108.65 -35.0 108.05 -34.65 107.55 -34.65 106.1 L-35.8 101.5 -32.8 99.85 -28.0 97.15 -25.75 99.1 -23.5 100.45 Q-24.0 97.2 -24.55 95.55 L-20.65 94.05 -18.65 93.15 Q-16.95 96.95 -16.45 96.95 L-15.4 96.75 Q-15.25 96.95 -15.25 96.05 L-17.75 88.2 Q-17.75 87.55 -14.5 86.15 -11.2 84.8 -8.6 84.35 -8.7 84.95 -7.5 85.95 L-6.05 86.9 Q-5.8 86.4 -5.8 85.45 -5.8 84.05 -6.05 83.1 -4.5 82.5 -2.05 80.7 L0.35 78.55 0.75 79.2 3.35 82.75 Q3.85 82.65 4.0 82.15 L2.45 78.7 Q1.4 76.3 1.4 75.55 1.4 75.15 4.3 73.2 L8.1 70.85 8.9 72.6 Q9.25 73.45 10.4 74.15 11.2 74.15 11.35 73.75 L11.55 72.5 11.45 70.25 Q12.95 68.9 15.1 66.0 L18.6 60.95 Q20.8 62.2 21.3 62.05 L21.6 61.95 21.6 61.35 Q21.6 59.1 21.2 57.9 L23.95 53.5 Q26.55 48.75 26.55 47.85 26.55 47.4 26.15 46.95 25.25 46.2 23.5 46.0 24.5 39.5 24.5 38.05 24.5 35.9 24.3 35.2 L23.6 31.9 23.65 31.9 25.65 31.7 Q26.95 31.4 27.05 31.0 L26.85 30.5 Q24.8 29.55 23.6 29.3 L23.3 29.2 23.95 26.8 Q25.25 21.7 25.25 20.5 25.25 19.4 24.85 17.55 28.4 17.55 28.4 16.05 L28.25 15.35 28.0 15.1 24.5 15.0 25.1 3.75 25.25 -3.6 24.8 -6.05 Q25.5 -8.0 26.2 -11.9 L33.75 -7.55 34.3 -7.25" fill="#4f3d2c" fill-rule="evenodd" stroke="none"/>
      <path d="M11.45 -65.5 L11.55 -65.7 11.6 -65.6 11.45 -65.5" fill="#333333" fill-rule="evenodd" stroke="none"/>
      <path d="M11.9 -53.75 L9.55 -54.1 9.85 -54.2 9.9 -54.45 11.7 -53.85 11.9 -53.75 M-26.0 -59.0 L-26.65 -59.0 -26.65 -59.15 -26.0 -59.0 M-59.7 -127.65 L-59.9 -126.7 -60.2 -127.45 -59.7 -127.65" fill="#7c6f45" fill-rule="evenodd" stroke="none"/>
      <path d="M39.5 24.2 Q40.6 25.55 42.15 25.55 44.55 25.55 49.6 23.6 55.9 21.15 58.4 20.55 L68.2 19.35 79.9 18.55 Q81.45 18.55 84.1 19.8 86.65 21.05 87.7 22.3 L87.75 22.35 87.85 22.6 89.4 25.7 92.4 32.05 95.9 31.2 Q98.15 30.3 98.9 29.55 101.25 33.15 111.65 43.55 L113.9 41.55 116.75 45.7 117.2 46.25 Q115.4 44.6 113.7 44.9 113.7 45.8 115.4 47.85 L117.35 49.6 112.5 58.75 112.5 58.85 112.15 58.55 Q105.35 46.55 94.95 33.95 94.95 34.1 94.15 34.45 99.45 44.2 104.25 51.55 108.25 57.8 110.65 60.4 112.0 62.65 112.0 63.15 112.0 63.9 106.0 69.5 L105.65 69.9 102.9 64.65 102.35 64.65 102.15 66.85 Q102.15 67.4 103.0 69.05 103.65 70.5 104.35 71.0 100.05 74.9 97.65 76.5 96.8 73.55 91.45 64.4 85.4 54.0 83.7 52.2 83.15 52.2 83.05 52.55 85.3 56.15 91.3 68.05 L92.8 71.05 92.75 71.6 Q92.75 73.8 93.4 75.9 L84.25 79.4 83.4 75.75 Q82.75 73.4 81.2 71.95 L80.7 72.0 Q80.4 72.15 80.4 72.7 L81.45 77.1 Q81.95 79.05 82.5 80.05 77.65 81.85 75.35 83.1 L74.8 78.95 Q74.4 71.6 73.85 67.55 72.2 58.4 68.1 51.1 L67.55 51.05 Q67.4 51.05 67.4 51.55 L69.1 58.8 71.2 68.15 72.25 78.35 72.9 82.35 Q72.25 87.1 69.4 87.1 L54.2 89.1 52.65 85.65 51.7 84.35 51.0 83.7 Q52.75 80.65 52.75 79.95 52.75 79.4 49.35 77.85 L48.45 77.5 48.6 76.5 Q48.6 75.8 46.7 71.0 44.75 65.75 43.65 64.25 L43.3 64.35 Q42.9 64.5 42.9 65.05 42.9 66.3 44.9 72.0 L46.75 76.9 45.25 76.45 40.55 71.75 37.0 68.7 36.65 67.55 Q36.2 66.75 36.2 66.25 36.2 64.35 37.0 59.85 L37.7 55.05 37.8 55.0 37.95 54.25 37.8 53.65 37.55 52.9 37.05 52.65 Q36.65 52.0 36.65 51.1 36.65 49.35 37.3 45.85 L37.8 40.3 37.8 39.8 Q38.85 37.95 38.85 35.4 L39.5 24.2" fill="#35291d" fill-rule="evenodd" stroke="none"/>
      <path d="M-25.4 -133.85 L-25.75 -133.35 -25.6 -133.95 -25.4 -133.85 M-29.4 -126.45 L-32.6 -117.45 Q-33.25 -115.5 -34.65 -114.25 -36.0 -113.05 -39.1 -111.45 -40.4 -110.15 -40.6 -106.15 -40.85 -101.2 -41.1 -100.45 -41.75 -98.65 -43.95 -98.1 -46.4 -97.5 -48.1 -94.45 -48.8 -93.2 -49.95 -88.8 L-51.6 -82.45 Q-51.85 -81.6 -54.6 -78.7 -57.1 -76.15 -57.6 -72.45 L-59.3 -63.45 -60.05 -59.2 -63.4 -59.15 -66.6 -58.95 -66.3 -66.2 -66.5 -67.9 -67.05 -67.9 -67.85 -63.3 -68.6 -58.75 -71.2 -58.0 -71.35 -58.0 -72.05 -60.4 -72.05 -60.6 -72.55 -62.75 -72.65 -65.6 Q-72.65 -71.95 -71.15 -78.25 -71.8 -74.35 -71.8 -70.2 -71.8 -65.4 -71.1 -61.9 L-70.8 -62.45 -70.2 -73.3 Q-69.65 -79.9 -67.85 -84.2 -66.15 -88.35 -60.2 -97.3 -54.85 -105.45 -54.85 -105.95 L-54.55 -107.5 -54.05 -108.65 -59.95 -101.7 Q-55.75 -108.2 -55.75 -109.7 -55.75 -110.2 -56.0 -110.35 L-56.55 -110.45 Q-63.6 -104.7 -69.4 -90.65 -74.9 -77.45 -74.9 -68.55 L-74.85 -65.3 -74.9 -63.25 -75.15 -61.3 -75.15 -61.2 -76.95 -60.85 -81.25 -59.85 -82.05 -59.6 -82.6 -62.95 Q-82.95 -66.1 -83.4 -67.2 L-84.1 -67.2 Q-84.1 -65.85 -84.45 -63.4 -84.45 -61.8 -84.1 -60.35 L-83.55 -59.15 -87.05 -58.2 -87.7 -60.55 -87.55 -60.4 -87.35 -60.7 Q-89.2 -69.25 -87.15 -79.9 -85.7 -87.2 -81.55 -98.65 -84.85 -93.5 -87.1 -85.35 -88.55 -80.25 -89.05 -75.85 -91.0 -72.55 -91.0 -65.8 L-90.55 -61.7 -90.2 -59.85 Q-96.35 -61.2 -101.1 -60.9 -101.1 -63.4 -101.85 -65.15 L-102.15 -65.15 -103.2 -60.7 -103.2 -60.6 -106.85 -59.75 Q-109.85 -58.65 -111.75 -56.55 L-112.1 -57.5 -112.85 -60.05 -113.4 -58.85 -113.8 -57.5 Q-113.8 -56.75 -113.3 -55.55 L-112.9 -55.0 -113.4 -54.25 -116.75 -48.85 -117.45 -47.6 -116.8 -51.9 Q-116.4 -54.7 -116.4 -58.95 L-117.2 -65.5 Q-117.2 -66.05 -114.45 -70.85 L-112.75 -74.15 -111.55 -72.1 Q-108.75 -67.45 -107.4 -67.4 L-106.6 -67.7 -106.35 -68.65 Q-110.5 -76.35 -110.5 -77.95 L-108.95 -81.2 Q-107.3 -84.35 -106.6 -84.35 L-105.75 -84.35 -104.75 -83.2 Q-102.4 -80.35 -101.1 -79.4 L-100.5 -80.1 -102.25 -82.75 -99.85 -80.45 Q-101.35 -83.0 -101.35 -85.35 -101.35 -87.2 -99.35 -89.95 L-96.1 -93.95 -98.65 -94.0 -97.15 -96.15 -96.8 -95.95 -96.05 -95.8 -95.85 -95.8 -94.85 -94.7 -92.55 -92.5 -92.3 -92.75 Q-92.15 -94.35 -93.35 -96.15 -94.3 -97.6 -95.5 -97.75 L-95.6 -98.35 -95.5 -98.6 -95.7 -98.85 Q-96.35 -102.75 -93.3 -106.8 L-92.05 -108.4 -91.55 -107.5 Q-90.1 -105.1 -89.6 -104.8 L-89.4 -105.2 -89.5 -106.3 -87.65 -103.3 Q-85.4 -100.0 -84.6 -99.45 -84.1 -99.7 -84.05 -100.15 -87.85 -106.0 -87.85 -107.45 -87.85 -108.8 -85.7 -111.15 -82.9 -114.25 -82.35 -115.15 L-82.85 -115.45 Q-83.7 -115.45 -86.8 -112.5 -90.05 -109.4 -90.05 -107.85 L-90.9 -109.6 Q-87.5 -113.15 -81.85 -116.85 L-80.75 -114.65 -80.75 -114.3 -80.4 -113.85 -80.2 -113.4 Q-78.95 -110.6 -78.4 -110.6 L-77.9 -110.6 Q-75.6 -106.7 -74.5 -106.3 L-73.95 -106.4 -73.75 -107.15 -76.45 -112.5 Q-75.0 -113.65 -73.7 -115.6 -72.35 -117.55 -72.35 -118.4 -72.35 -119.15 -72.5 -119.3 -72.7 -119.3 -72.85 -119.45 L-73.3 -119.25 -71.7 -120.7 -70.05 -116.1 -69.65 -116.1 -69.6 -118.8 Q-69.6 -119.9 -70.0 -121.6 L-70.0 -121.75 -68.8 -122.45 -68.85 -122.1 Q-68.85 -120.85 -68.55 -121.4 L-66.55 -122.6 -65.05 -123.65 -66.65 -123.75 -64.4 -125.1 -61.2 -126.85 -61.2 -126.6 Q-61.2 -125.85 -59.15 -121.25 -57.2 -116.6 -56.55 -115.9 -56.0 -116.2 -55.9 -116.6 L-58.9 -124.15 Q-58.45 -124.15 -58.1 -124.5 -58.9 -126.6 -58.35 -128.3 L-57.2 -128.9 -58.0 -129.15 Q-57.35 -130.5 -55.9 -131.75 -57.05 -130.05 -57.05 -126.2 L-56.75 -122.9 -56.05 -118.9 Q-54.65 -118.9 -54.55 -119.45 -56.4 -124.9 -54.3 -129.1 -52.7 -132.35 -48.5 -135.45 -43.25 -137.15 -35.3 -138.0 -36.25 -135.15 -36.6 -130.8 L-37.15 -121.25 -36.75 -121.25 Q-36.4 -124.45 -35.05 -130.65 -34.15 -134.95 -34.0 -138.2 L-27.55 -138.75 Q-28.35 -137.25 -28.35 -135.9 -28.35 -134.8 -29.0 -133.65 L-28.0 -134.45 -28.0 -134.15 -28.4 -132.2 -29.4 -126.45 M-68.45 98.35 L-69.0 101.7 -70.55 110.3 -70.35 110.05 -70.1 109.55 -69.4 109.75 Q-69.1 109.85 -69.1 109.55 -68.85 110.05 -68.75 110.7 -68.6 111.05 -67.85 111.05 L-67.2 111.9 -67.15 111.95 -67.1 111.55 Q-66.75 112.5 -67.15 111.95 L-67.35 112.2 Q-67.6 112.45 -67.6 112.05 L-68.1 112.05 -67.4 113.25 -67.1 113.7 -67.1 131.05 Q-66.9 131.25 -66.65 131.9 L-66.6 132.05 -66.15 133.0 -66.1 132.25 -66.1 133.05 -66.15 133.0 -66.35 134.5 -66.6 136.8 -66.45 139.35 -66.8 139.35 -69.25 139.45 Q-72.15 139.45 -74.85 138.5 L-75.8 138.1 -74.6 138.05 -74.35 137.6 -73.6 128.4 Q-73.6 125.15 -75.0 115.2 -76.1 107.65 -76.7 105.0 -74.7 104.7 -72.8 102.2 -70.95 99.9 -70.95 98.35 L-68.45 98.35 M-74.85 -117.7 L-75.15 -117.3 -76.85 -114.65 -76.85 -113.25 -77.75 -114.95 -75.5 -117.05 -74.85 -117.7 M-49.45 -107.15 Q-52.05 -102.8 -52.05 -99.9 L-52.0 -99.0 -51.85 -98.7 -51.55 -98.7 Q-51.0 -101.3 -48.65 -105.45 -45.6 -110.95 -45.05 -112.2 -47.0 -111.35 -49.45 -107.15 M-94.85 -101.05 Q-94.85 -100.3 -94.3 -99.15 L-93.6 -97.4 -93.35 -97.95 -93.3 -98.95 Q-93.3 -100.7 -92.35 -104.4 L-92.85 -105.15 Q-94.85 -104.8 -94.85 -101.05 M-81.35 -87.0 Q-83.05 -80.9 -83.05 -76.1 -83.05 -72.05 -82.55 -68.5 -81.75 -63.15 -80.05 -61.7 L-79.8 -62.15 -80.65 -68.65 -81.3 -75.95 Q-81.3 -79.65 -79.4 -86.8 -77.45 -94.0 -75.85 -95.9 L-76.35 -96.65 Q-79.35 -94.25 -81.35 -87.0 M-102.65 -83.3 L-103.6 -84.7 -103.5 -85.4 Q-103.5 -86.9 -103.85 -87.6 L-102.55 -88.95 -102.85 -85.45 -102.65 -83.3 M-112.85 -72.15 Q-115.5 -70.3 -116.15 -66.6 -116.35 -65.35 -116.35 -60.35 -116.35 -55.15 -115.85 -52.9 -115.55 -52.95 -115.35 -53.15 L-115.1 -53.4 -114.85 -62.75 Q-114.6 -68.05 -112.35 -71.4 L-112.85 -72.15 M-106.8 -81.6 L-107.05 -82.15 Q-108.15 -81.65 -108.85 -80.2 L-109.3 -78.7 Q-109.3 -77.9 -108.4 -75.8 L-107.1 -72.9 -106.85 -73.15 Q-108.05 -77.95 -108.05 -78.8 -108.05 -79.5 -107.55 -80.3 L-106.8 -81.6 M-66.55 -78.1 L-66.35 -77.7 -65.85 -77.9 -64.3 -82.95 -62.55 -87.65 -64.65 -84.05 Q-66.6 -80.35 -66.6 -79.1 L-66.55 -78.1 M-59.2 -81.1 Q-54.75 -91.9 -52.85 -96.95 -54.75 -96.5 -60.25 -83.5 -65.8 -70.45 -65.8 -66.3 L-65.65 -65.5 -66.05 -63.05 -65.85 -61.7 -65.1 -60.9 Q-64.55 -61.15 -64.3 -61.45 -63.6 -66.2 -63.4 -68.9 -61.85 -74.25 -59.2 -81.1 M-129.85 61.45 L-130.2 60.25 -127.7 55.6 Q-125.05 51.1 -124.8 48.7 L-124.25 48.75 -124.4 50.0 -123.9 52.4 Q-123.05 54.85 -121.1 55.25 -120.5 57.05 -120.15 61.1 -119.8 62.9 -119.0 64.25 L-119.55 64.25 -119.65 65.0 -111.75 76.15 Q-114.05 77.2 -114.05 78.05 L-112.5 79.1 -110.95 78.2 Q-110.3 77.75 -108.95 77.75 -108.8 77.75 -106.85 80.3 L-105.0 82.35 Q-105.4 82.85 -105.4 83.55 L-104.25 84.55 -101.1 83.75 Q-100.6 86.4 -99.4 88.7 L-98.15 90.7 -98.4 92.05 -98.25 92.9 Q-94.7 91.35 -92.55 93.15 -90.8 94.6 -90.55 96.9 -90.25 99.75 -89.8 100.6 -88.75 102.45 -86.3 102.75 L-85.1 103.5 Q-82.25 105.0 -77.35 105.0 L-77.55 107.15 -76.55 116.55 Q-75.6 126.2 -75.6 128.35 L-75.8 132.55 -75.85 138.1 -77.65 137.3 -77.5 132.6 Q-77.4 130.9 -78.4 130.8 L-78.4 129.8 -78.4 125.05 -78.65 125.05 Q-80.85 129.8 -82.35 131.65 L-87.75 129.7 Q-91.55 128.1 -91.55 127.75 -91.55 124.8 -89.4 120.05 L-88.7 118.25 -89.05 121.9 Q-89.05 125.2 -88.05 126.6 -84.85 112.35 -84.85 109.35 -84.85 107.6 -85.35 105.6 L-86.05 105.6 -87.5 112.35 -87.3 108.3 Q-87.3 106.4 -88.5 104.65 -89.7 102.75 -90.35 106.6 L-90.6 110.35 -91.0 114.05 Q-91.0 115.5 -92.3 119.25 -93.15 118.8 -94.4 118.3 -97.2 117.2 -97.85 116.7 L-95.85 113.8 Q-94.25 111.2 -94.25 110.6 -94.0 108.8 -95.6 108.8 -96.65 108.8 -97.2 110.35 -97.9 112.1 -98.75 112.45 -100.7 110.5 -102.4 109.15 -101.5 108.05 -101.5 107.55 L-101.6 106.95 -101.65 106.95 -103.05 106.75 -104.85 107.7 Q-105.9 107.4 -106.1 108.3 L-109.25 104.5 Q-110.8 102.55 -113.65 101.0 L-112.55 99.0 -112.55 99.05 Q-112.55 100.3 -112.3 100.35 L-111.1 100.3 -108.5 95.45 Q-106.45 91.8 -106.35 90.1 -107.5 90.4 -110.1 94.5 L-111.75 97.2 Q-110.75 94.85 -110.75 94.2 L-110.95 93.35 Q-112.85 93.4 -114.75 96.3 -115.6 94.95 -116.55 93.9 L-116.0 93.0 -117.2 92.0 -118.1 92.4 Q-119.3 91.65 -119.45 93.0 L-120.75 93.5 Q-120.9 93.0 -123.35 90.4 -125.55 88.1 -125.55 87.5 -125.55 85.4 -123.25 83.7 -124.85 85.9 -124.85 86.9 L-124.8 87.8 -124.55 88.05 -121.25 84.45 -118.55 80.85 -120.3 81.1 -120.15 80.55 Q-120.2 79.05 -121.5 79.05 -122.7 79.05 -124.0 80.45 -124.8 78.85 -125.55 77.85 L-124.6 76.15 -124.8 76.15 -125.75 75.9 -126.8 76.45 Q-127.7 75.75 -127.95 76.95 L-128.35 77.0 -130.05 74.2 Q-131.25 71.95 -131.25 71.35 L-130.5 70.65 -130.55 70.9 Q-130.55 71.7 -130.35 71.9 L-129.6 72.1 Q-122.85 64.4 -122.85 63.6 L-122.55 62.3 -122.05 61.35 Q-123.2 61.8 -126.65 65.55 L-127.3 64.55 -126.4 63.55 Q-126.4 63.25 -126.9 62.9 L-127.7 62.2 -129.5 62.55 -129.65 61.9 -127.15 58.0 Q-124.85 54.15 -124.85 53.55 L-125.05 52.65 -125.55 52.35 Q-126.6 53.9 -128.15 57.4 L-129.85 61.45 M-100.1 109.8 L-96.75 102.55 Q-94.7 98.15 -93.85 95.6 -94.85 96.45 -98.05 101.95 -101.35 107.65 -101.35 108.9 L-101.1 109.75 -100.1 109.8 M-73.85 133.35 Q-72.25 134.4 -71.85 134.1 L-72.3 133.8 -72.6 133.35 -73.85 133.35" fill="#5f4935" fill-rule="evenodd" stroke="none"/>
      <path d="M-66.65 -123.75 L-65.05 -123.65 -66.55 -122.6 -68.55 -121.4 Q-68.85 -120.85 -68.85 -122.1 L-68.8 -122.45 Q-68.6 -123.7 -66.65 -123.75 M-73.3 -119.25 L-72.85 -119.45 Q-72.7 -119.3 -72.5 -119.3 -72.35 -119.15 -72.35 -118.4 -72.35 -117.55 -73.7 -115.6 -75.0 -113.65 -76.45 -112.5 L-76.55 -112.4 -76.85 -112.4 -76.85 -113.25 -76.85 -114.65 -75.15 -117.3 -74.85 -117.7 -73.3 -119.25 M-90.05 -107.85 Q-90.05 -109.4 -86.8 -112.5 -83.7 -115.45 -82.85 -115.45 L-82.35 -115.15 Q-82.9 -114.25 -85.7 -111.15 -87.85 -108.8 -87.85 -107.45 -87.85 -106.0 -84.05 -100.15 -84.1 -99.7 -84.6 -99.45 -85.4 -100.0 -87.65 -103.3 L-89.5 -106.3 -90.05 -107.85 M-98.65 -94.0 L-96.1 -93.95 -99.35 -89.95 Q-101.35 -87.2 -101.35 -85.35 -101.35 -83.0 -99.85 -80.45 L-102.25 -82.75 -102.55 -83.05 -102.65 -83.3 -102.85 -85.45 -102.55 -88.95 Q-101.8 -93.35 -98.65 -94.0 M-89.05 -75.85 Q-88.55 -80.25 -87.1 -85.35 -84.85 -93.5 -81.55 -98.65 -85.7 -87.2 -87.15 -79.9 -89.2 -69.25 -87.35 -60.7 L-87.55 -60.4 -87.7 -60.55 Q-88.7 -61.7 -89.05 -66.1 L-89.3 -71.55 -89.05 -75.85 M-59.95 -101.7 L-54.05 -108.65 -54.55 -107.5 -54.85 -105.95 Q-54.85 -105.45 -60.2 -97.3 -66.15 -88.35 -67.85 -84.2 -69.65 -79.9 -70.2 -73.3 L-70.8 -62.45 -71.1 -61.9 Q-71.8 -65.4 -71.8 -70.2 -71.8 -74.35 -71.15 -78.25 -70.2 -84.05 -67.8 -89.25 -65.15 -95.1 -59.95 -101.7 M-55.9 -131.75 L-55.35 -132.4 Q-54.45 -133.15 -43.55 -138.65 L-48.5 -135.45 Q-52.7 -132.35 -54.3 -129.1 -56.4 -124.9 -54.55 -119.45 -54.65 -118.9 -56.05 -118.9 L-56.75 -122.9 -57.05 -126.2 Q-57.05 -130.05 -55.9 -131.75 M-49.45 -107.15 Q-47.0 -111.35 -45.05 -112.2 -45.6 -110.95 -48.65 -105.45 -51.0 -101.3 -51.55 -98.7 L-51.85 -98.7 -52.0 -99.0 -52.05 -99.9 Q-52.05 -102.8 -49.45 -107.15 M-94.85 -101.05 Q-94.85 -104.8 -92.85 -105.15 L-92.35 -104.4 Q-93.3 -100.7 -93.3 -98.95 L-93.35 -97.95 -93.6 -97.4 -94.3 -99.15 Q-94.85 -100.3 -94.85 -101.05 M-81.35 -87.0 Q-79.35 -94.25 -76.35 -96.65 L-75.85 -95.9 Q-77.45 -94.0 -79.4 -86.8 -81.3 -79.65 -81.3 -75.95 L-80.65 -68.65 -79.8 -62.15 -80.05 -61.7 Q-81.75 -63.15 -82.55 -68.5 -83.05 -72.05 -83.05 -76.1 -83.05 -80.9 -81.35 -87.0 M-106.8 -81.6 L-107.55 -80.3 Q-108.05 -79.5 -108.05 -78.8 -108.05 -77.95 -106.85 -73.15 L-107.1 -72.9 -108.4 -75.8 Q-109.3 -77.9 -109.3 -78.7 L-108.85 -80.2 Q-108.15 -81.65 -107.05 -82.15 L-106.8 -81.6 M-112.85 -72.15 L-112.35 -71.4 Q-114.6 -68.05 -114.85 -62.75 L-115.1 -53.4 -115.35 -53.15 Q-115.55 -52.95 -115.85 -52.9 -116.35 -55.15 -116.35 -60.35 -116.35 -65.35 -116.15 -66.6 -115.5 -70.3 -112.85 -72.15 M-59.2 -81.1 Q-61.85 -74.25 -63.4 -68.9 -63.6 -66.2 -64.3 -61.45 -64.55 -61.15 -65.1 -60.9 L-65.85 -61.7 -66.05 -63.05 -65.65 -65.5 -65.8 -66.3 Q-65.8 -70.45 -60.25 -83.5 -54.75 -96.5 -52.85 -96.95 -54.75 -91.9 -59.2 -81.1 M-66.55 -78.1 L-66.6 -79.1 Q-66.6 -80.35 -64.65 -84.05 L-62.55 -87.65 -64.3 -82.95 -65.85 -77.9 -66.35 -77.7 -66.55 -78.1 M-76.7 105.0 Q-76.1 107.65 -75.0 115.2 -73.6 125.15 -73.6 128.4 L-74.35 137.6 -74.6 138.05 -75.8 138.1 -75.85 138.1 -75.8 132.55 -75.6 128.35 Q-75.6 126.2 -76.55 116.55 L-77.55 107.15 -77.35 105.0 -77.35 103.85 -77.05 103.85 -76.7 105.0 M-129.85 61.45 L-128.15 57.4 Q-126.6 53.9 -125.55 52.35 L-125.05 52.65 -124.85 53.55 Q-124.85 54.15 -127.15 58.0 L-129.65 61.9 -130.35 62.6 -129.85 61.45 M-126.65 65.55 Q-123.2 61.8 -122.05 61.35 L-122.55 62.3 -122.85 63.6 Q-122.85 64.4 -129.6 72.1 L-130.35 71.9 Q-130.55 71.7 -130.55 70.9 L-130.5 70.65 Q-130.15 69.3 -126.8 65.7 L-126.65 65.55 M-120.3 81.1 L-118.55 80.85 -121.25 84.45 -124.55 88.05 -124.8 87.8 -124.85 86.9 Q-124.85 85.9 -123.25 83.7 L-123.25 83.65 Q-121.9 81.7 -120.3 81.1 M-111.75 97.2 L-110.1 94.5 Q-107.5 90.4 -106.35 90.1 -106.45 91.8 -108.5 95.45 L-111.1 100.3 -112.3 100.35 Q-112.55 100.3 -112.55 99.05 L-112.55 99.0 -111.75 97.2 M-87.5 112.35 L-86.05 105.6 -85.35 105.6 Q-84.85 107.6 -84.85 109.35 -84.85 112.35 -88.05 126.6 -89.05 125.2 -89.05 121.9 L-88.7 118.25 -87.9 114.15 -87.5 112.35 M-100.1 109.8 L-101.1 109.75 -101.35 108.9 Q-101.35 107.65 -98.05 101.95 -94.85 96.45 -93.85 95.6 -94.7 98.15 -96.75 102.55 L-100.1 109.8 M-73.85 133.35 L-72.6 133.35 -72.3 133.8 -71.85 134.1 Q-72.25 134.4 -73.85 133.35" fill="#745941" fill-rule="evenodd" stroke="none"/>
    </g>
    <g id="shape8" transform="matrix(1.0, 0.0, 0.0, 1.0, 23.35, 24.9)">
      <path d="M-19.35 -10.25 L-18.75 -10.15 Q-18.2 -10.05 -13.8 -13.05 L-8.2 -16.65 Q-6.6 -17.4 -0.15 -19.35 7.3 -21.6 9.1 -21.35 15.1 -20.45 18.0 -13.7 19.75 -9.55 19.75 -6.15 18.15 1.75 13.35 8.85 3.8 22.95 -12.2 20.55 -16.65 19.9 -18.45 15.55 L-19.55 12.55 Q-20.3 11.15 -21.4 10.95 L-21.4 9.65 Q-21.4 1.85 -20.35 -5.05 L-19.35 -10.25 M3.5 -8.85 L3.05 -9.45 Q7.0 -11.15 8.3 -10.95 9.5 -10.75 9.9 -10.4 8.45 -6.85 6.4 0.35 4.25 6.7 0.85 10.75 L1.15 10.8 8.7 1.1 Q13.4 -5.6 13.4 -10.1 13.4 -18.75 -1.95 -11.75 -7.5 -9.2 -12.45 -5.7 -17.25 -2.3 -17.25 -1.1 -17.25 -0.25 -16.9 0.2 L-16.05 0.75 -15.45 0.35 -14.0 0.85 Q-10.25 1.7 -8.65 2.35 -12.05 4.95 -15.15 4.2 L-16.55 4.0 Q-16.95 4.15 -16.95 5.55 -16.95 6.2 -14.5 10.45 -11.8 15.15 -10.4 15.35 -8.8 15.6 -3.25 7.4 -4.6 7.95 -7.25 9.75 L-10.4 11.8 Q-11.1 11.4 -11.8 9.9 L-12.85 7.75 Q-9.55 8.35 -7.25 5.85 -6.0 4.5 -5.6 3.25 -3.45 3.2 0.65 -0.3 5.05 -4.0 5.05 -5.6 5.05 -6.45 3.5 -8.85 M-11.0 -2.5 L-3.1 -6.65 1.2 -8.65 1.6 -7.95 Q2.55 -6.3 2.55 -5.8 2.55 -4.45 -2.65 -1.25 L-5.8 0.6 Q-6.75 -1.1 -9.85 -2.2 L-11.0 -2.5" fill="#d2ac83" fill-rule="evenodd" stroke="none"/>
      <path d="M-21.4 10.95 Q-20.3 11.15 -19.55 12.55 L-18.45 15.55 Q-16.65 19.9 -12.2 20.55 3.8 22.95 13.35 8.85 18.15 1.75 19.75 -6.15 19.75 -9.55 18.0 -13.7 15.1 -20.45 9.1 -21.35 7.3 -21.6 -0.15 -19.35 -6.6 -17.4 -8.2 -16.65 L-13.8 -13.05 Q-18.2 -10.05 -18.75 -10.15 L-19.35 -10.25 -19.75 -10.35 -20.7 -10.75 -20.8 -11.0 -20.95 -11.9 Q-20.95 -13.4 -18.0 -15.7 L-14.0 -18.35 Q-6.6 -22.8 1.25 -24.3 10.8 -26.15 16.45 -22.4 23.4 -17.8 23.4 -5.35 23.4 -3.8 21.7 0.8 19.4 6.95 15.9 11.95 5.05 27.15 -12.1 24.6 -17.9 23.75 -21.0 19.05 L-21.35 18.4 Q-23.35 15.15 -23.35 12.9 L-23.3 11.95 -23.15 11.4 -22.65 11.15 -21.4 10.95 M-11.0 -2.5 L-9.85 -2.2 Q-6.75 -1.1 -5.8 0.6 L-2.65 -1.25 Q2.55 -4.45 2.55 -5.8 2.55 -6.3 1.6 -7.95 L1.2 -8.65 -3.1 -6.65 -11.0 -2.5 M3.5 -8.85 Q5.05 -6.45 5.05 -5.6 5.05 -4.0 0.65 -0.3 -3.45 3.2 -5.6 3.25 -6.0 4.5 -7.25 5.85 -9.55 8.35 -12.85 7.75 L-11.8 9.9 Q-11.1 11.4 -10.4 11.8 L-7.25 9.75 Q-4.6 7.95 -3.25 7.4 -8.8 15.6 -10.4 15.35 -11.8 15.15 -14.5 10.45 -16.95 6.2 -16.95 5.55 -16.95 4.15 -16.55 4.0 L-15.15 4.2 Q-12.05 4.95 -8.65 2.35 -10.25 1.7 -14.0 0.85 L-15.45 0.35 -16.05 0.75 -16.9 0.2 Q-17.25 -0.25 -17.25 -1.1 -17.25 -2.3 -12.45 -5.7 -7.5 -9.2 -1.95 -11.75 13.4 -18.75 13.4 -10.1 13.4 -5.6 8.7 1.1 L1.15 10.8 0.85 10.75 Q4.25 6.7 6.4 0.35 8.45 -6.85 9.9 -10.4 9.5 -10.75 8.3 -10.95 7.0 -11.15 3.05 -9.45 L3.5 -8.85" fill="#6b5f52" fill-rule="evenodd" stroke="none"/>
    </g>
    <g id="shape9" transform="matrix(1.0, 0.0, 0.0, 1.0, 96.0, -23.05)">
      <path d="M24.6 47.55 Q23.5 55.35 7.9 65.35 -10.6 77.1 -32.25 78.8 L-43.95 78.8 Q-60.6 76.75 -67.45 74.05 -73.65 70.85 -80.1 68.8 -82.5 68.05 -88.2 61.7 L-92.4 56.7 Q-93.9 59.75 -94.2 63.5 L-94.5 63.5 Q-94.35 62.95 -95.1 61.35 -96.0 59.6 -96.0 59.0 -96.0 55.35 -94.5 52.45 -92.5 48.45 -88.35 47.75 L-88.2 48.1 -88.1 48.75 Q-88.1 49.85 -90.45 53.4 -88.75 54.7 -85.05 58.8 -79.1 65.15 -78.1 65.5 -71.9 67.8 -65.85 70.95 -59.65 73.35 -43.6 74.95 L-33.1 74.95 Q-12.45 73.35 5.15 62.45 20.4 53.05 21.05 45.65 16.8 43.4 16.8 42.25 16.8 38.2 24.25 42.65 31.6 47.15 31.6 52.0 31.6 52.65 33.25 56.9 32.15 56.1 30.7 53.6 29.1 50.85 27.45 49.25 27.2 48.95 24.6 47.55 M-36.15 33.8 L-36.3 33.9 Q-38.0 30.9 -39.35 30.0 -42.15 27.85 -47.55 27.85 -54.9 27.85 -59.05 33.55 -61.85 37.35 -61.85 40.15 L-60.35 45.95 Q-60.35 46.75 -61.0 47.15 -61.6 47.55 -62.2 47.55 -64.9 47.55 -65.9 43.7 L-66.1 42.45 -67.7 42.1 Q-70.15 42.1 -72.05 45.4 L-73.35 48.65 Q-73.35 49.85 -71.15 52.75 -68.6 56.05 -66.6 56.05 L-64.65 55.45 -64.25 55.3 -65.75 53.75 -67.3 53.5 Q-69.2 53.5 -70.25 51.8 -71.0 50.7 -71.0 49.9 -71.0 45.8 -67.35 48.35 L-67.2 48.5 -66.95 48.5 -61.75 52.0 Q-55.0 55.45 -47.2 55.45 -44.6 55.45 -39.8 52.45 L-34.45 48.85 Q-27.95 45.4 -24.05 46.4 -20.95 47.15 -20.95 50.05 -20.95 53.6 -24.05 53.6 -25.65 53.6 -27.65 52.8 -29.7 52.0 -30.3 52.0 -30.5 52.0 -36.3 56.1 -42.15 60.2 -47.95 60.2 L-54.3 59.7 -53.8 61.7 Q-53.8 62.4 -54.5 64.0 L-55.75 65.85 -54.4 66.85 Q-53.2 67.5 -50.85 67.5 -47.3 67.5 -47.4 65.35 -47.4 62.8 -46.5 62.4 -45.4 63.4 -45.05 64.25 -44.8 64.8 -44.8 65.85 -44.8 66.95 -45.6 68.2 -46.9 70.2 -49.25 70.2 -53.9 70.2 -56.5 68.2 -58.3 66.85 -58.3 65.75 L-57.2 62.95 Q-56.5 61.05 -56.3 59.25 L-59.9 58.0 Q-61.45 60.55 -65.85 60.55 -71.85 60.55 -75.2 55.1 -77.4 51.4 -77.4 48.75 -77.4 44.8 -73.1 41.3 -69.7 38.6 -66.35 39.95 L-66.35 39.8 Q-66.35 33.3 -61.85 28.9 -57.8 24.9 -51.7 23.65 -45.85 22.3 -41.3 23.9 -36.55 25.6 -36.15 29.65 L-36.15 33.8 M-37.35 41.9 L-37.6 41.25 Q-37.6 39.4 -33.0 36.75 -28.2 34.05 -22.85 33.2 -8.15 30.85 -8.15 45.3 -8.15 48.95 -10.6 53.6 -14.3 60.95 -21.65 60.95 -26.05 60.95 -28.8 58.15 -30.55 56.4 -31.0 54.7 L-30.4 54.7 Q-30.0 54.7 -29.7 54.35 -29.45 54.0 -28.95 54.0 -28.0 54.0 -25.75 55.2 -23.45 56.3 -22.4 56.3 -18.15 56.3 -15.1 51.8 -12.7 48.15 -12.7 45.3 -12.7 43.0 -13.7 40.85 -15.4 37.2 -19.15 37.2 -24.8 37.2 -29.45 39.3 -35.3 41.9 -36.65 42.15 L-37.35 41.9" fill="#6b5f52" fill-rule="evenodd" stroke="none"/>
    </g>
    <g id="shape10" transform="matrix(1.0, 0.0, 0.0, 1.0, 56.15, 20.0)">
      <path d="M56.1 -13.45 L56.2 -9.5 Q56.2 -0.05 52.4 6.35 44.45 20.0 21.95 20.0 7.4 20.0 2.95 6.45 1.55 2.15 1.35 -3.1 L1.45 -7.6 Q1.45 -13.25 3.3 -15.05 8.3 -20.0 26.4 -20.0 47.8 -20.0 53.5 -16.8 55.7 -15.45 56.1 -13.45 M-16.45 -6.05 Q-16.45 0.35 -18.85 5.0 -23.55 14.15 -36.0 14.15 -47.65 14.15 -52.6 5.35 -56.15 -0.8 -56.15 -11.05 -56.15 -12.65 -49.9 -14.7 -43.4 -16.9 -36.25 -17.4 -16.45 -18.7 -16.45 -6.05" fill="#ffffff" fill-rule="evenodd" stroke="none"/>
    </g>
    <g id="shape11" transform="matrix(1.0, 0.0, 0.0, 1.0, 46.95, 12.8)">
      <path d="M33.45 -8.6 Q38.2 -8.9 41.9 -7.65 46.8 -6.05 46.95 -2.25 47.15 2.1 45.2 5.85 41.4 12.85 31.3 12.85 25.65 12.85 21.9 11.0 L22.8 11.0 Q26.05 11.0 30.3 7.35 35.4 2.85 35.4 -3.15 35.4 -6.1 33.45 -8.6 M36.9 7.95 Q36.9 6.15 35.05 6.25 33.25 6.35 33.25 7.95 L33.35 8.95 Q33.8 9.9 35.05 9.9 36.0 9.9 36.5 9.15 36.9 8.55 36.9 7.95 M-30.15 -12.8 Q-26.7 -12.8 -23.95 -11.75 -19.6 -10.15 -19.5 -6.35 -19.25 -2.05 -21.05 1.75 -24.4 8.8 -33.45 8.8 -38.4 8.8 -41.6 6.95 -37.35 6.15 -34.1 3.95 -28.15 -0.1 -28.15 -8.05 -28.15 -11.1 -30.15 -12.8 M-31.6 5.9 Q-31.2 6.95 -29.95 6.95 -29.0 6.95 -28.5 6.15 -28.15 5.5 -28.15 4.8 -28.15 2.5 -29.95 2.6 -31.75 2.7 -31.75 4.8 L-31.6 5.9" fill="#0056ad" fill-rule="evenodd" stroke="none"/>
      <path d="M21.9 11.0 Q20.0 9.95 18.65 8.45 17.3 6.95 16.6 5.2 L16.2 3.7 Q16.0 -1.15 20.65 -4.5 24.8 -7.55 31.25 -8.4 L33.45 -8.6 Q35.4 -6.1 35.4 -3.15 35.4 2.85 30.3 7.35 26.05 11.0 22.8 11.0 L21.9 11.0 M26.25 -0.6 Q20.95 -1.7 20.95 3.2 20.95 4.25 21.9 5.15 23.3 6.4 26.05 6.4 28.6 6.4 30.15 5.15 31.4 4.05 31.4 2.6 31.4 0.4 26.25 -0.6 M-41.6 6.95 Q-43.45 5.9 -44.75 4.3 L-46.25 1.9 -46.6 1.1 -46.95 -0.45 -46.95 -0.6 Q-47.0 -5.35 -42.95 -8.6 -39.2 -11.6 -33.5 -12.45 L-30.15 -12.8 Q-28.15 -11.1 -28.15 -8.05 -28.15 -0.1 -34.1 3.95 -37.35 6.15 -41.6 6.95 M-35.4 0.85 Q-35.4 -1.9 -39.4 -2.45 -43.45 -3.05 -43.45 0.75 L-42.95 2.2 Q-42.0 3.9 -39.65 3.9 -35.4 3.9 -35.4 0.85" fill="#0066cc" fill-rule="evenodd" stroke="none"/>
      <path d="M26.25 -0.6 Q31.4 0.4 31.4 2.6 31.4 4.05 30.15 5.15 28.6 6.4 26.05 6.4 23.3 6.4 21.9 5.15 20.95 4.25 20.95 3.2 20.95 -1.7 26.25 -0.6 M36.9 7.95 Q36.9 8.55 36.5 9.15 36.0 9.9 35.05 9.9 33.8 9.9 33.35 8.95 L33.25 7.95 Q33.25 6.35 35.05 6.25 36.9 6.15 36.9 7.95 M-35.4 0.85 Q-35.4 3.9 -39.65 3.9 -42.0 3.9 -42.95 2.2 L-43.45 0.75 Q-43.45 -3.05 -39.4 -2.45 -35.4 -1.9 -35.4 0.85 M-31.6 5.9 L-31.75 4.8 Q-31.75 2.7 -29.95 2.6 -28.15 2.5 -28.15 4.8 -28.15 5.5 -28.5 6.15 -29.0 6.95 -29.95 6.95 -31.2 6.95 -31.6 5.9" fill="#93bfec" fill-rule="evenodd" stroke="none"/>
    </g>
    <g id="shape12" transform="matrix(1.0, 0.0, 0.0, 1.0, 65.0, 19.3)">
      <path d="M-54.6 -16.85 L-54.25 -16.85 Q-49.5 -17.05 -49.35 -14.65 -49.3 -13.8 -48.4 -11.7 -47.65 -9.9 -48.0 -9.15 L-47.75 -9.15 -46.75 -12.3 -46.4 -13.9 -44.45 -13.9 -41.05 -14.85 Q-40.65 -13.65 -39.95 -13.15 L-39.55 -13.75 Q-39.35 -13.25 -39.35 -14.15 L-39.55 -15.45 -39.0 -15.75 -39.55 -16.1 -39.55 -16.45 -37.5 -16.6 -32.95 -16.25 -32.95 -16.1 -32.85 -14.35 -31.7 -11.95 Q-31.0 -13.1 -31.0 -14.05 L-31.2 -16.2 -25.85 -15.75 -25.35 -10.85 -24.75 -6.6 -24.65 -6.7 -23.6 -11.35 Q-22.65 -14.85 -22.55 -16.45 -19.35 -16.7 -14.75 -16.45 -14.9 -10.45 -15.6 1.75 L-15.25 12.0 -21.85 11.4 -21.4 5.65 -20.95 -2.2 Q-22.0 -1.65 -22.85 2.75 -23.6 6.05 -23.65 8.35 L-23.95 8.45 -23.65 8.8 -23.65 8.95 -23.45 11.05 -30.25 10.35 Q-32.65 10.35 -32.85 9.35 -33.2 8.25 -34.3 8.25 -35.2 8.25 -35.9 9.6 L-39.55 9.6 -42.85 9.2 -42.85 9.35 Q-42.85 9.7 -43.75 9.7 -44.2 9.7 -44.55 9.1 L-44.95 9.1 -44.85 8.3 -45.2 7.05 -45.55 4.35 -45.55 4.2 -45.55 3.45 -46.4 4.45 Q-47.3 8.7 -48.35 9.9 L-48.5 10.55 -49.15 10.65 -49.25 10.55 -49.3 10.4 Q-49.95 10.4 -50.2 10.05 L-50.35 10.05 -57.8 10.35 Q-61.45 10.35 -61.8 6.65 -61.45 2.35 -61.45 1.05 L-61.7 -4.25 -61.8 -5.45 -62.4 -7.9 -62.6 -11.7 Q-62.6 -14.05 -62.05 -14.7 -60.5 -16.25 -54.95 -16.25 L-54.95 -16.3 -54.6 -16.85 M-56.1 -11.6 L-56.45 -11.8 -56.2 -11.35 -55.8 -11.55 -56.1 -11.6 M3.0 -14.85 L6.5 -15.1 14.1 -14.35 14.15 -13.8 Q13.95 -12.95 14.25 -11.85 L15.05 -9.45 14.85 -8.05 15.05 -8.05 16.45 -11.95 16.8 -12.95 24.15 -12.8 24.0 -10.4 Q24.1 -8.9 25.25 -8.9 26.1 -8.9 25.85 -9.15 L25.95 -9.35 26.0 -9.35 26.45 -12.15 Q26.7 -13.65 28.9 -13.65 33.45 -13.75 39.3 -13.45 L41.0 -13.65 41.7 -10.95 Q43.15 -13.55 43.35 -15.0 L53.15 -14.05 54.75 -14.15 55.35 -11.85 Q55.35 -9.25 54.25 -5.1 L54.6 -5.1 56.05 -10.0 Q57.1 -12.95 57.25 -15.0 L59.25 -14.7 61.4 -14.5 61.4 -12.05 60.35 -2.4 60.3 4.65 Q60.3 12.0 60.7 15.55 L57.05 15.7 50.45 14.95 49.95 14.95 49.65 14.35 48.6 11.9 Q46.75 15.05 46.8 15.55 L45.3 15.55 39.35 14.7 32.2 14.2 31.75 11.95 30.85 9.45 Q29.65 10.1 29.65 11.4 L29.5 12.55 Q27.55 11.75 23.2 11.5 L18.1 11.65 Q17.5 9.7 15.75 6.75 L15.55 6.9 Q15.95 8.15 15.4 10.2 L14.5 13.1 6.55 13.25 2.1 12.9 2.05 4.55 Q3.0 -8.5 3.0 -12.45 L3.0 -14.85" fill="#5f4935" fill-rule="evenodd" stroke="none"/>
      <path d="M-54.6 -16.85 L-54.95 -16.3 -54.95 -16.25 Q-60.5 -16.25 -62.05 -14.7 -62.6 -14.05 -62.6 -11.7 L-62.4 -7.9 -61.8 -5.45 -61.7 -4.25 -61.45 1.05 Q-61.45 2.35 -61.8 6.65 -61.45 10.35 -57.8 10.35 L-50.35 10.05 -50.2 10.05 Q-49.95 10.4 -49.3 10.4 L-49.25 10.55 -49.15 10.65 -48.5 10.55 -48.35 9.9 Q-47.3 8.7 -46.4 4.45 L-45.55 3.45 -45.55 4.2 -45.55 4.35 -45.2 7.05 -44.85 8.3 -44.95 9.1 -44.55 9.1 Q-44.2 9.7 -43.75 9.7 -42.85 9.7 -42.85 9.35 L-42.85 9.2 -39.55 9.6 -35.9 9.6 Q-35.2 8.25 -34.3 8.25 -33.2 8.25 -32.85 9.35 -32.65 10.35 -30.25 10.35 L-23.45 11.05 -23.65 8.95 -23.65 8.8 -23.95 8.45 -23.65 8.35 Q-23.6 6.05 -22.85 2.75 -22.0 -1.65 -20.95 -2.2 L-21.4 5.65 -21.85 11.4 -15.25 12.0 -15.6 1.75 Q-14.9 -10.45 -14.75 -16.45 -19.35 -16.7 -22.55 -16.45 -22.65 -14.85 -23.6 -11.35 L-24.65 -6.7 -24.75 -6.6 -25.35 -10.85 -25.85 -15.75 -31.2 -16.2 -31.0 -14.05 Q-31.0 -13.1 -31.7 -11.95 L-32.85 -14.35 -32.95 -16.1 -32.95 -16.25 -37.5 -16.6 -39.55 -16.45 -39.55 -16.1 -39.0 -15.75 -39.55 -15.45 -39.35 -14.15 Q-39.35 -13.25 -39.55 -13.75 L-39.95 -13.15 Q-40.65 -13.65 -41.05 -14.85 L-44.45 -13.9 -46.4 -13.9 -46.75 -12.3 -47.75 -9.15 -48.0 -9.15 Q-47.65 -9.9 -48.4 -11.7 -49.3 -13.8 -49.35 -14.65 -49.5 -17.05 -54.25 -16.85 L-54.6 -16.85 M-53.15 -19.25 L-52.55 -19.3 Q-47.55 -19.45 -46.55 -16.7 L-45.0 -16.85 Q-43.0 -17.1 -41.55 -16.85 -41.5 -18.35 -40.05 -18.8 -36.45 -19.8 -24.05 -18.65 -22.8 -17.8 -22.55 -16.95 L-19.15 -18.35 -12.7 -17.55 -10.85 -17.35 Q-10.85 -12.05 -12.15 -0.6 L-11.55 9.25 Q-11.25 15.55 -13.45 15.55 L-26.0 14.35 -35.35 12.9 -45.05 11.9 -45.35 11.9 Q-45.95 14.35 -47.05 14.35 L-51.65 14.0 -51.2 15.3 -53.55 15.05 -57.4 14.7 -57.8 13.85 -61.1 13.85 Q-62.8 13.85 -63.55 11.9 L-63.45 10.35 -64.2 -0.05 Q-64.2 -4.6 -64.35 -5.6 L-65.0 -9.95 -64.5 -12.0 -64.55 -16.0 Q-64.55 -17.85 -61.95 -18.95 L-61.8 -18.95 -59.65 -18.65 -54.7 -19.0 -53.15 -19.25 M3.0 -14.85 L3.0 -12.45 Q3.0 -8.5 2.05 4.55 L2.1 12.9 6.55 13.25 14.5 13.1 15.4 10.2 Q15.95 8.15 15.55 6.9 L15.75 6.75 Q17.5 9.7 18.1 11.65 L23.2 11.5 Q27.55 11.75 29.5 12.55 L29.65 11.4 Q29.65 10.1 30.85 9.45 L31.75 11.95 32.2 14.2 39.35 14.7 45.3 15.55 46.8 15.55 Q46.75 15.05 48.6 11.9 L49.65 14.35 49.95 14.95 50.45 14.95 57.05 15.7 60.7 15.55 Q60.3 12.0 60.3 4.65 L60.35 -2.4 61.4 -12.05 61.4 -14.5 59.25 -14.7 57.25 -15.0 Q57.1 -12.95 56.05 -10.0 L54.6 -5.1 54.25 -5.1 Q55.35 -9.25 55.35 -11.85 L54.75 -14.15 53.15 -14.05 43.35 -15.0 Q43.15 -13.55 41.7 -10.95 L41.0 -13.65 39.3 -13.45 Q33.45 -13.75 28.9 -13.65 26.7 -13.65 26.45 -12.15 L26.0 -9.35 25.95 -9.35 25.85 -9.15 Q26.1 -8.9 25.25 -8.9 24.1 -8.9 24.0 -10.4 L24.15 -12.8 16.8 -12.95 16.45 -11.95 15.05 -8.05 14.85 -8.05 15.05 -9.45 14.25 -11.85 Q13.95 -12.95 14.15 -13.8 L14.1 -14.35 6.5 -15.1 3.0 -14.85 M-0.3 -9.9 L0.05 -14.15 Q1.8 -17.45 2.55 -16.85 4.3 -17.7 9.45 -17.7 17.2 -17.7 17.2 -15.65 L17.2 -15.25 20.2 -15.45 24.5 -15.25 Q24.65 -15.85 25.25 -16.2 L39.3 -17.05 40.4 -16.95 Q40.45 -18.5 42.6 -18.5 L49.3 -17.85 Q52.8 -17.2 54.25 -16.0 L54.1 -16.85 Q54.1 -17.9 54.85 -18.3 L58.1 -18.65 Q63.9 -18.65 65.05 -16.45 L65.05 -13.65 Q65.05 -6.9 64.0 -2.75 L64.0 11.5 Q64.55 13.6 64.55 15.9 64.55 19.35 62.5 19.35 58.35 19.35 52.65 18.0 L50.3 17.4 50.1 18.25 Q49.45 19.2 46.8 19.2 32.45 19.2 29.8 16.3 L29.5 15.8 28.9 15.8 21.25 14.8 18.55 14.35 18.6 14.8 Q18.65 15.6 17.95 16.05 15.95 17.15 4.8 17.15 -0.15 17.15 -1.25 14.35 L-1.4 11.2 -1.2 4.55 -0.55 -5.65 -0.3 -9.9" fill="#231b14" fill-rule="evenodd" stroke="none"/>
    </g>
  </defs>
</svg>
